<?xml version="1.0" encoding="UTF-8"?>
<svg width="130px" height="131px" viewBox="0 0 130 131" version="1.1" xmlns="http://www.w3.org/2000/svg" xmlns:xlink="http://www.w3.org/1999/xlink">
    <!-- Generator: Sketch 60.1 (88133) - https://sketch.com -->
    <title>icon5</title>
    <desc>Created with Sketch.</desc>
    <defs>
        <polygon id="path-1" points="0 131 130 131 130 0 0 0"></polygon>
    </defs>
    <g id="馬卡龍綠色" stroke="none" stroke-width="1" fill="none" fill-rule="evenodd">
        <g id="2功能清單頁" transform="translate(-172.000000, -490.000000)">
            <g id="icon5" transform="translate(172.000000, 490.000000)">
                <polygon id="Fill-1" fill="#FFFFFF" points="34 89 96 89 96 42 34 42"></polygon>
                <g id="编组">
                    <path d="M65.0001677,72.2613748 C61.3006194,72.2613748 58.2904903,69.2272458 58.2904903,65.5000845 C58.2904903,61.7729232 61.3006194,58.7387942 65.0001677,58.7387942 C68.6988774,58.7387942 71.7098452,61.7729232 71.7098452,65.5000845 C71.7098452,69.2272458 68.6988774,72.2613748 65.0001677,72.2613748 M65.0001677,56.625891 C60.1440387,56.625891 56.1937161,60.6066006 56.1937161,65.5000845 C56.1937161,70.3935684 60.1440387,74.3742781 65.0001677,74.3742781 C69.8562968,74.3742781 73.8066194,70.3935684 73.8066194,65.5000845 C73.8066194,60.6066006 69.8562968,56.625891 65.0001677,56.625891" id="Fill-2" fill="#495057"></path>
                    <path d="M65.0001677,80.0791168 C64.3375871,80.0791168 63.6750065,80.0368587 63.0292,79.943891 L62.7440387,82.039891 C63.4821032,82.1413103 64.245329,82.19202 65.0001677,82.19202 L65.0588774,82.19202 L65.0001677,80.0791168 Z M68.9580387,79.5297619 C68.3290065,79.7072458 67.6756516,79.8424716 67.0298452,79.9354394 L67.3150065,82.0314394 C68.0614581,81.9215684 68.8079097,81.7694394 69.5292,81.558149 L68.9580387,79.5297619 Z M59.2382323,78.8789877 L58.3995226,80.8144071 C59.0956516,81.1186652 59.8085548,81.3722135 60.5298452,81.5750523 L61.1001677,79.5466652 C60.4619097,79.3691813 59.8421032,79.1409877 59.2382323,78.8789877 L59.2382323,78.8789877 Z M72.5569419,77.9324071 C71.9941677,78.2789232 71.407071,78.5916329 70.8124258,78.8536329 L71.6511355,80.7890523 C72.3388774,80.4847942 73.0182323,80.1298265 73.6556516,79.7326006 L72.5569419,77.9324071 Z M55.8750065,76.8167942 L54.5498452,78.4564071 C55.1369419,78.938149 55.7575871,79.3776329 56.3950065,79.7664071 L57.485329,77.9662135 C56.9233935,77.6196974 56.3866194,77.2309232 55.8750065,76.8167942 L55.8750065,76.8167942 Z M75.6098452,75.4222781 C75.1569419,75.90402 74.6788774,76.3604071 74.1672645,76.7829877 L75.4999742,78.414149 C76.0795226,77.9408587 76.633071,77.4084071 77.1446839,76.8590523 L75.6098452,75.4222781 Z M53.1827484,73.917891 L51.4717806,75.1349232 C51.8995226,75.751891 52.3775871,76.3435039 52.8975871,76.9013103 L54.4232,75.4560845 C53.9795226,74.9743426 53.5601677,74.4503426 53.1827484,73.917891 L53.1827484,73.917891 Z M77.8743613,72.1684071 C77.5724258,72.76002 77.2285548,73.3347297 76.8511355,73.8756329 L78.5621032,75.0842135 C78.9982323,74.4672458 79.3924258,73.80802 79.7362968,73.131891 L77.8743613,72.1684071 Z M51.3627484,70.3935684 L49.3909419,71.1035039 C49.6433935,71.821891 49.945329,72.5233748 50.2967484,73.1910523 L52.1511355,72.2191168 C51.8575871,71.6359555 51.5892,71.0189877 51.3627484,70.3935684 L51.3627484,70.3935684 Z M79.1743613,68.4243426 C79.0485548,69.0751168 78.8724258,69.7174394 78.6543613,70.3428587 L80.6328774,71.0443426 C80.8769419,70.3259555 81.0782323,69.5822135 81.2292,68.8469232 L79.1743613,68.4243426 Z M50.5659742,66.5058265 L48.4775871,66.6495039 C48.5279097,67.410149 48.6285548,68.1707942 48.7795226,68.9060845 L50.8343613,68.4835039 C50.7001677,67.8327297 50.607071,67.1735039 50.5659742,66.5058265 L50.5659742,66.5058265 Z M81.5227484,64.3168587 L79.4343613,64.4605361 C79.4595226,64.8070523 79.4679097,65.1535684 79.4679097,65.5000845 C79.4679097,65.8212458 79.4595226,66.1339555 79.4343613,66.4551168 L81.5311355,66.5903426 C81.5562968,66.2269232 81.5646839,65.8635039 81.5646839,65.5000845 C81.5646839,65.1028587 81.5479097,64.7056329 81.5227484,64.3168587 L81.5227484,64.3168587 Z M48.7711355,62.127891 C48.619329,62.8716329 48.5195226,63.6238265 48.4692,64.37602 L50.5659742,64.5196974 C50.607071,63.8604716 50.7001677,63.1927942 50.8259742,62.54202 L48.7711355,62.127891 Z M80.6001677,59.8628587 L78.6208129,60.5812458 C78.8472645,61.1982135 79.0225548,61.8405361 79.1575871,62.4913103 L81.2124258,62.0602781 C81.0614581,61.3165361 80.8517806,60.5812458 80.6001677,59.8628587 L80.6001677,59.8628587 Z M50.2808129,57.8344716 C49.9369419,58.5106006 49.6350065,59.2120845 49.3833935,59.92202 L51.3543613,60.6319555 C51.5808129,60.0065361 51.8408129,59.3895684 52.1427484,58.8064071 L50.2808129,57.8344716 Z M78.5117806,55.839891 L76.8008129,57.0653748 C77.1773935,57.5978265 77.5304903,58.1725361 77.8324258,58.7556974 L79.6935226,57.7753103 C79.3421032,57.1076329 78.9479097,56.4484071 78.5117806,55.839891 L78.5117806,55.839891 Z M52.8808129,54.1242135 C52.3608129,54.68202 51.8827484,55.2736329 51.4550065,55.8906006 L53.1651355,57.1076329 C53.5425548,56.5667297 53.9619097,56.0511813 54.4156516,55.5609877 L52.8808129,54.1242135 Z M75.425329,52.5268587 L74.1085548,54.1664716 C74.6117806,54.5806006 75.0982323,55.0369877 75.5511355,55.5271813 L77.0775871,54.0735039 C76.5659742,53.524149 76.0124258,53.000149 75.425329,52.5268587 L75.425329,52.5268587 Z M56.3698452,51.2506652 C55.7324258,51.6394394 55.1117806,52.0873748 54.5246839,52.5606652 L55.8490065,54.2002781 C56.3614581,53.7776974 56.9066194,53.3973748 57.4601677,53.0508587 L56.3698452,51.2506652 Z M71.5672645,50.1688587 L70.7361032,52.1127297 C71.3408129,52.3747297 71.9279097,52.6789877 72.4898452,53.0255039 L73.5801677,51.2168587 C72.9343613,50.8196329 72.2550065,50.4731168 71.5672645,50.1688587 L71.5672645,50.1688587 Z M60.5038452,49.4335684 C59.7741677,49.6364071 59.0621032,49.8899555 58.3743613,50.1942135 L59.213071,52.1296329 C59.8169419,51.8676329 60.4375871,51.6394394 61.0666194,51.4619555 L60.5038452,49.4335684 Z M67.2227484,48.9518265 L66.9459742,51.0478265 C67.5909419,51.1407942 68.2459742,51.27602 68.8750065,51.4450523 L69.4369419,49.4082135 C68.7072645,49.2138265 67.9692,49.0532458 67.2227484,48.9518265 L67.2227484,48.9518265 Z M64.9666194,48.808149 C64.2117806,48.808149 63.4569419,48.8588587 62.7188774,48.9687297 L63.0040387,51.0562781 C63.6490065,50.9717619 64.3124258,50.9210523 64.9741677,50.9210523 L64.9666194,48.808149 Z" id="Fill-4" fill="#495057"></path>
                    <path d="M65.0001677,67.0468142 C64.153071,67.0468142 63.465329,66.3537819 63.465329,65.500169 C63.465329,64.6465561 64.153071,63.9535239 65.0001677,63.9535239 C65.8472645,63.9535239 66.5350065,64.6465561 66.5350065,65.500169 C66.5350065,66.3537819 65.8472645,67.0468142 65.0001677,67.0468142 M65.0001677,61.8406206 C62.9956516,61.8406206 61.3685548,63.4802335 61.3685548,65.500169 C61.3685548,67.5201045 62.9956516,69.1597174 65.0001677,69.1597174 C67.0038452,69.1597174 68.6317806,67.5201045 68.6317806,65.500169 C68.6317806,63.4802335 67.0038452,61.8406206 65.0001677,61.8406206" id="Fill-6" fill="#495057"></path>
                    <mask id="mask-2" fill="white">
                        <use xlink:href="#path-1"></use>
                    </mask>
                    <g id="Clip-9"></g>
                    <polygon id="Fill-8" fill="#495057" mask="url(#mask-2)" points="91.6374194 96.6610968 100.645161 96.6610968 100.645161 34.3389032 91.6374194 34.3389032"></polygon>
                    <polygon id="Fill-10" fill="#343B43" mask="url(#mask-2)" points="96.1412903 96.6610968 100.645161 96.6610968 100.645161 34.3389032 96.1412903 34.3389032"></polygon>
                    <polygon id="Fill-11" fill="#FFFFFF" mask="url(#mask-2)" points="91.6357419 93.9312258 93.8901935 93.9312258 93.8901935 92.4640258 91.6357419 92.4640258"></polygon>
                    <polygon id="Fill-12" fill="#FFFFFF" mask="url(#mask-2)" points="91.6357419 90.4694452 93.8901935 90.4694452 93.8901935 89.0039355 91.6357419 89.0039355"></polygon>
                    <polygon id="Fill-13" fill="#FFFFFF" mask="url(#mask-2)" points="91.6357419 87.0059742 93.8901935 87.0059742 93.8901935 85.5404645 91.6357419 85.5404645"></polygon>
                    <polygon id="Fill-14" fill="#FFFFFF" mask="url(#mask-2)" points="91.6357419 83.5441935 93.8901935 83.5441935 93.8901935 82.0786839 91.6357419 82.0786839"></polygon>
                    <polygon id="Fill-15" fill="#FFFFFF" mask="url(#mask-2)" points="91.6357419 80.0824129 93.8901935 80.0824129 93.8901935 78.6160581 91.6357419 78.6160581"></polygon>
                    <polygon id="Fill-16" fill="#FFFFFF" mask="url(#mask-2)" points="91.6357419 76.6180968 93.8901935 76.6180968 93.8901935 75.1525871 91.6357419 75.1525871"></polygon>
                    <polygon id="Fill-17" fill="#FFFFFF" mask="url(#mask-2)" points="91.6357419 73.1571613 93.8901935 73.1571613 93.8901935 71.6899613 91.6357419 71.6899613"></polygon>
                    <polygon id="Fill-18" fill="#FFFFFF" mask="url(#mask-2)" points="91.6357419 69.6953806 93.8901935 69.6953806 93.8901935 68.2281806 91.6357419 68.2281806"></polygon>
                    <polygon id="Fill-19" fill="#FFFFFF" mask="url(#mask-2)" points="91.6357419 66.2319097 93.8901935 66.2319097 93.8901935 64.7664 91.6357419 64.7664"></polygon>
                    <polygon id="Fill-20" fill="#FFFFFF" mask="url(#mask-2)" points="91.6357419 62.7692839 93.8901935 62.7692839 93.8901935 61.3037742 91.6357419 61.3037742"></polygon>
                    <polygon id="Fill-21" fill="#FFFFFF" mask="url(#mask-2)" points="91.6357419 59.3083484 93.8901935 59.3083484 93.8901935 57.8411484 91.6357419 57.8411484"></polygon>
                    <polygon id="Fill-22" fill="#FFFFFF" mask="url(#mask-2)" points="91.6357419 55.8465677 93.8901935 55.8465677 93.8901935 54.3802129 91.6357419 54.3802129"></polygon>
                    <polygon id="Fill-23" fill="#FFFFFF" mask="url(#mask-2)" points="91.6357419 52.3830968 93.8901935 52.3830968 93.8901935 50.9175871 91.6357419 50.9175871"></polygon>
                    <polygon id="Fill-24" fill="#FFFFFF" mask="url(#mask-2)" points="91.6357419 48.9213161 93.8901935 48.9213161 93.8901935 47.4541161 91.6357419 47.4541161"></polygon>
                    <polygon id="Fill-25" fill="#FFFFFF" mask="url(#mask-2)" points="91.6357419 45.457 93.8901935 45.457 93.8901935 43.9906452 91.6357419 43.9906452"></polygon>
                    <polygon id="Fill-26" fill="#FFFFFF" mask="url(#mask-2)" points="91.6374194 41.9969097 93.8935484 41.9969097 93.8935484 40.526329 91.6374194 40.526329"></polygon>
                    <polygon id="Fill-27" fill="#FFFFFF" mask="url(#mask-2)" points="91.6374194 38.5309032 93.8935484 38.5309032 93.8935484 37.0696194 91.6374194 37.0696194"></polygon>
                    <polygon id="Fill-28" fill="#FECE66" mask="url(#mask-2)" points="29.3632258 88.8095484 32.3574194 88.8095484 32.3574194 42.1904516 29.3632258 42.1904516"></polygon>
                    <polygon id="Fill-29" fill="#F5B540" mask="url(#mask-2)" points="32.3582581 88.8087032 35.36 88.8087032 35.36 42.1904516 32.3582581 42.1904516"></polygon>
                    <polygon id="Fill-30" fill="#ECA334" mask="url(#mask-2)" points="35.36 88.8087032 38.3592258 88.8087032 38.3592258 42.1904516 35.36 42.1904516"></polygon>
                    <polygon id="Fill-31" fill="#FFFFFF" mask="url(#mask-2)" points="38.3625806 42.1904516 29.3632258 42.1904516 32.3658065 36.9504516 35.36 36.9504516"></polygon>
                    <polygon id="Fill-32" fill="#CCCBCA" mask="url(#mask-2)" points="38.3625806 42.1904516 35.36 42.1904516 34.3535484 36.9504516 35.36 36.9504516"></polygon>
                    <polygon id="Fill-33" fill="#343B43" mask="url(#mask-2)" points="35.3603355 36.9502826 32.3653032 36.9502826 33.8590452 34.3387342"></polygon>
                    <polygon id="Fill-34" fill="#CCCBCA" mask="url(#mask-2)" points="35.36 91.4227871 38.3592258 91.4227871 38.3592258 88.8087032 35.36 88.8087032"></polygon>
                    <polygon id="Fill-35" fill="#FFFFFF" mask="url(#mask-2)" points="29.3632258 91.4210968 35.36 91.4210968 35.36 88.8095484 29.3632258 88.8095484"></polygon>
                    <path d="M38.3593097,92.1259613 L38.3593097,91.4227871 L35.3600839,91.4227871 L35.3600839,92.1259613 C35.3600839,93.2804516 34.9214387,94.445929 34.0449871,95.3325032 C33.548471,95.8243871 32.9722774,96.1844258 32.3591806,96.3974065 C32.8439548,96.5698194 33.3455032,96.6610968 33.8571161,96.6610968 C35.0120194,96.6610968 36.1593742,96.2173871 37.0442129,95.3325032 C37.9240194,94.445929 38.3593097,93.2804516 38.3593097,92.1259613" id="Fill-36" fill="#343B43" mask="url(#mask-2)"></path>
                    <path d="M35.3603355,91.4210968 L35.3603355,92.1225806 C35.3603355,93.2804516 34.9233677,94.4467742 34.0427226,95.3341935 C33.5487226,95.8243871 32.9691742,96.1878065 32.3577548,96.3990968 C31.7446581,96.1793548 31.1667871,95.8243871 30.6803355,95.3341935 C29.7996903,94.4467742 29.3551742,93.2804516 29.3551742,92.1225806 L29.3551742,91.4210968 L35.3603355,91.4210968 Z" id="Fill-37" fill="#495057" mask="url(#mask-2)"></path>
                    <path d="M130.000168,65.5000845 C130.000168,101.674678 100.898619,131.000085 65.0001677,131.000085 C29.1008774,131.000085 0.000167741935,101.674678 0.000167741935,65.5000845 C0.000167741935,29.3246458 29.1008774,8.4516129e-05 65.0001677,8.4516129e-05 C100.898619,8.4516129e-05 130.000168,29.3246458 130.000168,65.5000845" id="Fill-38" fill="#FD8369" mask="url(#mask-2)"></path>
                    <path d="M128.511123,78.9983245 L94.5207355,44.7515439 L85.1607355,35.3195439 L80.4723484,32.5981245 L76.0951226,37.6107761 L67.6988,29.1498665 L62.296671,29.1498665 L60.7207355,37.0774794 L60.7794452,37.0774794 C58.904929,37.3572277 57.0949935,37.8364342 55.3647355,38.4753761 L49.5231226,32.5896729 L49.5231226,32.5896729 L44.8347355,35.3195439 L47.4020258,42.9936084 C45.8084774,44.2782535 44.3658968,45.7403826 43.0902194,47.3377374 L35.4839613,44.7515439 L32.7833161,49.4582471 L32.7900258,49.4650084 L38.6089935,55.3287374 C37.9799613,57.0646987 37.5010581,58.87926 37.2192516,60.7588987 L29.3529935,62.3469568 L29.3529935,67.7914858 L37.7610581,76.2633826 L32.7833161,80.6708987 L35.4839613,85.3877439 L44.8347355,94.8188987 L44.8439613,94.8273503 L78.8293161,129.06906 C103.624929,123.652421 123.138348,103.986363 128.511123,78.9983245" id="Fill-39" fill="#EA6552" mask="url(#mask-2)"></path>
                    <polygon id="Fill-40" fill="#495057" mask="url(#mask-2)" points="67.6998065 30.0895168 62.2968387 30.0895168 60.7200645 38.0179748 69.2790968 38.0179748"></polygon>
                    <polygon id="Fill-41" fill="#495057" mask="url(#mask-2)" points="49.5225355 33.5345632 44.8383419 36.2576729 47.406471 43.9325826 54.8198258 39.6028213"></polygon>
                    <polygon id="Fill-42" fill="#495057" mask="url(#mask-2)" points="35.4827871 45.6920394 32.7838194 50.4038135 38.8049161 55.7460781 43.0907226 48.2773877"></polygon>
                    <polygon id="Fill-43" fill="#495057" mask="url(#mask-2)" points="29.3550065 63.2868606 29.3592 68.7339252 37.2288129 70.3236735 37.2288129 61.6996477"></polygon>
                    <polygon id="Fill-44" fill="#495057" mask="url(#mask-2)" points="32.7835677 81.6146903 35.4825355 86.3256194 43.0913097 83.7419613 38.8055032 76.2766516"></polygon>
                    <polygon id="Fill-45" fill="#495057" mask="url(#mask-2)" points="44.8380065 95.7587181 49.5222 98.4767568 54.820329 92.4118794 47.4061355 88.0863439"></polygon>
                    <polygon id="Fill-46" fill="#495057" mask="url(#mask-2)" points="62.2969226 101.931523 67.6998903 101.931523 69.2791806 93.9996839 60.7226645 93.9996839"></polygon>
                    <polygon id="Fill-47" fill="#495057" mask="url(#mask-2)" points="80.4851806 98.4765877 85.1643419 95.758549 82.5970516 88.0861748 75.1845355 92.4117103"></polygon>
                    <polygon id="Fill-48" fill="#495057" mask="url(#mask-2)" points="94.5204839 86.3257884 97.2219677 81.6148594 91.1966774 76.2759755 86.9167419 83.7412852"></polygon>
                    <polygon id="Fill-49" fill="#495057" mask="url(#mask-2)" points="100.645329 68.7341787 100.645329 63.2871142 92.779071 61.6999013 92.779071 70.3239271"></polygon>
                    <polygon id="Fill-50" fill="#495057" mask="url(#mask-2)" points="97.2217161 50.4039826 94.5202323 45.6972794 86.9164903 48.2767116 91.1964258 55.7462471"></polygon>
                    <polygon id="Fill-51" fill="#495057" mask="url(#mask-2)" points="85.1644258 36.2574194 80.4760387 33.5427613 75.1846194 39.6025677 82.5962968 43.932329"></polygon>
                    <path d="M64.9977355,37.6959684 C49.4807677,37.6959684 36.8976065,50.3649361 36.8976065,66.0097168 C36.8976065,81.6536523 49.4807677,94.3234652 64.9977355,94.3234652 C80.5272839,94.3234652 93.1070903,81.6536523 93.1070903,66.0097168 C93.1070903,50.3649361 80.5272839,37.6959684 64.9977355,37.6959684" id="Fill-52" fill="#343B43" mask="url(#mask-2)"></path>
                    <path d="M86.3872645,66.0105619 C86.3872645,77.9129684 76.8108774,87.5621748 65.0018452,87.5621748 C53.1877806,87.5621748 43.613071,77.9129684 43.613071,66.0105619 C43.613071,54.1081555 53.1877806,44.458949 65.0018452,44.458949 C76.8108774,44.458949 86.3872645,54.1081555 86.3872645,66.0105619" id="Fill-53" fill="#FFFFFF" mask="url(#mask-2)"></path>
                    <path d="M79.1481097,66.0105619 C79.1481097,73.8840845 72.8124968,80.2658974 65.0015935,80.2658974 C57.1864968,80.2658974 50.8534,73.8840845 50.8534,66.0105619 C50.8534,58.1370394 57.1864968,51.7552265 65.0015935,51.7552265 C72.8124968,51.7552265 79.1481097,58.1370394 79.1481097,66.0105619" id="Fill-54" fill="#8FDEF6" mask="url(#mask-2)"></path>
                    <path d="M71.6869484,66.0105619 C71.6869484,69.7326523 68.6944323,72.7498781 65.0015935,72.7498781 C61.3062387,72.7498781 58.3120452,69.7326523 58.3120452,66.0105619 C58.3120452,62.2876265 61.3062387,59.2712458 65.0015935,59.2712458 C68.6944323,59.2712458 71.6869484,62.2876265 71.6869484,66.0105619" id="Fill-55" fill="#343B43" mask="url(#mask-2)"></path>
                    <path d="M63.7302774,61.2462187 C63.7302774,63.170651 62.1811806,64.7299735 60.2722774,64.7299735 C58.3608581,64.7299735 56.8142774,63.170651 56.8142774,61.2462187 C56.8142774,59.3209413 58.3608581,57.7616187 60.2722774,57.7616187 C62.1811806,57.7616187 63.7302774,59.3209413 63.7302774,61.2462187" id="Fill-56" fill="#FFFFFF" mask="url(#mask-2)"></path>
                    <path d="M61.5019935,67.40212 C61.5019935,68.0858555 60.9518,68.6402813 60.2724452,68.6402813 C59.5947677,68.6402813 59.0437355,68.0858555 59.0437355,67.40212 C59.0437355,66.7183845 59.5947677,66.1639587 60.2724452,66.1639587 C60.9518,66.1639587 61.5019935,66.7183845 61.5019935,67.40212" id="Fill-57" fill="#FFFFFF" mask="url(#mask-2)"></path>
                </g>
            </g>
        </g>
    </g>
</svg>