<?xml version="1.0" encoding="UTF-8"?>
<svg width="129px" height="129px" viewBox="0 0 129 129" version="1.1" xmlns="http://www.w3.org/2000/svg" xmlns:xlink="http://www.w3.org/1999/xlink">
    <!-- Generator: Sketch 60.1 (88133) - https://sketch.com -->
    <title>icon4</title>
    <desc>Created with Sketch.</desc>
    <defs>
        <polygon id="path-1" points="0.000198473282 0 129.008626 0 129.008626 128.999603 0.000198473282 128.999603"></polygon>
        <polygon id="path-3" points="0.375752727 0.483792453 108.010082 0.483792453 108.010082 105 0.375752727 105"></polygon>
        <polygon id="path-5" points="0 129 129 129 129 0 0 0"></polygon>
    </defs>
    <g id="馬卡龍綠色" stroke="none" stroke-width="1" fill="none" fill-rule="evenodd">
        <g id="2功能清單頁" transform="translate(-1119.000000, -246.000000)">
            <g id="icon4" transform="translate(1119.000000, 246.000000)">
                <g id="编组">
                    <mask id="mask-2" fill="white">
                        <use xlink:href="#path-1"></use>
                    </mask>
                    <g id="Clip-2"></g>
                    <path d="M127.592718,50.9972723 C127.230504,49.2895108 126.797832,47.6085415 126.304626,45.9543646 C118.332947,19.3714338 93.6776031,-0.000396923077 64.5040153,-0.000396923077 C28.8790534,-0.000396923077 0.000198473282,28.8777415 0.000198473282,64.4976185 C0.000198473282,94.6409492 20.6811145,119.958688 48.6261527,127.030865 C49.9261527,127.360311 51.2430229,127.649072 52.5718015,127.898142 C54.5277557,128.263311 56.516458,128.542149 58.5329466,128.728703 C60.4978321,128.909303 62.4924885,128.999603 64.5040153,128.999603 C100.126992,128.999603 129.008824,100.123449 129.008824,64.4976185 C129.008824,63.4378338 128.982031,62.3859877 128.93142,61.3391031 C128.761725,57.8094646 128.309206,54.3542492 127.592718,50.9972723" id="Fill-1" fill="#FF812A" mask="url(#mask-2)"></path>
                </g>
                <g id="编组" transform="translate(21.000000, 24.000000)">
                    <mask id="mask-4" fill="white">
                        <use xlink:href="#path-3"></use>
                    </mask>
                    <g id="Clip-4" opacity="0.15"></g>
                    <path d="M106.596253,27.1399245 C106.234571,25.4351604 105.802535,23.7620943 105.310053,22.1118113 C94.9709073,12.3695943 86.1359618,4.09341509 86.1359618,4.09341509 C85.8030164,3.49907547 85.3848527,2.97704717 84.8874164,2.50157547 C83.5576164,1.23067925 81.7353345,0.483792453 79.7059527,0.483792453 C79.4621891,0.483792453 79.2293255,0.630396226 78.9924982,0.648226415 C79.2471618,0.628415094 79.5186709,0.845349057 79.7832436,0.845349057 L18.1932891,0.845349057 C16.4661345,0.845349057 14.7251073,1.42681132 13.6578982,2.62341509 C13.0405618,3.31582075 11.4927618,5.14440566 11.4927618,6.90662264 L11.4927618,69.545066 L0.375752727,69.5599245 L0.391607273,73.7936038 C0.391607273,75.7390755 0.896970909,77.4963396 1.92355273,78.7702075 C2.55674364,79.549783 3.19488909,80.1451132 4.06688909,80.4868585 C4.06688909,80.4868585 16.3075891,92.1071887 27.7456527,103.034123 C29.0437436,103.362991 30.35868,103.651245 31.6855073,103.899877 C33.6385891,104.264406 35.6243709,104.543745 37.6378982,104.728981 C39.5998982,104.909264 41.5916255,105.000396 43.6001982,105.000396 C79.1708618,105.000396 108.01028,76.173934 108.01028,40.6116226 C108.01028,39.5527075 107.983525,38.5046887 107.932989,37.4596415 C107.763544,33.9361981 107.311689,30.4910094 106.596253,27.1399245" id="Fill-3" fill="#000000" opacity="0.2" mask="url(#mask-4)"></path>
                </g>
                <path d="M100.543213,24 C96.4248962,24 93.1487338,26.0334269 93.0150744,30.8540095 L93,35 L108,35 L108,30.8559396 C108,28.9614845 107.16488,27.2474996 105.816227,26.0064046 C104.464558,24.7682049 102.602372,24 100.543213,24" id="Fill-5" fill="#BABCBF"></path>
                <path d="M21,94 L21,98.1440604 C21,100.038516 21.6165984,101.753466 22.6110191,102.993595 C23.6073577,104.23276 24.9815186,105 26.5004795,105 C29.7762183,105 32,102.204159 32,98.1440604 L31.9913695,94 L21,94 Z" id="Fill-7" fill="#BABCBF"></path>
                <path d="M39.6539332,24 C37.9366618,24.1762982 36.4098694,24.9052617 35.2472569,26.0016782 C34.0047025,27.1763395 33.1213933,28.7650045 33,30.5269964 L33,96 L93.5693469,96 L93.5693469,38.080088 L93.5693469,30.9796272 C93.5693469,26.4919458 96.6318142,24 101,24 L90.9993614,24 L39.6539332,24 Z" id="Fill-9" fill="#ECEDED"></path>
                <path d="M35.2472569,25.8780035 C34.0047025,26.9800876 33.1213933,28.4696668 33,30.122793 L33,31 L93.5693469,31 L93.5693469,30.5474579 C93.5693469,26.3370503 96.6318142,24 101,24 L39.6539332,24 C37.9366618,24.1644763 36.4098694,24.8493296 35.2472569,25.8780035" id="Fill-11" fill="#FDFEFF"></path>
                <path d="M32.0798998,97.9830895 C32.0798998,102.493747 30.3934101,105 26,105 L86.3046654,105 C88.0318533,104.821764 89.5694475,104.088907 90.7387736,102.985638 C91.9894958,101.805698 92.8779057,100.209542 93,98.4391339 L93,46 L32.0798998,46 L32.0798998,97.9830895 Z" id="Fill-13" fill="#ECEDED"></path>
                <path d="M26,105 L86.374937,105 C88.085368,104.835871 89.6079598,104.161055 90.7667992,103.146081 C91.9922271,102.067843 92.8658291,100.614606 93,99 L31.9949565,99 C31.7206515,102.666559 29.6941733,105.005492 26,105" id="Fill-15" fill="#D4D5D6"></path>
                <mask id="mask-6" fill="white">
                    <use xlink:href="#path-5"></use>
                </mask>
                <g id="Clip-18"></g>
                <polygon id="Fill-17" fill="#ADADAD" mask="url(#mask-6)" points="53 43 71 43 71 39 53 39"></polygon>
                <polygon id="Fill-19" fill="#ADADAD" mask="url(#mask-6)" points="42 52 83 52 83 49 42 49"></polygon>
                <polygon id="Fill-20" fill="#ADADAD" mask="url(#mask-6)" points="42 59 83 59 83 56 42 56"></polygon>
                <polygon id="Fill-21" fill="#ADADAD" mask="url(#mask-6)" points="42 67 83 67 83 64 42 64"></polygon>
                <polygon id="Fill-22" fill="#ADADAD" mask="url(#mask-6)" points="42 74 83 74 83 71 42 71"></polygon>
                <polygon id="Fill-23" fill="#ADADAD" mask="url(#mask-6)" points="42 82 83 82 83 79 42 79"></polygon>
                <polygon id="Fill-24" fill="#ADADAD" mask="url(#mask-6)" points="42 89 83 89 83 86 42 86"></polygon>
            </g>
        </g>
    </g>
</svg>