<?xml version="1.0" encoding="UTF-8"?>
<svg width="171px" height="171px" viewBox="0 0 171 171" version="1.1" xmlns="http://www.w3.org/2000/svg" xmlns:xlink="http://www.w3.org/1999/xlink">
    <!-- Generator: Sketch 60.1 (88133) - https://sketch.com -->
    <title>编组 10备份 2</title>
    <desc>Created with Sketch.</desc>
    <defs>
        <polygon id="path-1" points="0 0 145 0 145 144.999626 0 144.999626"></polygon>
    </defs>
    <g id="寶藍" stroke="none" stroke-width="1" fill="none" fill-rule="evenodd">
        <g id="编组-10备份-2">
            <circle id="椭圆形备份-7" fill="#F9F9F9" cx="85.5" cy="85.5" r="85.5"></circle>
            <g id="编组" transform="translate(13.000000, 13.000000)">
                <g>
                    <mask id="mask-2" fill="white">
                        <use xlink:href="#path-1"></use>
                    </mask>
                    <g id="Clip-2"></g>
                    <path d="M145,72.4996258 C145,112.540206 112.541516,144.999626 72.5,144.999626 C32.4594194,144.999626 0,112.540206 0,72.4996258 C0,32.4581097 32.4594194,-0.000374193548 72.5,-0.000374193548 C112.541516,-0.000374193548 145,32.4581097 145,72.4996258" id="Fill-1" fill="#AB86B9" mask="url(#mask-2)"></path>
                </g>
                <path d="M92.1242065,142.289997 C115.936948,135.605965 134.786948,117.083384 141.911594,93.4577387 L109.918981,61.4613839 L109.910561,61.452029 L85.7554323,45.3523516 L80.5064323,48.8501258 L77.0189484,45.3617065 L73.7447548,42.0781581 C73.7447548,43.8845774 72.2751097,45.3617065 70.4705613,45.3617065 L76.5764645,51.4676097 L72.4996258,54.1823839 L59.2447548,45.3617065 L39.3021097,58.6568032 L33.5189484,52.8727065 L33.5086581,52.8727065 L27.279271,46.6442548 C27.2689806,50.0662548 24.4812387,52.8633516 21.0480129,52.8727065 L42.4191419,74.2438355 L35.080271,79.1317387 L48.3360774,92.3875452 L48.3360774,98.4971903 L92.1242065,142.289997 Z M90.1989806,27.3620613 L144.414013,81.5770935 C144.013626,84.7858032 143.415852,87.9337065 142.6104,90.9983516 L84.5860774,32.9749645 L78.9731742,27.3620613 C82.0705613,27.3620613 84.5776581,24.8456097 84.5860774,21.7491581 L90.1989806,27.3620613 Z" id="Fill-3" fill="#8B5FBE"></path>
                <polygon id="Fill-5" fill="#D9D8D7" points="48.3345806 70.2988065 72.5009355 86.4078387 72.5009355 54.1832258"></polygon>
                <polygon id="Fill-7" fill="#E6E5E5" points="96.6672903 70.2988065 72.5009355 86.4078387 72.5009355 54.1832258"></polygon>
                <polygon id="Fill-9" fill="#FFFFFF" points="72.5004677 54.1836935 48.3331774 70.3002097 35.0801774 61.4655 59.2474677 45.3574032"></polygon>
                <polygon id="Fill-11" fill="#FFFFFF" points="72.501871 54.1827581 96.6672903 70.2992742 109.919355 61.463629 85.7520645 45.3545968"></polygon>
                <polygon id="Fill-13" fill="#CCCBCA" points="72.5004677 70.2960935 51.4735968 84.3171258 72.5004677 98.3334806 93.5282742 84.3171258"></polygon>
                <polygon id="Fill-15" fill="#8FDEF6" points="48.3345806 70.2988065 48.3345806 98.4999032 72.5009355 114.611742 72.5009355 86.4078387"></polygon>
                <polygon id="Fill-17" fill="#70C9E9" points="96.6672903 70.2988065 96.6672903 98.4999032 72.5009355 114.611742 72.5009355 86.4078387"></polygon>
                <polygon id="Fill-19" fill="#58B4D9" points="96.6672903 70.2988065 96.6672903 98.4999032 80.2748065 109.429161 72.5009355 86.4078387"></polygon>
                <polygon id="Fill-21" fill="#FFFFFF" points="109.919355 79.128371 85.7520645 95.2448871 72.5 86.407371 96.6672903 70.2992742"></polygon>
                <polygon id="Fill-23" fill="#FFFFFF" points="35.0806452 79.128371 59.247 95.2448871 72.5009355 86.407371 48.3336452 70.2992742"></polygon>
                <path d="M33.5153,52.8690581 C30.0708484,52.8690581 27.278429,55.6680258 27.278429,59.105929 C27.278429,55.6680258 24.4841387,52.8690581 21.0424935,52.8690581 C24.4841387,52.8690581 27.278429,50.0672839 27.278429,46.6303161 C27.278429,50.0672839 30.0708484,52.8690581 33.5153,52.8690581" id="Fill-25" fill="#FFFFFF"></path>
                <path d="M90.1965484,27.3579452 C87.0972903,27.3579452 84.5836452,29.8762677 84.5836452,32.9717839 C84.5836452,29.8762677 82.0690645,27.3579452 78.9707419,27.3579452 C82.0690645,27.3579452 84.5836452,24.8368161 84.5836452,21.743171 C84.5836452,24.8368161 87.0972903,27.3579452 90.1965484,27.3579452" id="Fill-27" fill="#FFFFFF"></path>
                <path d="M77.0184806,45.3577774 C75.2111258,45.3577774 73.7442871,46.8255516 73.7442871,48.631971 C73.7442871,46.8255516 72.2774484,45.3577774 70.4700935,45.3577774 C72.2774484,45.3577774 73.7442871,43.8871968 73.7442871,42.0817129 C73.7442871,43.8871968 75.2111258,45.3577774 77.0184806,45.3577774" id="Fill-29" fill="#FFFFFF"></path>
                <path d="M99.006,40.6784871 C97.7140968,40.6784871 96.6672903,41.7271645 96.6672903,43.0171968 C96.6672903,41.7271645 95.6204839,40.6784871 94.3285806,40.6784871 C95.6204839,40.6784871 96.6672903,39.6279387 96.6672903,38.3379065 C96.6672903,39.6279387 97.7140968,40.6784871 99.006,40.6784871" id="Fill-31" fill="#FFFFFF"></path>
            </g>
        </g>
    </g>
</svg>