<?xml version="1.0" encoding="UTF-8"?>
<svg width="132px" height="131px" viewBox="0 0 132 131" version="1.1" xmlns="http://www.w3.org/2000/svg" xmlns:xlink="http://www.w3.org/1999/xlink">
    <!-- Generator: Sketch 60.1 (88133) - https://sketch.com -->
    <title>icon2</title>
    <desc>Created with Sketch.</desc>
    <defs>
        <polygon id="path-1" points="0 0 131.001939 0 131.001939 130.999798 0 130.999798"></polygon>
        <polygon id="path-3" points="0.819925721 0.488787879 112.497554 0.488787879 112.497554 99.999899 0.819925721 99.999899"></polygon>
    </defs>
    <g id="馬卡龍綠色" stroke="none" stroke-width="1" fill="none" fill-rule="evenodd">
        <g id="2功能清單頁" transform="translate(-801.000000, -247.000000)">
            <g id="icon2" transform="translate(801.000000, 247.000000)">
                <g id="编组">
                    <mask id="mask-2" fill="white">
                        <use xlink:href="#path-1"></use>
                    </mask>
                    <g id="Clip-2"></g>
                    <path d="M130.578733,58.0368292 C130.538427,57.6549138 130.488046,57.2609062 130.436656,56.88806 C130.336901,56.2129062 130.246214,55.5478292 130.135374,54.8827523 C125.065969,23.7541292 98.0503053,-0.000201538462 65.5007176,-0.000201538462 C29.3337252,-0.000201538462 -0.000503816794,29.3155831 -0.000503816794,65.5048369 C-0.000503816794,97.8638523 23.479374,124.761175 54.3452061,130.031406 L54.3552824,130.041483 C55.200687,130.183568 56.0470992,130.315575 56.8945191,130.425414 C56.9459084,130.44456 57.0063664,130.455645 57.0658168,130.455645 C58.4472824,130.626952 59.8267328,130.768029 61.2384275,130.848645 C61.2988855,130.848645 61.3694198,130.859729 61.4298779,130.859729 C61.6515573,130.878875 61.8732366,130.888952 62.1049924,130.899029 C62.5070382,130.928252 62.9201679,130.949414 63.324229,130.959491 C64.0497252,130.989722 64.7742137,130.999798 65.5007176,130.999798 C66.1758321,130.999798 66.8408702,130.989722 67.4968397,130.969568 C68.1608702,130.949414 68.8158321,130.918175 69.4798626,130.878875 C69.894,130.859729 70.3161985,130.828491 70.7514962,130.788183 C71.153542,130.757952 71.5878321,130.716637 72.0110382,130.677337 C72.3435573,130.647106 72.6649924,130.616875 72.9975115,130.57556 C75.1649313,130.334722 77.3011145,129.982029 79.3969924,129.528568 C104.186794,124.176714 123.756046,104.757475 129.369573,80.0579292 C129.84316,77.9709985 130.226061,75.8447677 130.488046,73.6872985 C130.750031,71.6618369 130.911252,69.5970754 130.97171,67.5101446 C130.991863,66.8450677 131.001939,66.1799908 131.001939,65.5048369 L131.001939,64.6079908 C130.991863,63.8320677 130.961634,63.0662215 130.921328,62.2913062 C130.850794,60.8694523 130.739954,59.4475985 130.578733,58.0368292" id="Fill-1" fill="#E74C3C" mask="url(#mask-2)"></path>
                </g>
                <g id="编组" transform="translate(19.000000, 31.000000)">
                    <mask id="mask-4" fill="white">
                        <use xlink:href="#path-3"></use>
                    </mask>
                    <g id="Clip-4"></g>
                    <path d="M77.950225,2.19484848 C77.950225,0.822121212 76.5064482,0.488787879 75.4672518,0.488787879 L17.7424125,0.488787879 C16.7143143,0.488787879 15.8658054,1.25545455 15.8658054,2.19484848 L15.8658054,15.1958586 L5.0299125,15.1958586 C3.82827857,15.1958586 2.67910893,15.71 1.88104643,16.61 C1.0749125,17.5190909 0.701608929,18.7211111 0.852948214,19.9130303 L8.80229643,68.3514141 C9.42884107,72.0392929 11.3569036,75.240303 13.6875286,76.9170707 C13.6875286,76.9271717 24.5526804,87.8069697 35.772975,99.0291919 L35.7830643,99.0392929 C36.6305643,99.1817172 37.4780643,99.3130303 38.3265732,99.4241414 C38.3770196,99.4433333 38.4375554,99.4544444 38.4970821,99.4544444 C39.8813321,99.6261616 41.2625554,99.7675758 42.6750554,99.8483838 C42.7366,99.8483838 42.807225,99.8594949 42.8677607,99.8594949 C43.0887161,99.8786869 43.3116893,99.8887879 43.5427339,99.8988889 C43.9463054,99.9281818 44.3599661,99.9493939 44.7635375,99.9594949 C45.4899661,99.989798 46.2163946,99.999899 46.9438321,99.999899 C47.6198143,99.999899 48.2857071,99.989798 48.9415107,99.969596 C49.6063946,99.9493939 50.2632071,99.9180808 50.9280911,99.8786869 C51.3417518,99.8594949 51.7655018,99.8281818 52.20035,99.7877778 C52.6029125,99.7574747 53.0387696,99.7160606 53.4615107,99.6766667 C53.7944571,99.6463636 54.1173143,99.6160606 54.4502607,99.5746465 C56.6194571,99.3332323 58.7593946,98.979697 60.8579661,98.5251515 C85.6786179,93.1605051 105.27302,73.6948485 110.893761,48.9352525 C111.367957,46.8443434 111.752359,44.7130303 112.01468,42.550404 C112.275993,40.520101 112.43843,38.450404 112.497957,36.3584848 C100.551234,24.6706061 77.950225,2.71 77.950225,2.71 L77.950225,2.19484848 Z" id="Fill-3" fill="#000000" opacity="0.15" mask="url(#mask-4)"></path>
                </g>
                <path d="M100.018523,39 L89,39 L89,96.6505828 C89,106.470037 102,106.429553 102,96.6505828 L102,40.9655103 C102,39.8805324 101.112315,39 100.018523,39" id="Fill-5" fill="#F39C12"></path>
                <path d="M94.6415379,27 L39.7827586,27 C38.8033543,27 38,27.722104 38,28.6069073 L38,94 L94.627373,94 C95.9376297,94 97,92.9454671 97,91.6448765 L97,28.6069073 C97,27.3163599 95.6239775,27 94.6415379,27" id="Fill-7" fill="#ADADAD"></path>
                <path d="M90.6415379,31 L35.7827586,31 C34.8033543,31 34,31.7230974 34,32.6078875 L34,98 L90.627373,98 C91.9376297,98 93,96.9444786 93,95.6439075 L93,32.6078875 C93,31.3163551 91.6239775,31 90.6415379,31" id="Fill-9" fill="#CECECE"></path>
                <path d="M87.6415784,35 L32.7837398,35 C31.8043523,35 31,35.722104 31,36.6069073 L31,102 L87.6274137,102 C88.9376479,102 90,100.945467 90,99.6448765 L90,36.6069073 C90,35.3163599 88.6240011,35 87.6415784,35" id="Fill-11" fill="#EEF2F2"></path>
                <path d="M88.4556028,96.9539601 L81.3385308,54.4675016 C81.1810424,53.5179417 80.3675194,52.8263371 79.4185765,52.8263371 L64.0438954,52.8283682 L56.1313565,52.8283682 L54.4641861,46.9157075 C53.9786805,45.1902505 51.8209889,44 50.0474888,44 L23.9686111,44 C22.8340926,44 21.7517359,44.4945836 21.0004058,45.3547732 C20.2460664,46.2159783 19.8929714,47.3605281 20.0283914,48.5030467 L27.522633,94.6475959 C28.3873147,99.8127955 31.9112433,104.00203 35.3930413,104 L68.0443018,103.998984 L72.6144751,103.995937 L96,103.994921 L95.9919751,103.955314 C92.8111104,103.960392 89.2390324,101.63067 88.4556028,96.9539601" id="Fill-13" fill="#FCD34D"></path>
            </g>
        </g>
    </g>
</svg>