<?xml version="1.0" encoding="UTF-8"?>
<svg width="171px" height="171px" viewBox="0 0 171 171" version="1.1" xmlns="http://www.w3.org/2000/svg" xmlns:xlink="http://www.w3.org/1999/xlink">
    <!-- Generator: Sketch 60.1 (88133) - https://sketch.com -->
    <title>编组 7备份 5</title>
    <desc>Created with Sketch.</desc>
    <defs>
        <polygon id="path-1" points="0 145 145 145 145 0 0 0"></polygon>
    </defs>
    <g id="寶藍" stroke="none" stroke-width="1" fill="none" fill-rule="evenodd">
        <g id="编组-7备份-5">
            <circle id="椭圆形备份-4" fill="#F9F9F9" cx="85.5" cy="85.5" r="85.5"></circle>
            <g id="编组" transform="translate(13.000000, 13.000000)">
                <polygon id="Fill-1" fill="#FFFFFF" points="37.7654839 98.3006452 107.234516 98.3006452 107.234516 46.6993548 37.7654839 46.6993548"></polygon>
                <g>
                    <path d="M72.5001871,79.9839645 C68.3737677,79.9839645 65.0163161,76.6255774 65.0163161,72.5000935 C65.0163161,68.3746097 68.3737677,65.0162226 72.5001871,65.0162226 C76.625671,65.0162226 79.9840581,68.3746097 79.9840581,72.5000935 C79.9840581,76.6255774 76.625671,79.9839645 72.5001871,79.9839645 M72.5001871,62.6775129 C67.0837355,62.6775129 62.6776065,67.0836419 62.6776065,72.5000935 C62.6776065,77.9165452 67.0837355,82.3226742 72.5001871,82.3226742 C77.9166387,82.3226742 82.3227677,77.9165452 82.3227677,72.5000935 C82.3227677,67.0836419 77.9166387,62.6775129 72.5001871,62.6775129" id="Fill-2" fill="#495057"></path>
                    <path d="M72.5001871,88.6371903 C71.7611548,88.6371903 71.0221226,88.5904161 70.3018,88.4875129 L69.9837355,90.8075129 C70.8069613,90.919771 71.6582516,90.9759 72.5001871,90.9759 L72.565671,90.9759 L72.5001871,88.6371903 Z M76.9147355,88.0291258 C76.2131226,88.2255774 75.4843806,88.3752548 74.7640581,88.4781581 L75.0821226,90.7981581 C75.9147032,90.6765452 76.7472839,90.5081581 77.5518,90.2742871 L76.9147355,88.0291258 Z M66.0734129,87.3088032 L65.137929,89.4510613 C65.9143806,89.7878355 66.7095419,90.0684806 67.5140581,90.2929968 L68.1501871,88.0478355 C67.4382839,87.8513839 66.7469613,87.5988032 66.0734129,87.3088032 L66.0734129,87.3088032 Z M80.9288968,86.2610613 C80.3011871,86.6446097 79.6463484,86.9907387 78.9830903,87.2807387 L79.9185742,89.4229968 C80.685671,89.0862226 81.4434129,88.6933194 82.1543806,88.2536419 L80.9288968,86.2610613 Z M62.3221226,85.0262226 L60.8440581,86.8410613 C61.4988968,87.3742871 62.1911548,87.8607387 62.9021226,88.2910613 L64.1182516,86.2984806 C63.4914774,85.9149323 62.8927677,85.4846097 62.3221226,85.0262226 L62.3221226,85.0262226 Z M84.3340581,83.4826742 C83.8288968,84.0159 83.295671,84.5210613 82.7250258,84.9888032 L84.2115097,86.7942871 C84.857929,86.2704161 85.4753484,85.6810613 86.0459935,85.0729968 L84.3340581,83.4826742 Z M59.3192194,81.8175129 L57.4108323,83.1646097 C57.887929,83.8475129 58.4211548,84.5023516 59.0011548,85.119771 L60.7028,83.5200935 C60.207929,82.9868677 59.7401871,82.4068677 59.3192194,81.8175129 L59.3192194,81.8175129 Z M86.8598645,79.8810613 C86.5230903,80.5359 86.1395419,81.172029 85.7185742,81.7707387 L87.6269613,83.1084806 C88.1134129,82.4255774 88.5530903,81.6959 88.9366387,80.9475129 L86.8598645,79.8810613 Z M57.2892194,77.9165452 L55.0898968,78.7023516 C55.3714774,79.4975129 55.7082516,80.2739645 56.1002194,81.0129968 L58.1685742,79.9371903 C57.8411548,79.2917065 57.5418,78.6088032 57.2892194,77.9165452 L57.2892194,77.9165452 Z M88.3098645,75.7368677 C88.1695419,76.4571903 87.9730903,77.1681581 87.7298645,77.8604161 L89.936671,78.6368677 C90.2088968,77.8417065 90.4334129,77.0184806 90.6018,76.2046097 L88.3098645,75.7368677 Z M56.4005097,73.6133194 L54.0711548,73.7723516 C54.1272839,74.6142871 54.2395419,75.4562226 54.407929,76.2700935 L56.6998645,75.8023516 C56.5501871,75.082029 56.4463484,74.3523516 56.4005097,73.6133194 L56.4005097,73.6133194 Z M90.9292194,71.1904161 L88.5998645,71.3494484 C88.627929,71.7329968 88.6372839,72.1165452 88.6372839,72.5000935 C88.6372839,72.8555774 88.627929,73.2017065 88.5998645,73.5571903 L90.9385742,73.7068677 C90.9666387,73.3046097 90.9759935,72.9023516 90.9759935,72.5000935 C90.9759935,72.0604161 90.9572839,71.6207387 90.9292194,71.1904161 L90.9292194,71.1904161 Z M54.3985742,68.7675129 C54.2292516,69.5907387 54.117929,70.4233194 54.0618,71.2559 L56.4005097,71.4149323 C56.4463484,70.6852548 56.5501871,69.9462226 56.6905097,69.2259 L54.3985742,68.7675129 Z M89.9001871,66.2604161 L87.6924452,67.0555774 C87.9450258,67.7384806 88.1405419,68.4494484 88.2911548,69.169771 L90.5830903,68.6926742 C90.4147032,67.8694484 90.1808323,67.0555774 89.9001871,66.2604161 L89.9001871,66.2604161 Z M56.0824452,64.0152548 C55.6988968,64.7636419 55.3621226,65.5400935 55.0814774,66.3259 L57.2798645,67.1117065 C57.5324452,66.4194484 57.8224452,65.7365452 58.1592194,65.0910613 L56.0824452,64.0152548 Z M87.5708323,61.8075129 L85.6624452,63.1639645 C86.0824774,63.7533194 86.4763161,64.3894484 86.8130903,65.0349323 L88.888929,63.949771 C88.4969613,63.2107387 88.0572839,62.4810613 87.5708323,61.8075129 L87.5708323,61.8075129 Z M58.9824452,59.9084806 C58.4024452,60.5259 57.8692194,61.1807387 57.3921226,61.8636419 L59.2995742,63.2107387 C59.7205419,62.612029 60.1882839,62.0413839 60.6943806,61.4988032 L58.9824452,59.9084806 Z M84.1282516,58.1404161 L82.6595419,59.9552548 C83.2208323,60.4136419 83.7634129,60.9188032 84.2685742,61.4613839 L85.9711548,59.8523516 C85.4005097,59.2442871 84.7830903,58.6642871 84.1282516,58.1404161 L84.1282516,58.1404161 Z M62.8740581,56.7278355 C62.1630903,57.1581581 61.4708323,57.6539645 60.8159935,58.1778355 L62.2931226,59.9926742 C62.8647032,59.5249323 63.4727677,59.1039645 64.0901871,58.7204161 L62.8740581,56.7278355 Z M79.8250258,55.5304161 L78.8979613,57.682029 C79.5724452,57.972029 80.2272839,58.3088032 80.8540581,58.6923516 L82.0701871,56.6904161 C81.3498645,56.2507387 80.5921226,55.8671903 79.8250258,55.5304161 L79.8250258,55.5304161 Z M67.4850581,54.7165452 C66.6711871,54.9410613 65.8769613,55.2217065 65.1098645,55.5584806 L66.0453484,57.7007387 C66.7188968,57.4107387 67.4111548,57.1581581 68.1127677,56.9617065 L67.4850581,54.7165452 Z M74.9792194,54.1833194 L74.6705097,56.5033194 C75.3898968,56.6062226 76.1205097,56.7559 76.8221226,56.9429968 L77.4488968,54.6884806 C76.6350258,54.4733194 75.8118,54.2955774 74.9792194,54.1833194 L74.9792194,54.1833194 Z M72.4627677,54.0242871 C71.6208323,54.0242871 70.7788968,54.0804161 69.955671,54.202029 L70.2737355,56.5126742 C70.9931226,56.4191258 71.7330903,56.3629968 72.4711871,56.3629968 L72.4627677,54.0242871 Z" id="Fill-4" fill="#495057"></path>
                    <path d="M72.5001871,74.2121226 C71.5553484,74.2121226 70.7882516,73.4450258 70.7882516,72.5001871 C70.7882516,71.5553484 71.5553484,70.7882516 72.5001871,70.7882516 C73.4450258,70.7882516 74.2121226,71.5553484 74.2121226,72.5001871 C74.2121226,73.4450258 73.4450258,74.2121226 72.5001871,74.2121226 M72.5001871,68.4495419 C70.2643806,68.4495419 68.4495419,70.2643806 68.4495419,72.5001871 C68.4495419,74.7359935 70.2643806,76.5508323 72.5001871,76.5508323 C74.7350581,76.5508323 76.5508323,74.7359935 76.5508323,72.5001871 C76.5508323,70.2643806 74.7350581,68.4495419 72.5001871,68.4495419" id="Fill-6" fill="#495057"></path>
                    <mask id="mask-2" fill="white">
                        <use xlink:href="#path-1"></use>
                    </mask>
                    <g id="Clip-9"></g>
                    <polygon id="Fill-8" fill="#495057" mask="url(#mask-2)" points="102.210968 106.99129 112.258065 106.99129 112.258065 38.0087097 102.210968 38.0087097"></polygon>
                    <polygon id="Fill-10" fill="#343B43" mask="url(#mask-2)" points="107.234516 106.99129 112.258065 106.99129 112.258065 38.0087097 107.234516 38.0087097"></polygon>
                    <polygon id="Fill-11" fill="#FFFFFF" mask="url(#mask-2)" points="102.209097 103.969677 104.723677 103.969677 104.723677 102.345677 102.209097 102.345677"></polygon>
                    <polygon id="Fill-12" fill="#FFFFFF" mask="url(#mask-2)" points="102.209097 100.137935 104.723677 100.137935 104.723677 98.5158065 102.209097 98.5158065"></polygon>
                    <polygon id="Fill-13" fill="#FFFFFF" mask="url(#mask-2)" points="102.209097 96.3043226 104.723677 96.3043226 104.723677 94.6821935 102.209097 94.6821935"></polygon>
                    <polygon id="Fill-14" fill="#FFFFFF" mask="url(#mask-2)" points="102.209097 92.4725806 104.723677 92.4725806 104.723677 90.8504516 102.209097 90.8504516"></polygon>
                    <polygon id="Fill-15" fill="#FFFFFF" mask="url(#mask-2)" points="102.209097 88.6408387 104.723677 88.6408387 104.723677 87.0177742 102.209097 87.0177742"></polygon>
                    <polygon id="Fill-16" fill="#FFFFFF" mask="url(#mask-2)" points="102.209097 84.8062903 104.723677 84.8062903 104.723677 83.1841613 102.209097 83.1841613"></polygon>
                    <polygon id="Fill-17" fill="#FFFFFF" mask="url(#mask-2)" points="102.209097 80.9754839 104.723677 80.9754839 104.723677 79.3514839 102.209097 79.3514839"></polygon>
                    <polygon id="Fill-18" fill="#FFFFFF" mask="url(#mask-2)" points="102.209097 77.1437419 104.723677 77.1437419 104.723677 75.5197419 102.209097 75.5197419"></polygon>
                    <polygon id="Fill-19" fill="#FFFFFF" mask="url(#mask-2)" points="102.209097 73.310129 104.723677 73.310129 104.723677 71.688 102.209097 71.688"></polygon>
                    <polygon id="Fill-20" fill="#FFFFFF" mask="url(#mask-2)" points="102.209097 69.4774516 104.723677 69.4774516 104.723677 67.8553226 102.209097 67.8553226"></polygon>
                    <polygon id="Fill-21" fill="#FFFFFF" mask="url(#mask-2)" points="102.209097 65.6466452 104.723677 65.6466452 104.723677 64.0226452 102.209097 64.0226452"></polygon>
                    <polygon id="Fill-22" fill="#FFFFFF" mask="url(#mask-2)" points="102.209097 61.8149032 104.723677 61.8149032 104.723677 60.1918387 102.209097 60.1918387"></polygon>
                    <polygon id="Fill-23" fill="#FFFFFF" mask="url(#mask-2)" points="102.209097 57.9812903 104.723677 57.9812903 104.723677 56.3591613 102.209097 56.3591613"></polygon>
                    <polygon id="Fill-24" fill="#FFFFFF" mask="url(#mask-2)" points="102.209097 54.1495484 104.723677 54.1495484 104.723677 52.5255484 102.209097 52.5255484"></polygon>
                    <polygon id="Fill-25" fill="#FFFFFF" mask="url(#mask-2)" points="102.209097 50.315 104.723677 50.315 104.723677 48.6919355 102.209097 48.6919355"></polygon>
                    <polygon id="Fill-26" fill="#FFFFFF" mask="url(#mask-2)" points="102.210968 46.485129 104.727419 46.485129 104.727419 44.8573871 102.210968 44.8573871"></polygon>
                    <polygon id="Fill-27" fill="#FFFFFF" mask="url(#mask-2)" points="102.210968 42.6487097 104.727419 42.6487097 104.727419 41.0312581 102.210968 41.0312581"></polygon>
                    <polygon id="Fill-28" fill="#FECE66" mask="url(#mask-2)" points="32.7512903 98.3006452 36.0909677 98.3006452 36.0909677 46.6993548 32.7512903 46.6993548"></polygon>
                    <polygon id="Fill-29" fill="#F5B540" mask="url(#mask-2)" points="36.0919032 98.2997097 39.44 98.2997097 39.44 46.6993548 36.0919032 46.6993548"></polygon>
                    <polygon id="Fill-30" fill="#ECA334" mask="url(#mask-2)" points="39.44 98.2997097 42.7852903 98.2997097 42.7852903 46.6993548 39.44 46.6993548"></polygon>
                    <polygon id="Fill-31" fill="#FFFFFF" mask="url(#mask-2)" points="42.7890323 46.6993548 32.7512903 46.6993548 36.1003226 40.8993548 39.44 40.8993548"></polygon>
                    <polygon id="Fill-32" fill="#CCCBCA" mask="url(#mask-2)" points="42.7890323 46.6993548 39.44 46.6993548 38.3174194 40.8993548 39.44 40.8993548"></polygon>
                    <polygon id="Fill-33" fill="#343B43" mask="url(#mask-2)" points="39.4403742 40.8991677 36.0997613 40.8991677 37.7658581 38.0085226"></polygon>
                    <polygon id="Fill-34" fill="#CCCBCA" mask="url(#mask-2)" points="39.44 101.193161 42.7852903 101.193161 42.7852903 98.2997097 39.44 98.2997097"></polygon>
                    <polygon id="Fill-35" fill="#FFFFFF" mask="url(#mask-2)" points="32.7512903 101.19129 39.44 101.19129 39.44 98.3006452 32.7512903 98.3006452"></polygon>
                    <path d="M42.7853839,101.971484 L42.7853839,101.193161 L39.4400935,101.193161 L39.4400935,101.971484 C39.4400935,103.249355 38.9508355,104.539387 37.9732548,105.52071 C37.4194484,106.065161 36.776771,106.463677 36.0929323,106.699419 C36.6336419,106.890258 37.1930613,106.99129 37.7637065,106.99129 C39.0518677,106.99129 40.3316097,106.500161 41.3185452,105.52071 C42.2998677,104.539387 42.7853839,103.249355 42.7853839,101.971484" id="Fill-36" fill="#343B43" mask="url(#mask-2)"></path>
                    <path d="M39.4403742,101.19129 L39.4403742,101.967742 C39.4403742,103.249355 38.9529871,104.540323 37.970729,105.522581 C37.419729,106.065161 36.7733097,106.467419 36.0913419,106.70129 C35.4075032,106.458065 34.7629548,106.065161 34.2203742,105.522581 C33.2381161,104.540323 32.7423097,103.249355 32.7423097,101.967742 L32.7423097,101.19129 L39.4403742,101.19129 Z" id="Fill-37" fill="#495057" mask="url(#mask-2)"></path>
                    <path d="M145.000187,72.5000935 C145.000187,112.540674 112.540768,145.000094 72.5001871,145.000094 C32.458671,145.000094 0.000187096774,112.540674 0.000187096774,72.5000935 C0.000187096774,32.4585774 32.458671,9.35483871e-05 72.5001871,9.35483871e-05 C112.540768,9.35483871e-05 145.000187,32.4585774 145.000187,72.5000935" id="Fill-38" fill="#FD8369" mask="url(#mask-2)"></path>
                    <path d="M143.339329,87.4408935 L105.426974,49.5341516 L94.9869742,39.0941516 L89.7576194,36.0818935 L84.875329,41.6302484 L75.5102,32.2651194 L69.4847484,32.2651194 L67.7269742,41.0399581 L67.7924581,41.0399581 C65.7016516,41.3496032 63.6828774,41.8800226 61.7529742,42.5872484 L55.237329,36.0725387 L55.237329,36.0725387 L50.0079742,39.0941516 L52.8714903,47.5883452 C51.094071,49.0102806 49.4850387,50.6286677 48.0621677,52.3967323 L39.5782645,49.5341516 L36.5660065,54.7438613 L36.5734903,54.7513452 L43.0638774,61.2417323 C42.3622645,63.1632161 41.8281032,65.1717 41.5137806,67.2522161 L32.7398774,69.0099903 L32.7398774,75.0363774 L42.1181032,84.4136677 L36.5660065,89.2922161 L39.5782645,94.5131516 L50.0079742,104.952216 L50.0182645,104.961571 L87.9250065,142.8627 C115.581652,136.867184 137.346619,115.09941 143.339329,87.4408935" id="Fill-39" fill="#EA6552" mask="url(#mask-2)"></path>
                    <polygon id="Fill-40" fill="#495057" mask="url(#mask-2)" points="75.5113226 33.3051903 69.4849355 33.3051903 67.7262258 42.0809645 77.2728387 42.0809645"></polygon>
                    <polygon id="Fill-41" fill="#495057" mask="url(#mask-2)" points="55.2366742 37.1184097 50.0119968 40.1325387 52.8764484 48.6276677 61.1451903 43.8351839"></polygon>
                    <polygon id="Fill-42" fill="#495057" mask="url(#mask-2)" points="39.5769548 50.5751581 36.5665677 55.7904806 43.2824065 61.7036742 48.062729 53.4368032"></polygon>
                    <polygon id="Fill-43" fill="#495057" mask="url(#mask-2)" points="32.7421226 70.0503419 32.7468 76.0795355 41.5244452 77.8391806 41.5244452 68.2935032"></polygon>
                    <polygon id="Fill-44" fill="#495057" mask="url(#mask-2)" points="36.5662871 90.336871 39.5766742 95.5512581 48.0633839 92.6914839 43.2830613 84.4283548"></polygon>
                    <polygon id="Fill-45" fill="#495057" mask="url(#mask-2)" points="50.0116226 105.992474 55.2363 109.00099 61.1457516 102.287958 52.8760742 97.5001516"></polygon>
                    <polygon id="Fill-46" fill="#495057" mask="url(#mask-2)" points="69.485029 112.824968 75.5114161 112.824968 77.2729323 104.045452 67.7291258 104.045452"></polygon>
                    <polygon id="Fill-47" fill="#495057" mask="url(#mask-2)" points="89.7719323 109.000803 94.9909968 105.992287 92.1274806 97.4999645 83.8596742 102.287771"></polygon>
                    <polygon id="Fill-48" fill="#495057" mask="url(#mask-2)" points="105.426694 95.5514452 108.439887 90.3370581 101.719371 84.4276065 96.9455968 92.6907355"></polygon>
                    <polygon id="Fill-49" fill="#495057" mask="url(#mask-2)" points="112.258252 76.0798161 112.258252 70.0506226 103.484348 68.2937839 103.484348 77.8394613"></polygon>
                    <polygon id="Fill-50" fill="#495057" mask="url(#mask-2)" points="108.439606 55.7906677 105.426413 50.5809581 96.9453161 53.4360548 101.71909 61.7038613"></polygon>
                    <polygon id="Fill-51" fill="#495057" mask="url(#mask-2)" points="94.9910903 40.1322581 89.7617355 37.1274839 83.8597677 43.8349032 92.1266387 48.6273871"></polygon>
                    <path d="M72.4974742,41.7245452 C55.1900871,41.7245452 41.1550226,55.7474484 41.1550226,73.0641903 C41.1550226,90.3799968 55.1900871,104.403835 72.4974742,104.403835 C89.8188935,104.403835 103.850216,90.3799968 103.850216,73.0641903 C103.850216,55.7474484 89.8188935,41.7245452 72.4974742,41.7245452" id="Fill-52" fill="#343B43" mask="url(#mask-2)"></path>
                    <path d="M96.3550258,73.0651258 C96.3550258,86.2395452 85.673671,96.9199645 72.5020581,96.9199645 C59.3248323,96.9199645 48.6453484,86.2395452 48.6453484,73.0651258 C48.6453484,59.8907065 59.3248323,49.2102871 72.5020581,49.2102871 C85.673671,49.2102871 96.3550258,59.8907065 96.3550258,73.0651258" id="Fill-53" fill="#FFFFFF" mask="url(#mask-2)"></path>
                    <path d="M88.2805839,73.0651258 C88.2805839,81.7800935 81.2139387,88.8439323 72.5017774,88.8439323 C63.7849387,88.8439323 56.7211,81.7800935 56.7211,73.0651258 C56.7211,64.3501581 63.7849387,57.2863194 72.5017774,57.2863194 C81.2139387,57.2863194 88.2805839,64.3501581 88.2805839,73.0651258" id="Fill-54" fill="#8FDEF6" mask="url(#mask-2)"></path>
                    <path d="M79.9585194,73.0651258 C79.9585194,77.1849968 76.6207129,80.5246742 72.5017774,80.5246742 C68.3800355,80.5246742 65.0403581,77.1849968 65.0403581,73.0651258 C65.0403581,68.9443194 68.3800355,65.6055774 72.5017774,65.6055774 C76.6207129,65.6055774 79.9585194,68.9443194 79.9585194,73.0651258" id="Fill-55" fill="#343B43" mask="url(#mask-2)"></path>
                    <path d="M71.083771,67.7916161 C71.083771,69.9217129 69.3559323,71.6476806 67.226771,71.6476806 C65.0948032,71.6476806 63.369771,69.9217129 63.369771,67.7916161 C63.369771,65.6605839 65.0948032,63.9346161 67.226771,63.9346161 C69.3559323,63.9346161 71.083771,65.6605839 71.083771,67.7916161" id="Fill-56" fill="#FFFFFF" mask="url(#mask-2)"></path>
                    <path d="M68.5983774,74.6054 C68.5983774,75.3622065 67.9847,75.9758839 67.2269581,75.9758839 C66.4710871,75.9758839 65.8564742,75.3622065 65.8564742,74.6054 C65.8564742,73.8485935 66.4710871,73.2349161 67.2269581,73.2349161 C67.9847,73.2349161 68.5983774,73.8485935 68.5983774,74.6054" id="Fill-57" fill="#FFFFFF" mask="url(#mask-2)"></path>
                </g>
            </g>
        </g>
    </g>
</svg>