<?xml version="1.0" encoding="UTF-8"?>
<svg width="171px" height="171px" viewBox="0 0 171 171" version="1.1" xmlns="http://www.w3.org/2000/svg" xmlns:xlink="http://www.w3.org/1999/xlink">
    <!-- Generator: Sketch 60.1 (88133) - https://sketch.com -->
    <title>编组 5备份 14</title>
    <desc>Created with Sketch.</desc>
    <defs>
        <polygon id="path-1" points="9.35483871e-05 0 145 0 145 145 9.35483871e-05 145"></polygon>
        <polygon id="path-3" points="0 145 145 145 145 0 0 0"></polygon>
    </defs>
    <g id="寶藍" stroke="none" stroke-width="1" fill="none" fill-rule="evenodd">
        <g id="编组-5备份-14">
            <circle id="椭圆形备份-2" fill="#F9F9F9" cx="85.5" cy="85.5" r="85.5"></circle>
            <g id="编组" transform="translate(13.000000, 13.000000)">
                <g>
                    <mask id="mask-2" fill="white">
                        <use xlink:href="#path-1"></use>
                    </mask>
                    <g id="Clip-2"></g>
                    <path d="M145.000094,72.5 C145.000094,112.540581 112.54161,145 72.5000935,145 C32.4585774,145 9.35483871e-05,112.540581 9.35483871e-05,72.5 C9.35483871e-05,32.4584839 32.4585774,0 72.5000935,0 C112.54161,0 145.000094,32.4584839 145.000094,72.5" id="Fill-1" fill="#495057" mask="url(#mask-2)"></path>
                </g>
                <path d="M144.752565,78.2490161 L103.717565,37.2140161 L103.70821,37.2037258 L78.4595,37.2037258 L75.8298548,34.5750161 L75.7372419,34.4824032 C75.5800806,34.2962419 75.4088871,34.1250484 75.2227258,33.9678871 L75.1282419,33.8734032 C75.0945645,33.8472097 75.0562097,33.8285 75.0215968,33.8023065 C74.9177581,33.7246613 74.8092419,33.6535645 74.6979194,33.5862097 C74.5847258,33.5169839 74.4677903,33.4543065 74.3480484,33.3963065 C74.2451452,33.3457903 74.1431774,33.2952742 74.0346613,33.2531774 C73.8821774,33.1942419 73.7231452,33.1493387 73.5622419,33.1072419 C73.4743065,33.0847903 73.3891774,33.0548548 73.2975,33.0380161 C73.0402419,32.9884355 72.7745645,32.9575645 72.5004677,32.9575645 C70.1524032,32.9575645 68.253371,34.8556613 68.253371,37.2037258 L59.665629,37.2037258 L41.283371,37.2037258 L41.283371,97.6369194 C41.283371,100.003694 42.0972419,102.183371 43.4536935,103.914016 L45.1927581,105.643726 L83.6879194,144.138887 C116.559887,139.046113 142.112629,111.868435 144.752565,78.2490161" id="Fill-3" fill="#343B43"></path>
                <path d="M103.7127,37.2055032 L103.7127,107.795245 L51.4406677,107.795245 C45.8343129,107.795245 41.2878613,103.248794 41.2878613,97.6386968 L41.2878613,37.2055032 L103.7127,37.2055032 Z" id="Fill-5" fill="#FFFFFF"></path>
                <path d="M76.7481258,37.2055032 C76.7481258,39.5516968 74.8472226,41.454471 72.5000935,41.454471 C70.152029,41.454471 68.2520613,39.5516968 68.2520613,37.2055032 C68.2520613,34.8593097 70.152029,32.9565355 72.5000935,32.9565355 C74.8472226,32.9565355 76.7481258,34.8593097 76.7481258,37.2055032" id="Fill-7" fill="#EA6552"></path>
                <path d="M61.594971,97.6383226 C61.594971,103.248419 57.0485194,107.794871 51.441229,107.794871 L103.712326,107.794871 C109.322423,107.794871 113.865132,103.248419 113.866068,97.6401935 L61.594971,97.6383226 Z" id="Fill-9" fill="#CCCBCA"></path>
                <mask id="mask-4" fill="white">
                    <use xlink:href="#path-3"></use>
                </mask>
                <g id="Clip-12"></g>
                <path d="M53.9699355,73.7713226 L91.0300645,73.7713226 L91.0300645,65.3201613 L53.9699355,65.3201613 L53.9699355,73.7713226 Z M52.0194516,75.7227419 L92.9824194,75.7227419 L92.9824194,63.3687419 L52.0194516,63.3687419 L52.0194516,75.7227419 Z" id="Fill-11" fill="#343B43" mask="url(#mask-4)"></path>
                <path d="M53.9699355,88.0758065 L62.4210968,88.0758065 L62.4210968,79.6246452 L53.9699355,79.6246452 L53.9699355,88.0758065 Z M52.0194516,90.0272258 L64.3734516,90.0272258 L64.3734516,77.6732258 L52.0194516,77.6732258 L52.0194516,90.0272258 Z" id="Fill-13" fill="#343B43" mask="url(#mask-4)"></path>
                <path d="M68.2734839,88.0758065 L76.7255806,88.0758065 L76.7255806,79.6246452 L68.2734839,79.6246452 L68.2734839,88.0758065 Z M66.3220645,90.0272258 L78.677,90.0272258 L78.677,77.6732258 L66.3220645,77.6732258 L66.3220645,90.0272258 Z" id="Fill-14" fill="#343B43" mask="url(#mask-4)"></path>
                <path d="M53.9699355,59.4687097 L62.4201613,59.4687097 L62.4201613,51.0166129 L53.9699355,51.0166129 L53.9699355,59.4687097 Z M52.0185161,61.420129 L64.3715806,61.420129 L64.3715806,49.0651935 L52.0185161,49.0651935 L52.0185161,61.420129 Z" id="Fill-15" fill="#343B43" mask="url(#mask-4)"></path>
                <path d="M82.5798387,88.0758065 L91.031,88.0758065 L91.031,79.6246452 L82.5798387,79.6246452 L82.5798387,88.0758065 Z M80.6284194,90.0272258 L92.9824194,90.0272258 L92.9824194,77.6732258 L80.6284194,77.6732258 L80.6284194,90.0272258 Z" id="Fill-16" fill="#343B43" mask="url(#mask-4)"></path>
                <polygon id="Fill-17" fill="#343B43" mask="url(#mask-4)" points="57.2207419 64.3444516 59.1721613 64.3444516 59.1721613 60.4444194 57.2207419 60.4444194"></polygon>
                <polygon id="Fill-18" fill="#343B43" mask="url(#mask-4)" points="57.2198065 78.6489355 59.1712258 78.6489355 59.1712258 74.7470323 57.2198065 74.7470323"></polygon>
                <polygon id="Fill-19" fill="#343B43" mask="url(#mask-4)" points="71.5242903 78.6489355 73.4757097 78.6489355 73.4757097 74.7470323 71.5242903 74.7470323"></polygon>
                <polygon id="Fill-20" fill="#343B43" mask="url(#mask-4)" points="85.8278387 78.6489355 87.7792581 78.6489355 87.7792581 74.7470323 85.8278387 74.7470323"></polygon>
                <polygon id="Fill-21" fill="#343B43" mask="url(#mask-4)" points="67.2977742 61.420129 77.7012903 61.420129 77.7012903 59.4687097 67.2977742 59.4687097"></polygon>
                <polygon id="Fill-22" fill="#343B43" mask="url(#mask-4)" points="67.2977742 57.9522903 92.0067097 57.9522903 92.0067097 56.000871 67.2977742 56.000871"></polygon>
                <polygon id="Fill-23" fill="#343B43" mask="url(#mask-4)" points="67.2977742 54.4844516 92.0067097 54.4844516 92.0067097 52.5330323 67.2977742 52.5330323"></polygon>
                <polygon id="Fill-24" fill="#343B43" mask="url(#mask-4)" points="67.2977742 51.0166129 92.0067097 51.0166129 92.0067097 49.0651935 67.2977742 49.0651935"></polygon>
            </g>
        </g>
    </g>
</svg>