<?xml version="1.0" encoding="UTF-8"?>
<svg width="130px" height="131px" viewBox="0 0 130 131" version="1.1" xmlns="http://www.w3.org/2000/svg" xmlns:xlink="http://www.w3.org/1999/xlink">
    <!-- Generator: Sketch 60.1 (88133) - https://sketch.com -->
    <title>icon6</title>
    <desc>Created with Sketch.</desc>
    <defs>
        <polygon id="path-1" points="0 131 130 131 130 0 0 0"></polygon>
    </defs>
    <g id="馬卡龍綠色" stroke="none" stroke-width="1" fill="none" fill-rule="evenodd">
        <g id="2功能清單頁" transform="translate(-487.000000, -490.000000)">
            <g id="icon6" transform="translate(487.000000, 490.000000)">
                <path d="M130,65.5 C130,101.674594 100.89929,131 65,131 C29.1007097,131 0,101.674594 0,65.5 C0,29.3245613 29.1007097,0 65,0 C100.89929,0 130,29.3245613 130,65.5" id="Fill-1" fill="#FECE66"></path>
                <path d="M129,77.4739428 L82.1395209,30.4517107 C77.453473,26.4267903 71.3778741,24 64.7376911,24 C51.3309257,24 40.2372698,33.8906501 38.3008306,46.7991449 C38.2662814,47.0282947 38.2418442,47.2616725 38.2131937,47.4925135 C38.1870711,47.6996785 38.1558926,47.9051524 38.1356687,48.1140086 C38.1053329,48.4217966 38.0851089,48.7338125 38.0657277,49.0441372 C38.0556157,49.1845021 38.0412905,49.3223303 38.0345492,49.4626951 C38.0109546,49.9159215 38,50.3716845 38,50.8299843 C38,58.0173422 40.8060672,64.5282429 45.3825689,69.3480005 C45.6766582,69.6524063 45.9800169,69.9559665 46.2833755,70.2527621 L60.0002408,84.0169752 C59.7895751,84.3256089 59.6817142,84.68244 59.6817142,85.0418079 L59.6817142,109.411179 C59.6817142,110.628802 60.1114723,111.753412 60.8361623,112.632807 C60.8622848,112.657328 60.8782954,112.683541 60.9035753,112.708908 L61.4428795,113.250074 C61.4681594,113.275441 61.4942819,113.291507 61.5187192,113.31772 L78.1410858,130 C104.054653,124.574813 124.313952,103.736549 129,77.4739428" id="Fill-3" fill="#F5B540"></path>
                <mask id="mask-2" fill="white">
                    <use xlink:href="#path-1"></use>
                </mask>
                <g id="Clip-6"></g>
                <polygon id="Fill-5" fill="#343B43" mask="url(#mask-2)" points="63 83 68 83 68 77 63 77"></polygon>
                <path d="M64.4954069,71.6016168 C52.7913968,71.6016168 43.2979122,61.9349029 43.2979122,49.9978726 C43.2979122,38.0659481 52.7913968,28.3983832 64.4954069,28.3983832 C76.2060978,28.3983832 85.703758,38.0659481 85.703758,49.9978726 C85.703758,61.9349029 76.2060978,71.6016168 64.4954069,71.6016168 M64.4995824,23 C49.86101,23 38,35.0867962 38,49.9978726 C38,64.9140547 49.86101,77 64.4995824,77 C79.1339794,77 91,64.9140547 91,49.9978726 C91,35.0867962 79.1339794,23 64.4995824,23" id="Fill-7" fill="#495057" mask="url(#mask-2)"></path>
                <path d="M70,85 L70,108.897675 C70,111.714424 67.7647255,114 65.0004166,114 C62.2377739,114 60,111.714424 60,108.897675 L60,85 L70,85 Z" id="Fill-8" fill="#495057" mask="url(#mask-2)"></path>
                <path d="M70,85 L60,85 L60,84.4866459 C60,84.1085675 60.1742247,83.7249393 60.5226742,83.4349636 C60.8711237,83.1449879 61.3262754,83 61.7814271,83 L68.2185729,83 C68.6737246,83 69.1288763,83.1449879 69.4773258,83.4349636 C69.8257753,83.7249393 70,84.1085675 70,84.4866459 L70,85 Z" id="Fill-9" fill="#FFFFFF" mask="url(#mask-2)"></path>
                <polygon id="Fill-10" fill="#FFFFFF" mask="url(#mask-2)" points="66.443845 36 64.5510054 36 64 39 67 39"></polygon>
                <polygon id="Fill-11" fill="#FFFFFF" mask="url(#mask-2)" points="58.8793864 38 57 39.0484725 58.0313091 42 61 40.3372709"></polygon>
                <polygon id="Fill-12" fill="#FFFFFF" mask="url(#mask-2)" points="53.0495413 42 52 43.8721615 54.3412844 46 56 43.0294365"></polygon>
                <polygon id="Fill-13" fill="#FFFFFF" mask="url(#mask-2)" points="51 49.5545477 51 51.4469233 54 52 54 49"></polygon>
                <polygon id="Fill-14" fill="#FFFFFF" mask="url(#mask-2)" points="52 57.1189826 53.0495413 59 56 57.9716208 54.3412844 55"></polygon>
                <polygon id="Fill-15" fill="#FFFFFF" mask="url(#mask-2)" points="57 61.9500306 58.8789916 63 61 60.6593922 58.0327731 59"></polygon>
                <polygon id="Fill-16" fill="#FFFFFF" mask="url(#mask-2)" points="64.5524767 65 66.443845 65 67 62 64 62"></polygon>
                <polygon id="Fill-17" fill="#FFFFFF" mask="url(#mask-2)" points="71.1229474 63 73 61.9500306 71.9734737 59 69 60.6593922"></polygon>
                <polygon id="Fill-18" fill="#FFFFFF" mask="url(#mask-2)" points="76.9521287 59 78 57.1189826 75.6606233 55 74 57.9707799"></polygon>
                <polygon id="Fill-19" fill="#FFFFFF" mask="url(#mask-2)" points="79 51.4469233 79 49.5545477 76 49 76 52"></polygon>
                <polygon id="Fill-20" fill="#FFFFFF" mask="url(#mask-2)" points="78 43.8721615 76.9521287 42 74 43.0294365 75.6606233 46"></polygon>
                <polygon id="Fill-21" fill="#FFFFFF" mask="url(#mask-2)" points="73 39.0475219 71.1229474 38 69 40.3381603 71.9734737 42"></polygon>
                <path d="M64.9987669,55.2341817 C62.4979635,55.2341817 60.4739733,53.1127182 60.4739733,50.5012894 C60.4739733,47.8855627 62.4979635,45.7666779 64.9987669,45.7666779 C67.4987482,45.7666779 69.528493,47.8855627 69.528493,50.5012894 C69.528493,53.1127182 67.4987482,55.2341817 64.9987669,55.2341817 M64.9987669,39 C58.922686,39 54,44.148933 54,50.502149 C54,56.8570841 58.922686,62 64.9987669,62 C71.0789582,62 76,56.8570841 76,50.502149 C76,44.148933 71.0789582,39 64.9987669,39" id="Fill-22" fill="#FFFFFF" mask="url(#mask-2)"></path>
            </g>
        </g>
    </g>
</svg>