<?xml version="1.0" encoding="UTF-8"?>
<svg width="130px" height="131px" viewBox="0 0 130 131" version="1.1" xmlns="http://www.w3.org/2000/svg" xmlns:xlink="http://www.w3.org/1999/xlink">
    <!-- Generator: Sketch 60.1 (88133) - https://sketch.com -->
    <title>icon0</title>
    <desc>Created with Sketch.</desc>
    <defs>
        <polygon id="path-1" points="0 0 129.999 0 129.999 131 0 131"></polygon>
    </defs>
    <g id="馬卡龍綠色" stroke="none" stroke-width="1" fill="none" fill-rule="evenodd">
        <g id="2功能清單頁" transform="translate(-172.000000, -245.000000)">
            <g id="icon0" transform="translate(172.000000, 245.000000)">
                <g id="编组">
                    <mask id="mask-2" fill="white">
                        <use xlink:href="#path-1"></use>
                    </mask>
                    <g id="Clip-2"></g>
                    <path d="M129.9996,65.5 C129.9996,67.2140846 129.9346,68.9150692 129.8066,70.5999308 C127.2226,104.390877 99.1966,131 65.0006,131 C63.2616,131 61.5356,130.930469 59.8296,130.795438 C26.3476,128.138154 -0.0004,99.9207538 -0.0004,65.5 C-0.0004,29.3238462 29.1016,0 65.0006,0 C100.8986,0 129.9996,29.3238462 129.9996,65.5" id="Fill-1" fill="#40BDBD" mask="url(#mask-2)"></path>
                </g>
                <path d="M130,70.5517368 C127.421505,104.369645 99.4562151,131 65.3320748,131 C63.5977777,131 61.8744572,130.930414 60.172092,130.795275 L36.6972141,107.070398 L43.1893525,76.3465568 L19,52.0226332 L19.0199574,52.0206162 L51.9047439,48.5594567 L65.3320748,18 L95.5146309,50.3202913 L111.66415,52.0226332 L111.666145,52.0226332 C111.666145,52.0226332 120.249818,60.6977188 130,70.5517368" id="Fill-3" fill="#229C97"></path>
                <polygon id="Fill-5" fill="#FDD835" points="87.3281861 74.3072124 112 51.9957428 78.9770635 48.5342957 78.9740591 48.5272418 65.5005007 18 52.0249394 48.5342957 52.0169278 48.5342957 19.0230334 51.9907043 19 51.9957428 43.7228881 74.29512 43.6758197 74.3112432 43.6958488 74.3273664 36.7617832 107 37.3376191 106.663428 65.5005007 90.2671535 65.5005007 90.2651381 65.5005007 90.2570765 65.5005007 90.2651381 93.6633823 106.660405 94.2392182 106.995969 87.3061541 74.3223279 87.3251817 74.3072124"></polygon>
                <polygon id="Fill-7" fill="#FFFFFF" points="65.495 67.503 65.505 67.499 65.495 67.497"></polygon>
                <polygon id="Fill-9" fill="#FDD835" points="19 52.0049661 43.4102255 74 65 66.9719187 65 66.9659594 19.0217948 52"></polygon>
                <polygon id="Fill-11" fill="#F9A825" points="86.587954 74 111 52 65 66.9700556"></polygon>
                <polygon id="Fill-13" fill="#FFF176" points="42.9973515 74.1780337 36 107 36.5810914 106.661901 65 67 42.9771397 74.1618373"></polygon>
                <polygon id="Fill-15" fill="#FDD835" points="37 107 65 90.8041653 65 68 64.9990043 68"></polygon>
                <polygon id="Fill-17" fill="#FBC02D" points="87.0228603 74.1620185 65 67 93.4189086 106.662904 94 107 87.0026485 74.177203"></polygon>
                <polygon id="Fill-19" fill="#FDE05D" points="65 68 65 90.8045786 93 107 65.0009957 68"></polygon>
                <polygon id="Fill-21" fill="#FFF176" points="52 48.4251844 64.974896 66.989959 65 67 65 18 52.0067588 48.4251844"></polygon>
                <polygon id="Fill-23" fill="#FFF59D" points="19 52.5256355 65 68 51.6732494 49"></polygon>
                <polygon id="Fill-25" fill="#FBC02D" points="65 66.9979919 65.0096626 67 65.0125613 67 78 48.4169091 65 18"></polygon>
                <polygon id="Fill-27" fill="#FDD835" points="78.3189711 49 65 68 111 52.533499 78.3219441 49.0071861"></polygon>
                <path d="M102,95 C102,104.389419 94.3896425,112 85.0005002,112 C75.6123584,112 68,104.389419 68,95 C68,85.6105815 75.6123584,78 85.0005002,78 C94.3896425,78 102,85.6105815 102,95" id="Fill-29" fill="#FFFFFF"></path>
                <path d="M100.619843,97.566309 C99.5288132,104.236921 94.2528481,109.519854 87.5852229,110.617852 C86.7440549,110.756222 85.8789957,110.829886 85,110.829886 C76.269771,110.829886 69.1691185,103.729233 69.1691185,95 C69.1691185,86.269771 76.269771,79.1701139 85,79.1701139 C93.728238,79.1701139 100.829886,86.269771 100.829886,95 C100.829886,95.8730229 100.760204,96.7321093 100.619843,97.566309 M85,77 C75.0742175,77 67,85.0742175 67,95 C67,104.923792 75.0742175,113 85,113 C86.5170888,113 87.994359,112.810862 89.4029422,112.45349 C95.8017918,110.839841 100.8488,105.788851 102.457472,99.3880102 C102.810862,97.9824134 103,96.5121115 103,95 C103,85.0742175 94.9237916,77 85,77" id="Fill-31" fill="#364D5C"></path>
                <path d="M101.136004,96.8976216 C94.897776,90.7183202 88.0910597,84.0159139 88.0910597,84.0159139 C87.9385876,83.4301981 87.410489,83 86.7804058,83 L83.8026567,83 C83.0534231,83 82.4455544,83.6079326 82.4455544,84.3572448 L82.4455544,91.449455 L75.3540889,91.449455 C74.6068748,91.449455 74,92.0573876 74,92.8046802 L74,95.7827419 C73.9969866,96.4139012 74.429159,96.9430651 75.0148133,97.0925236 C75.0148133,97.0925236 81.4974003,103.650521 87.9143536,110.137828 C88.2293952,110.453912 88.5414076,110.766967 88.8524102,111.082042 C89.1543251,111.391058 89.4592692,111.696034 89.7581549,112 C96.2488198,110.363025 101.368246,105.239022 103,98.7456559 C102.698085,98.4437093 102.392131,98.1417627 102.084158,97.8327472 C101.771136,97.5267612 101.453065,97.2126963 101.136004,96.8976216" id="Fill-33" fill="#231F20" opacity="0.2"></path>
                <path d="M94.6799607,91.6037913 L87.768935,91.6037913 L87.768935,84.3799794 C87.768935,83.6180087 87.1787535,83 86.4498793,83 L83.5491371,83 C82.8192793,83 82.2290977,83.6180087 82.2290977,84.3799794 L82.2290977,91.6037913 L75.3190557,91.6037913 C74.5901815,91.6037913 74,92.2228283 74,92.9837707 L74,96.0162293 C74,96.7792283 74.5901815,97.3962087 75.3190557,97.3962087 L82.2290977,97.3962087 L82.2290977,104.620021 C82.2290977,105.380963 82.8192793,106 83.5491371,106 L86.4498793,106 C87.1787535,106 87.768935,105.380963 87.7699186,104.620021 L87.7699186,97.3962087 L94.6799607,97.3962087 C95.4088348,97.3962087 96,96.7792283 96,96.0162293 L96,92.9837707 C96,92.2228283 95.4088348,91.6037913 94.6799607,91.6037913" id="Fill-35" fill="#364D5C"></path>
            </g>
        </g>
    </g>
</svg>