<?xml version="1.0" encoding="UTF-8"?>
<svg width="171px" height="171px" viewBox="0 0 171 171" version="1.1" xmlns="http://www.w3.org/2000/svg" xmlns:xlink="http://www.w3.org/1999/xlink">
    <!-- Generator: Sketch 60.1 (88133) - https://sketch.com -->
    <title>编组 6备份 3</title>
    <desc>Created with Sketch.</desc>
    <defs>
        <polygon id="path-1" points="0 0 144.999906 0 144.999906 144.999906 0 144.999906"></polygon>
        <polygon id="path-3" points="0 145 145 145 145 0 0 0"></polygon>
    </defs>
    <g id="寶藍" stroke="none" stroke-width="1" fill="none" fill-rule="evenodd">
        <g id="编组-6备份-3">
            <circle id="椭圆形备份-3" fill="#F9F9F9" cx="85.5" cy="85.5" r="85.5"></circle>
            <g id="编组" transform="translate(13.000000, 13.000000)">
                <g>
                    <mask id="mask-2" fill="white">
                        <use xlink:href="#path-1"></use>
                    </mask>
                    <g id="Clip-2"></g>
                    <path d="M144.999906,72.4999065 C144.999906,112.539552 112.541423,144.999906 72.4999065,144.999906 C32.4583903,144.999906 -9.35483871e-05,112.539552 -9.35483871e-05,72.4999065 C-9.35483871e-05,32.4583903 32.4583903,-9.35483871e-05 72.4999065,-9.35483871e-05 C112.541423,-9.35483871e-05 144.999906,32.4583903 144.999906,72.4999065" id="Fill-1" fill="#495057" mask="url(#mask-2)"></path>
                </g>
                <path d="M143.843368,85.3390484 L112.2764,53.7720806 C111.668335,53.1546613 110.863819,52.8459516 110.060239,52.8459516 L89.7218839,52.8459516 L70.7034968,33.8275645 C69.3844645,32.6582097 67.6444645,31.9472419 65.7463677,31.9472419 C61.611529,31.9472419 58.2624968,35.2962742 58.2624968,39.4404677 C58.2624968,41.4321129 59.0473677,43.2478871 60.3299161,44.5940484 C60.4505935,44.7259516 60.5815613,44.846629 60.7134645,44.9775968 L68.5799484,52.8459516 L34.9399484,52.8459516 C34.1363677,52.8459516 33.3309161,53.1546613 32.7237871,53.7720806 C32.1147871,54.3792097 31.8060774,55.1753065 31.8060774,55.9788871 L31.8060774,89.0211129 C31.8060774,91.4524355 32.582529,93.6985323 33.920271,95.5217903 L36.3534645,97.9540484 L82.6674,144.275468 C113.672142,139.921726 138.367045,115.96679 143.843368,85.3390484" id="Fill-3" fill="#343B43"></path>
                <path d="M113.193455,55.9791677 C113.193455,55.179329 112.886616,54.3766839 112.275745,53.7676839 C111.66581,53.1549419 110.8641,52.8490387 110.063326,52.8490387 L34.9364871,52.8490387 C34.1347774,52.8490387 33.3340032,53.1549419 32.7240677,53.7676839 C32.1113258,54.3766839 31.8063581,55.179329 31.8063581,55.9791677 L31.8063581,89.0195226 C31.8063581,89.8212323 32.1113258,90.6220065 32.7240677,91.2328774 C33.3340032,91.8446839 34.1347774,92.1505871 34.9364871,92.1505871 L110.063326,92.1505871 C110.8641,92.1505871 111.66581,91.8446839 112.275745,91.2328774 C112.886616,90.6220065 113.193455,89.8212323 113.193455,89.0195226 L113.193455,55.9791677 Z" id="Fill-5" fill="#70C9E9"></path>
                <path d="M108.850377,83.3200871 C106.369474,83.3200871 104.361926,85.3304419 104.361926,87.8085387 L40.6386355,87.8085387 C40.6386355,85.3304419 38.6292161,83.3200871 36.1492484,83.3200871 L36.1492484,61.6786032 C38.6292161,61.6786032 40.6386355,59.6691839 40.6386355,57.1929581 L104.361926,57.1929581 C104.361926,59.6691839 106.369474,61.6786032 108.850377,61.6786032 L108.850377,83.3200871 Z" id="Fill-7" fill="#8FDEF6"></path>
                <path d="M72.5008419,63.2172871 C67.3828097,63.2172871 63.2180355,67.3811258 63.2180355,72.5000935 C63.2180355,77.6190613 67.3828097,81.7838355 72.5008419,81.7838355 C77.6179387,81.7838355 81.7817774,77.6190613 81.7817774,72.5000935 C81.7817774,67.3811258 77.6179387,63.2172871 72.5008419,63.2172871 M72.5008419,84.5304161 C65.8682613,84.5304161 60.4723903,79.1336097 60.4723903,72.5000935 C60.4723903,65.8665774 65.8682613,60.4688355 72.5008419,60.4688355 C79.1324871,60.4688355 84.5274226,65.8665774 84.5274226,72.5000935 C84.5274226,79.1336097 79.1324871,84.5304161 72.5008419,84.5304161" id="Fill-9" fill="#70C9E9"></path>
                <path d="M73.7441935,73.8766581 L71.2520645,73.8766581 C70.1126452,73.8766581 69.0359032,73.4304323 68.2257742,72.6249806 C67.4147097,71.8054968 66.9731613,70.7334323 66.9731613,69.5940129 C66.9731613,68.4545935 67.4165806,67.382529 68.2192258,66.574271 C69.0340323,65.7594645 70.1117097,65.3132387 71.2520645,65.3132387 L73.7460645,65.3132387 L73.7460645,68.0598194 L71.2520645,68.0598194 C70.8432581,68.0598194 70.4569032,68.2216581 70.1640968,68.5154 C69.8797097,68.7997871 69.7216129,69.1852065 69.7216129,69.5940129 C69.7216129,70.0046903 69.8806452,70.3919806 70.1725161,70.6857226 C70.4531613,70.9682387 70.8423226,71.1291419 71.2520645,71.1291419 L73.7441935,71.1291419 L73.7441935,73.8766581 Z" id="Fill-11" fill="#70C9E9"></path>
                <path d="M78.0278677,69.5929839 L75.2794161,69.5929839 C75.2794161,69.1841774 75.1185129,68.7968871 74.8238355,68.5012742 C74.5394484,68.2187581 74.1549645,68.0597258 73.7461581,68.0597258 L73.7461581,65.3131452 C74.8855774,65.3131452 75.9585774,65.7546935 76.7659,66.5582742 C77.5807065,67.3758871 78.0278677,68.452629 78.0278677,69.5929839" id="Fill-13" fill="#70C9E9"></path>
                <path d="M71.2538419,79.6868548 C70.1162935,79.6868548 69.0470355,79.2453065 68.2350355,78.4454677 C67.420229,77.6259839 66.9730677,76.5492419 66.9730677,75.4079516 L69.7215194,75.4079516 C69.7215194,75.8167581 69.8814871,76.2040484 70.1771,76.4996613 C70.4586806,76.7812419 70.8450355,76.9393387 71.2538419,76.9393387 L71.2538419,79.6868548 Z" id="Fill-15" fill="#70C9E9"></path>
                <path d="M73.7441935,79.6868548 L71.2539355,79.6868548 L71.2539355,76.9393387 L73.7441935,76.9393387 C74.153,76.9393387 74.5402903,76.7812419 74.8274839,76.4912419 C75.1184194,76.1984355 75.2802581,75.8130161 75.2802581,75.4079516 C75.2802581,75.0019516 75.1184194,74.6146613 74.8237419,74.3181129 C74.5412258,74.0374677 74.153,73.8765645 73.7441935,73.8765645 L73.7441935,71.1299839 C74.8817419,71.1299839 75.9566129,71.5724677 76.7667419,72.3751129 C77.5824839,73.1992742 78.0277742,74.2732097 78.0277742,75.4079516 C78.0277742,76.543629 77.5815484,77.616629 76.7732903,78.4295645 C75.9631613,79.2415645 74.8882903,79.6868548 73.7441935,79.6868548" id="Fill-17" fill="#70C9E9"></path>
                <mask id="mask-4" fill="white">
                    <use xlink:href="#path-3"></use>
                </mask>
                <g id="Clip-20"></g>
                <polygon id="Fill-19" fill="#70C9E9" mask="url(#mask-4)" points="71.1220323 80.8052258 73.8704839 80.8052258 73.8704839 64.1947742 71.1220323 64.1947742"></polygon>
                <polygon id="Fill-21" fill="#70C9E9" mask="url(#mask-4)" points="83.1392581 73.8751613 98.8853226 73.8751613 98.8853226 71.1267097 83.1392581 71.1267097"></polygon>
                <polygon id="Fill-22" fill="#70C9E9" mask="url(#mask-4)" points="46.1156129 73.8751613 61.8439032 73.8751613 61.8439032 71.1267097 46.1156129 71.1267097"></polygon>
                <polygon id="Fill-23" fill="#70C9E9" mask="url(#mask-4)" points="81.4282581 68.0601935 89.3985806 68.0601935 89.3985806 65.3126774 81.4282581 65.3126774"></polygon>
                <polygon id="Fill-24" fill="#70C9E9" mask="url(#mask-4)" points="55.6014194 68.0601935 63.5717419 68.0601935 63.5717419 65.3126774 55.6014194 65.3126774"></polygon>
                <polygon id="Fill-25" fill="#70C9E9" mask="url(#mask-4)" points="81.0662258 79.6873226 89.3985806 79.6873226 89.3985806 76.9398065 81.0662258 76.9398065"></polygon>
                <polygon id="Fill-26" fill="#70C9E9" mask="url(#mask-4)" points="55.6023548 79.6873226 63.5736129 79.6873226 63.5736129 76.9398065 55.6023548 76.9398065"></polygon>
                <path d="M53.9583355,89.0198032 C53.9583355,95.1369323 48.9993355,100.088448 42.8840774,100.088448 C36.7632065,100.088448 31.8060774,95.1369323 31.8060774,89.0198032 C31.8060774,82.9045452 36.7632065,77.9361903 42.8840774,77.9361903 C48.9993355,77.9361903 53.9583355,82.9045452 53.9583355,89.0198032" id="Fill-27" fill="#FECE66" mask="url(#mask-4)"></path>
                <path d="M50.780029,89.0198032 C50.780029,93.3782226 47.2523194,96.9162226 42.8845452,96.9162226 C38.5186419,96.9162226 34.9871903,93.3782226 34.9871903,89.0198032 C34.9871903,84.6529645 38.5186419,81.1159 42.8845452,81.1159 C47.2523194,81.1159 50.780029,84.6529645 50.780029,89.0198032" id="Fill-28" fill="#F5B540" mask="url(#mask-4)"></path>
                <path d="M73.2252806,39.4364452 C73.2252806,43.5675419 69.8725065,46.9128323 65.7432806,46.9128323 C61.6084419,46.9128323 58.2575387,43.5675419 58.2575387,39.4364452 C58.2575387,35.2997355 61.6084419,31.9450903 65.7432806,31.9450903 C69.8725065,31.9450903 73.2252806,35.2997355 73.2252806,39.4364452" id="Fill-29" fill="#FECE66" mask="url(#mask-4)"></path>
                <path d="M71.0784387,39.4364452 C71.0784387,42.3785419 68.6938903,44.7715097 65.7433742,44.7715097 C62.794729,44.7715097 60.4064387,42.3785419 60.4064387,39.4364452 C60.4064387,36.4849935 62.794729,34.0929613 65.7433742,34.0929613 C68.6938903,34.0929613 71.0784387,36.4849935 71.0784387,39.4364452" id="Fill-30" fill="#F5B540" mask="url(#mask-4)"></path>
                <path d="M85.3253903,53.2676677 C85.3253903,56.1077968 83.0203581,58.4072161 80.1821,58.4072161 C77.3391645,58.4072161 75.0350677,56.1077968 75.0350677,53.2676677 C75.0350677,50.4228613 77.3391645,48.1168935 80.1821,48.1168935 C83.0203581,48.1168935 85.3253903,50.4228613 85.3253903,53.2676677" id="Fill-31" fill="#FECE66" mask="url(#mask-4)"></path>
                <path d="M83.8499452,53.2676677 C83.8499452,55.2883129 82.2100419,56.9347645 80.1819129,56.9347645 C78.1537839,56.9347645 76.5129452,55.2883129 76.5129452,53.2676677 C76.5129452,51.2376677 78.1537839,49.5930871 80.1819129,49.5930871 C82.2100419,49.5930871 83.8499452,51.2376677 83.8499452,53.2676677" id="Fill-32" fill="#F5B540" mask="url(#mask-4)"></path>
            </g>
        </g>
    </g>
</svg>