<?xml version="1.0" encoding="UTF-8"?>
<svg width="135px" height="134px" viewBox="0 0 135 134" version="1.1" xmlns="http://www.w3.org/2000/svg" xmlns:xlink="http://www.w3.org/1999/xlink">
    <!-- Generator: Sketch 60.1 (88133) - https://sketch.com -->
    <title>icon11</title>
    <desc>Created with Sketch.</desc>
    <defs>
        <polygon id="path-1" points="0 0.346447368 134.643579 0.346447368 134.643579 134 0 134"></polygon>
        <polygon id="path-3" points="0 135 135 135 135 1 0 1"></polygon>
    </defs>
    <g id="馬卡龍綠色" stroke="none" stroke-width="1" fill="none" fill-rule="evenodd">
        <g id="2功能清單頁" transform="translate(-800.000000, -736.000000)">
            <g id="icon11" transform="translate(800.000000, 736.000000)">
                <g id="Group-3">
                    <mask id="mask-2" fill="white">
                        <use xlink:href="#path-1"></use>
                    </mask>
                    <g id="Clip-2"></g>
                    <path d="M134.643579,67.1728684 C134.643579,104.081158 104.501684,134.001421 67.32,134.001421 C30.1418947,134.001421 0,104.081158 0,67.1728684 C0,30.2645789 30.1418947,0.344315789 67.32,0.344315789 C104.501684,0.344315789 134.643579,30.2645789 134.643579,67.1728684" id="Fill-1" fill="#F7931E" mask="url(#mask-2)"></path>
                </g>
                <path d="M103.423348,45.2699392 C101.813487,43.524184 99.1577514,43.0529372 97.0088902,44.2917451 C96.3413868,44.6808807 95.7916782,45.1949681 95.3704728,45.7911667 L95.1134662,45.6412246 L95.1741483,45.534123 L94.7850688,45.3127798 L94.8457509,45.2056783 L94.4531019,44.9843351 L94.513784,44.8808036 L94.128274,44.6558903 L94.1889561,44.5523588 L93.7998766,44.3274456 L93.8569892,44.2239141 L92.0757904,43.1957393 L91.7759493,43.7098267 L91.5439294,43.5777348 L91.6046115,43.4742033 L91.215532,43.2528601 L91.2762141,43.1457585 L90.8871346,42.9244153 L90.9478167,42.8173138 L90.5623068,42.5959706 L90.6194193,42.4924391 L90.2339094,42.2675259 L90.291022,42.1639944 L88.5062536,41.1322495 L88.2064125,41.653477 L87.9743926,41.517815 L88.0386442,41.4142835 L87.6459952,41.1893703 L87.7066773,41.0858388 L87.3175978,40.8644956 L87.3818495,40.7573941 L86.99277,40.5360509 L87.0498825,40.4325194 L86.6643726,40.2040361 L86.7214852,40.1040746 L84.9402863,39.0758998 L84.6368757,39.5899872 L84.4048558,39.4578953 L84.4691074,39.3543638 L84.0800279,39.1294506 L84.1407101,39.0259191 L83.748061,38.8010058 L83.8123127,38.6974743 L83.4232332,38.4761311 L83.4839153,38.3690296 L83.0948358,38.1476864 L83.1555179,38.0441549 L81.8205111,37.2730238 C81.7883853,37.2373233 81.7491204,37.1980527 81.7098555,37.1623522 C81.6063389,37.0481105 71.3367816,26.7770723 71.2225564,26.6735408 C69.6091258,24.9277856 66.9498209,24.4565388 64.8080988,25.6953467 C62.3165621,27.1305074 61.4670123,30.3114233 62.9055357,32.7997492 C63.18039,33.2781361 63.5230655,33.6958321 63.9157146,34.0456972 C64.0192311,34.1670789 64.1298868,34.2741805 64.244112,34.377712 C64.3476285,34.4883836 64.4547146,34.6026252 64.5653703,34.7025867 C64.6760259,34.8168283 64.783112,34.93107 64.8973372,35.0346015 C65.0008538,35.1488431 65.1150789,35.2559447 65.2257346,35.3630462 C65.3292512,35.4772879 65.4363373,35.5843894 65.554132,35.6843508 C65.6576485,35.8057326 65.7683042,35.9128341 65.8825294,36.0163656 C65.9860459,36.1306073 66.0967016,36.2412789 66.2073572,36.3448104 C66.3144433,36.459052 66.4215294,36.5697236 66.5357546,36.6696851 C66.6392712,36.7839267 66.7499268,36.8945983 66.864152,37.0016999 C66.9676685,37.1159415 67.0783242,37.2230431 67.1925494,37.3265745 C67.2318143,37.3729852 67.2782182,37.4158258 67.3246222,37.4622365 L66.3215824,37.4622365 L66.3215824,38.7688754 L66.1466751,38.4618509 L66.039589,38.5225418 L65.8182777,38.1369762 L65.7147611,38.1976671 L65.4898803,37.8085315 L65.3863637,37.8692224 L65.1614829,37.4765167 L65.0579664,37.5407776 L64.8366551,37.151642 L64.729569,37.2123329 L64.5082577,36.8267673 L64.4011716,36.8838882 L64.1762908,36.4947525 L64.0763437,36.5590135 L63.8478934,36.1663078 L63.7479464,36.2305687 L63.519496,35.8378631 L63.419549,35.902124 L63.1946681,35.5129884 L63.0911516,35.5736792 L62.8662708,35.1845436 L62.7627542,35.2452345 L62.5378734,34.8560989 L62.4343568,34.9203598 L62.209476,34.5276541 L62.109529,34.5919151 L61.8810786,34.1992094 L61.777562,34.2634703 L61.5562508,33.8743347 L61.4491647,33.9350256 L61.2278534,33.54589 L61.1243368,33.6065808 L60.899456,33.2174452 L60.7959394,33.2817062 L60.5710586,32.8890005 L58.7862902,33.9207454 L59.8714294,35.7985925 L59.974946,35.7343316 L60.1998268,36.1234672 L60.3033433,36.0663464 L60.5282242,36.4519119 L60.6317407,36.3947911 L60.853052,36.7803567 L60.9601381,36.7160957 L61.1814494,37.1088014 L61.284966,37.0481105 L61.5098468,37.4372461 L61.6133633,37.3765553 L61.8382442,37.7621208 L61.9417607,37.705 L62.163072,38.0905656 L62.2701581,38.0334447 L62.4914694,38.4190103 L62.5985555,38.3583194 L62.8198668,38.7474551 L62.9233834,38.6867642 L63.1482642,39.0758998 L63.2517807,39.0152089 L63.4766616,39.4007745 L63.5801781,39.3436537 L63.8014894,39.7292192 L63.9085755,39.6720984 L64.1298868,40.057664 L64.2369729,39.9969731 L64.4582842,40.3861087 L64.5618007,40.3254178 L64.7866816,40.7145534 L64.8901981,40.6538626 L65.1150789,41.0394281 L65.2185955,40.9823073 L65.4399068,41.3678729 L65.5469929,41.3107521 L65.7683042,41.6963176 L65.8753903,41.6356267 L66.0967016,42.0247624 L66.2002181,41.9640715 L66.3215824,42.1711345 L66.3215824,43.6419957 L66.6464102,43.6419957 L66.6464102,43.9704404 L66.9748076,43.9704404 L66.9748076,44.2988852 L67.303205,44.2988852 L67.303205,44.6237599 L67.6316024,44.6237599 L67.6316024,44.9522046 L67.9599998,44.9522046 L67.9599998,45.2806494 L68.2848276,45.2806494 L68.2848276,45.6090941 L68.613225,45.6090941 L68.613225,45.9375388 L68.9416224,45.9375388 L68.9416224,46.2624135 L69.2700198,46.2624135 L69.2700198,46.5944283 L69.6019867,46.5944283 L69.6019867,46.919303 L69.923245,46.919303 L69.923245,47.2477478 L70.2552119,47.2477478 L70.2552119,47.5761925 L70.5836093,47.5761925 L70.5836093,47.9010672 L70.9120067,47.9010672 L70.9120067,48.2295119 L71.2368345,48.2295119 L71.2368345,48.5615267 L71.5652319,48.5615267 L71.5652319,48.8899715 L71.8936293,48.8899715 L71.8936293,49.2112761 L72.2220267,49.2112761 L72.2220267,49.5432909 L72.5504241,49.5432909 L72.5504241,49.8717356 L72.8752519,49.8717356 L72.8752519,50.035958 C72.8324175,50.0216778 72.7895831,50.0073976 72.7467486,49.9966874 L72.7467486,49.964557 L72.6253844,49.964557 C72.5575632,49.9467067 72.4861724,49.9324265 72.4219208,49.9110062 L72.4219208,49.6396823 L72.0935234,49.6396823 L72.0935234,49.3112375 L71.765126,49.3112375 L71.765126,48.9827928 L71.4367286,48.9827928 L71.4367286,48.6543481 L71.1083312,48.6543481 L71.1083312,48.3223333 L70.7835034,48.3223333 L70.7835034,48.0010286 L70.455106,48.0010286 L70.455106,47.6725839 L70.1267086,47.6725839 L70.1267086,47.3405691 L69.7983112,47.3405691 L69.7983112,47.0156944 L69.4699138,47.0156944 L69.4699138,46.6872497 L69.145086,46.6872497 L69.145086,46.3588049 L68.8166886,46.3588049 L68.8166886,46.0303602 L68.4882912,46.0303602 L68.4882912,45.7019154 L67.6458805,45.7019154 L67.4923904,45.4413017 L67.3888739,45.5019926 L67.1639931,45.1128569 L67.064046,45.1771179 L66.8355957,44.7844122 L66.7320791,44.8486731 L66.5071983,44.4559675 L66.4036817,44.5166583 L66.1823704,44.1310928 L66.0752843,44.1882136 L65.8539731,43.802648 L65.746887,43.8597688 L65.5255757,43.4742033 L65.4220591,43.5348942 L65.1971783,43.1457585 L65.0936617,43.2064494 L64.8687809,42.8173138 L64.7652643,42.8780047 L64.5439531,42.4924391 L64.436867,42.5495599 L64.2155557,42.1639944 L64.1084696,42.2211152 L63.8871583,41.8355496 L63.7836417,41.8962405 L63.5587609,41.5071049 L63.4552443,41.5677958 L63.2303635,41.1786601 L63.126847,41.239351 L62.9055357,40.8537855 L62.7984496,40.9109063 L62.5771383,40.5253407 L62.4700522,40.5860316 L62.2487409,40.196896 L62.1452243,40.2575869 L61.9203435,39.8684512 L61.8168269,39.9291421 L61.5919461,39.5435765 L61.4884296,39.6006974 L61.2671183,39.2151318 L61.1600322,39.2722526 L60.9387209,38.8866871 L60.8316348,38.9473779 L60.6103235,38.5582423 L60.5068069,38.6189332 L60.2819261,38.2297976 L60.1784096,38.2869184 L59.9535287,37.9049229 L59.8500122,37.9620437 L59.6287009,37.5764782 L59.5216148,37.633599 L59.3003035,37.2480334 L59.1932174,37.3051542 L58.9719061,36.9195887 L58.8683896,36.9802795 L58.6435087,36.5875739 L58.5399922,36.6518348 L58.3151114,36.2626992 L58.2115948,36.31982 L57.9902835,35.9378245 L57.8831974,35.9913753 L57.6583166,35.6058097 L57.5548,35.6665006 L57.3334887,35.277365 L57.2299722,35.3380558 L57.0015218,34.9489202 L55.220323,35.9806651 L56.3018926,37.8585122 L56.4054092,37.7978213 L56.63029,38.186957 L56.7338066,38.1262661 L56.9586874,38.5118317 L57.0622039,38.4547108 L57.2835152,38.8402764 L57.3906013,38.7831556 L57.6119126,39.1687211 L57.7154292,39.1080303 L57.94031,39.4971659 L58.0438266,39.436475 L58.2687074,39.8256106 L58.3722239,39.7649197 L58.5935352,40.1504853 L58.7006213,40.0933645 L58.9255021,40.47893 L59.0290187,40.4218092 L59.25033,40.8073748 L59.3538466,40.7466839 L59.5822969,41.1358195 L59.6822439,41.0751287 L59.9106943,41.4642643 L60.0106413,41.4035734 L60.2355221,41.789139 L60.3390387,41.7320181 L60.5639195,42.1175837 L60.6674361,42.0604629 L60.8923169,42.4460284 L60.9922639,42.3853376 L61.2207143,42.7780432 L61.3242309,42.7137823 L61.5491117,43.106488 L61.6526283,43.042227 L61.8739395,43.4313627 L61.9810256,43.3706718 L62.2023369,43.7562374 L62.309423,43.6991165 L62.5307343,44.0846821 L62.6342509,44.0239912 L62.8591317,44.4166969 L62.9626483,44.352436 L63.1875291,44.7451416 L63.2910456,44.6808807 L63.5123569,45.0700163 L63.619443,45.0093254 L63.8407543,45.3984611 L63.9478404,45.3377702 L64.1691517,45.7269058 L64.2726683,45.6626449 L64.4975491,46.0553505 L64.6010656,45.9910896 L64.8259465,46.3837953 L64.929463,46.3195344 L65.1507743,46.70867 L65.2578604,46.6479791 L65.4791717,47.0371147 L65.5862578,46.9764238 L65.8075691,47.3655595 L65.9110856,47.3012985 L66.1359665,47.6940042 L66.239483,47.6297433 L66.4643639,48.0224489 L66.5678804,47.9617581 L66.7891917,48.3473236 L66.8962778,48.2866328 L67.1175891,48.6757684 L67.2211057,48.6186475 L67.4459865,49.0042131 L67.549503,48.9435222 L67.7029931,49.2112761 C67.6030461,49.2112761 67.5066686,49.1969959 67.403152,49.1969959 C66.8106089,49.1969959 66.2252049,49.2255563 65.6469399,49.2826771 L65.5648406,49.1434451 L65.4577545,49.204136 L65.2364432,48.8114303 L65.1329266,48.8721212 L64.9080458,48.4865556 L64.8045292,48.5436765 L64.5796484,48.1581109 L64.4761319,48.2152317 L64.251251,47.8296662 L64.1477345,47.886787 L63.9264232,47.5012214 L63.8193371,47.5619123 L63.5980258,47.1727767 L63.4945092,47.2334675 L63.2696284,46.8443319 L63.1661119,46.9050228 L62.941231,46.5194572 L62.8377145,46.5765781 L62.6128337,46.1910125 L62.5093171,46.2481333 L62.2880058,45.8625678 L62.1809197,45.9232586 L61.9596084,45.534123 L61.8560919,45.5948139 L61.631211,45.2056783 L61.5276945,45.2663692 L61.2992441,44.8808036 L61.1992971,44.9379244 L60.9744163,44.5523588 L60.8708997,44.6094797 L60.6495884,44.2239141 L60.5425023,44.284605 L60.3176215,43.8954694 L60.2176745,43.9561602 L59.9892241,43.5670246 L59.8857075,43.6277155 L59.6608267,43.2421499 L59.5608797,43.2992708 L59.3359989,42.9137052 L59.2324823,42.970826 L59.0076015,42.5852605 L58.9005154,42.6459513 L58.6792041,42.2568157 L58.5756875,42.3175066 L58.3508067,41.928371 L58.2472902,41.9890618 L58.0224093,41.5999262 L57.9188928,41.6606171 L57.6975815,41.2750515 L57.5904954,41.3321724 L57.3691841,40.9430367 L57.262098,41.0072977 L57.0407867,40.614592 L56.9372701,40.6788529 L56.7123893,40.2861473 L56.6088728,40.3504082 L56.3839919,39.9612726 L56.2804754,40.0219635 L56.0591641,39.6328278 L55.952078,39.6935187 L55.7307667,39.3043831 L55.6236806,39.368644 L55.4023693,38.9759384 L55.2988528,39.0401993 L55.0739719,38.6510637 L54.9704554,38.7117545 L54.7455746,38.3226189 L54.642058,38.3833098 L54.4207467,37.9941742 L54.3136606,38.0548651 L54.0923493,37.6657294 L53.9852632,37.7299904 L53.7639519,37.3372847 L53.6604354,37.3979756 L53.4355546,37.01241 L51.6507862,38.0441549 L52.7359253,39.918432 L52.8358724,39.8577411 L53.0607532,40.2468767 L53.1642698,40.1861858 L53.3891506,40.5753214 L53.4926671,40.5146306 L53.717548,40.9001961 L53.8210645,40.8430753 L54.0459453,41.2286409 L54.1458924,41.17152 L54.3743427,41.5570856 L54.4778593,41.4963947 L54.7027401,41.8855304 L54.8026871,41.8248395 L55.027568,42.2139751 L55.1346541,42.1532842 L55.3559653,42.5388498 L55.4630515,42.481729 L55.6843627,42.8672945 L55.7878793,42.8101737 L56.0127601,43.1957393 L56.1162767,43.1350484 L56.3411575,43.524184 L56.4446741,43.4634931 L56.6659854,43.8526287 L56.7730715,43.7919379 L56.9943827,44.1775034 L57.1014688,44.1203826 L57.3227801,44.5059482 L57.4262967,44.4488274 L57.6511775,44.8343929 L57.7546941,44.773702 L57.9795749,45.1628377 L58.0830915,45.1021468 L58.3044027,45.4948525 L58.4114888,45.4305915 L58.6328001,45.8161571 L58.7398862,45.7590363 L58.9611975,46.1446018 L59.0647141,46.087481 L59.2895949,46.4766166 L59.3931115,46.4123557 L59.6179923,46.8014913 L59.7215088,46.7443705 L59.9428201,47.1299361 L60.0499062,47.0728152 L60.2712175,47.4583808 L60.3783036,47.40126 L60.6031844,47.7868255 L60.7031315,47.7261347 L60.9280123,48.1152703 L61.0315289,48.0545794 L61.2564097,48.443715 L61.3599262,48.3830241 L61.5848071,48.7685897 L61.6883236,48.7114689 L61.9132044,49.0970344 L62.016721,49.0399136 L62.2416018,49.4254792 L62.3451184,49.3647883 L62.5699992,49.7539239 L62.6699462,49.6932331 L62.7449065,49.8181849 C62.1773502,49.968127 61.6276415,50.1466296 61.0850719,50.3465525 L61.0101116,50.2180306 L60.9065951,50.2787215 L60.6817142,49.8895859 L60.5781977,49.9538468 L60.3568864,49.5611411 L60.2533698,49.6254021 L60.028489,49.2326964 L59.9249724,49.2969573 L59.7000916,48.9078217 L59.5965751,48.9685126 L59.3716942,48.579377 L59.2681777,48.6400679 L59.0432969,48.2509322 L58.9397803,48.3151932 L58.718469,47.9224875 L58.6113829,47.9867484 L58.3900716,47.5940428 L58.2865551,47.6583037 L58.0616742,47.2691681 L57.9581577,47.3262889 L57.7332769,46.9407233 L57.6297603,47.0014142 L57.4048795,46.6122786 L57.3013629,46.6765395 L57.0800516,46.2838338 L56.9729655,46.3445247 L56.7516542,45.9553891 L56.6481377,46.01608 L56.4232569,45.6305144 L56.3197403,45.6876352 L56.0948595,45.3020697 L55.9913429,45.3591905 L55.7700316,44.9736249 L55.6629455,45.0343158 L55.4416342,44.6451802 L55.3345481,44.7058711 L55.1132368,44.3167354 L55.0097203,44.3774263 L54.7848395,43.9918608 L54.6813229,44.0489816 L54.4564421,43.663416 L54.3529255,43.7205368 L54.1280447,43.3349713 L54.0245281,43.3956622 L53.7996473,43.0065265 L53.6961307,43.0672174 L53.4712499,42.6780818 L53.3713029,42.7387727 L53.1428525,42.3532071 L53.0429055,42.4103279 L52.8144552,42.0247624 L52.7145081,42.0818832 L52.4896273,41.6963176 L52.3861107,41.7570085 L52.1612299,41.3678729 L52.0541438,41.4285638 L51.8328325,41.0394281 L51.729316,41.100119 L51.5044351,40.7145534 L51.4009186,40.7716743 L51.1760378,40.3861087 L51.0725212,40.4396595 L50.8512099,40.057664 L50.7441238,40.1183548 L50.5228125,39.7292192 L50.4157264,39.7899101 L50.1944151,39.4007745 L50.0908986,39.4578953 L49.8660178,39.0758998 L48.0812494,40.1040746 L49.1663885,41.9783517 L49.2699051,41.9212309 L49.4947859,42.3067964 L49.5983025,42.2461056 L49.8196138,42.6352412 L49.9266999,42.5745503 L50.1480112,42.9636859 L50.2550973,42.902995 L50.4764086,43.2885606 L50.5799251,43.2314398 L50.8048059,43.6170053 L50.9083225,43.5598845 L51.1332033,43.9454501 L51.2367199,43.8847592 L51.4580312,44.2738948 L51.5651173,44.213204 L51.7864286,44.6023396 L51.8935147,44.5416487 L52.1183955,44.9272143 L52.2183425,44.8700934 L52.4432233,45.2592291 L52.5467399,45.1949681 L52.7751902,45.5841037 L52.8751373,45.5234129 L53.1000181,45.9161185 L53.2035347,45.8518576 L53.4284155,46.2409932 L53.531932,46.1803023 L53.7568129,46.569438 L53.8567599,46.5087471 L54.0852103,46.8978827 L54.1851573,46.8336218 L54.4136076,47.2263274 L54.5171242,47.1620665 L54.7384355,47.5547722 L54.8455216,47.4905113 L55.0668329,47.8796469 L55.173919,47.818956 L55.3952303,48.2080916 L55.4987468,48.1474007 L55.7236276,48.5365364 L55.8271442,48.4722754 L56.052025,48.8649811 L56.1555416,48.8007202 L56.3768529,49.1934258 L56.483939,49.1291649 L56.7052503,49.5183005 L56.8123364,49.4576097 L57.0336476,49.8467453 L57.1371642,49.7860544 L57.362045,50.17519 L57.4655616,50.1109291 L57.6904424,50.5036348 L57.793959,50.4393738 L58.0152703,50.8320795 L58.1223564,50.7713886 L58.3436676,51.1569542 L58.4471842,51.0998334 L58.6470783,51.4425583 C58.1830385,51.699602 57.7332769,51.974496 57.2977934,52.2672402 L57.115747,51.9530757 L57.0122304,52.0101965 L56.7909191,51.6246309 L56.683833,51.6817518 L56.4625218,51.2961862 L56.3590052,51.3568771 L56.1341244,50.9677415 L56.0306078,51.0248623 L55.805727,50.6392967 L55.7022104,50.6999876 L55.4737601,50.310852 L55.373813,50.3715428 L55.1525018,49.9824072 L55.0454156,50.0430981 L54.8205348,49.6575325 L54.7205878,49.7146534 L54.495707,49.3290878 L54.3921904,49.3862086 L54.1673096,49.0006431 L54.063793,49.0613339 L53.8353427,48.6721983 L53.7353956,48.7328892 L53.5105148,48.3437536 L53.4069983,48.4044445 L53.1821174,48.0188789 L53.0821704,48.0759997 L52.8537201,47.6904341 L52.753773,47.747555 L52.5253227,47.3619894 L52.4218061,47.4226803 L52.2004948,47.0335447 L52.0934087,47.0942355 L51.8720974,46.7050999 L51.7650113,46.7657908 L51.5437001,46.3802252 L51.4401835,46.4373461 L51.2153027,46.0517805 L51.1117861,46.1089013 L50.8869053,45.7233357 L50.7833887,45.7840266 L50.5620774,45.394891 L50.4549913,45.4555819 L50.23368,45.0664463 L50.1265939,45.1271371 L49.9052827,44.7380015 L49.8017661,44.7986924 L49.5768853,44.4131268 L49.4733687,44.4702477 L49.2484879,44.0846821 L49.1449713,44.145373 L48.92366,43.7526673 L48.8165739,43.8169282 L48.5952627,43.4277926 L48.4881766,43.4884835 L48.2668653,43.1029179 L48.1633487,43.1600387 L47.9384679,42.7709031 L47.8349513,42.831594 L47.6100705,42.4424584 L47.5065539,42.5067193 L47.2852427,42.1140137 L47.1781566,42.1782746 L46.9568453,41.7855689 L46.8497592,41.8498298 L46.6284479,41.4606942 L46.5249313,41.5213851 L46.3000505,41.1322495 L44.5152821,42.1639944 L45.5968518,44.0382714 L45.7003683,43.9811506 L45.9288187,44.3667162 L46.0287657,44.3060253 L46.250077,44.6951609 L46.3571631,44.63447 L46.5820439,45.0236056 L46.68913,44.9629148 L46.9104413,45.3484803 L47.0103883,45.2913595 L47.2388387,45.6769251 L47.3387857,45.6198043 L47.5672361,46.0053698 L47.6707526,45.9446789 L47.8920639,46.3338146 L47.9955805,46.2731237 L48.2204613,46.6622593 L48.3275474,46.6015684 L48.5488587,46.987134 L48.6523752,46.9300132 L48.8772561,47.3155787 L48.9807726,47.2584579 L49.2056535,47.6440235 L49.30917,47.5833326 L49.5304813,47.9724682 L49.6375674,47.9117773 L49.8588787,48.300913 L49.9659648,48.2402221 L50.1872761,48.6257876 L50.2907926,48.5686668 L50.5156735,48.9542324 L50.61919,48.8971116 L50.8440708,49.2826771 L50.9475874,49.2219863 L51.1688987,49.6146919 L51.2759848,49.550431 L51.4972961,49.9395666 L51.6043822,49.8824458 L51.8256935,50.2644413 L51.92921,50.2108905 L52.1540908,50.5964561 L52.2576074,50.5357652 L52.4824882,50.9249008 L52.5860048,50.86421 L52.8073161,51.2533456 L52.9144022,51.1926547 L53.1357135,51.5817903 L53.2427996,51.5210994 L53.4641108,51.906665 L53.5676274,51.8495442 L53.7925082,52.2315397 L53.8960248,52.1779889 L54.1209056,52.5635545 L54.2244222,52.5028636 L54.4457335,52.8919992 L54.5528196,52.8313084 L54.7741309,53.220444 L54.8776474,53.1597531 L55.1025282,53.5453187 L55.2060448,53.4881978 L55.3702435,53.7702319 C54.9954421,54.1022467 54.6313494,54.4449716 54.2815348,54.8055468 L54.203005,54.6698849 L54.0994884,54.7270057 L53.8746076,54.3378701 L53.771091,54.402131 L53.5462102,54.0094254 L53.4426936,54.0736863 L53.2213823,53.6809806 L53.1142962,53.7452415 L52.892985,53.3561059 L52.7894684,53.4167968 L52.5645876,53.0276612 L52.461071,53.0883521 L52.2361902,52.6992164 L52.1326736,52.7634774 L51.9077928,52.3707717 L51.8042762,52.4350326 L51.582965,52.042327 L51.4758789,52.1065879 L51.2545676,51.7174523 L51.151051,51.7781431 L50.9261702,51.3890075 L50.8226536,51.4496984 L50.5977728,51.0605628 L50.4942562,51.1248237 L50.2693754,50.7321181 L50.1658589,50.7928089 L49.9445476,50.4036733 L49.8374615,50.4643642 L49.6161502,50.0787986 L49.5126336,50.1359194 L49.2877528,49.7503539 L49.1842362,49.8074747 L48.9557859,49.4219091 L48.8558388,49.4826 L48.630958,49.0934644 L48.5274415,49.1541553 L48.3025606,48.7650197 L48.1990441,48.8257105 L47.9741633,48.440145 L47.8742162,48.4972658 L47.6457659,48.1117002 L47.5458188,48.1723911 L47.3173685,47.7832555 L47.2174215,47.8439464 L46.9925406,47.4548107 L46.8890241,47.5155016 L46.6641433,47.1299361 L46.5606267,47.1870569 L46.3357459,46.8014913 L46.2357988,46.8586121 L46.0073485,46.4730466 L45.9074015,46.5337374 L45.6789511,46.1446018 L45.5754345,46.2052927 L45.3541233,45.8161571 L45.2470371,45.876848 L45.0257259,45.4912824 L44.9186398,45.5484032 L44.6973285,45.1628377 L44.5938119,45.2199585 L44.3689311,44.8343929 L44.2654145,44.8950838 L44.0405337,44.5059482 L43.9370171,44.563069 L43.7157059,44.1775034 L43.6086198,44.2381943 L43.3873085,43.8526287 L43.2802224,43.9097496 L43.0589111,43.524184 L42.9553945,43.5777348 L42.7305137,43.1957393 L40.9457453,44.2239141 L42.0308845,46.0981912 L42.1344011,46.0410703 L42.3592819,46.4266359 L42.4627984,46.3695151 L42.6841097,46.7550806 L42.7911958,46.6943898 L43.0125071,47.0870954 L43.1195932,47.0228345 L43.3409045,47.4119701 L43.4444211,47.3512792 L43.6693019,47.7368448 L43.7728185,47.679724 L43.9976993,48.0688596 L44.1012158,48.0081687 L44.3225271,48.3973043 L44.4296132,48.3330434 L44.6509245,48.722179 L44.7580106,48.6614882 L44.9793219,49.0541938 L45.0828385,48.9899329 L45.3077193,49.3790685 L45.4112358,49.3183776 L45.6361167,49.7075133 L45.7396332,49.6468224 L45.9609445,50.035958 L46.0680306,49.9716971 L46.2893419,50.3644027 L46.396428,50.3001418 L46.6177393,50.6928475 L46.7212558,50.6285866 L46.9461367,51.0177222 L47.0496532,50.9570313 L47.274534,51.3461669 L47.3780506,51.285476 L47.5993619,51.6746117 L47.706448,51.6103507 L47.9277593,52.0030564 L48.0348454,51.9423655 L48.2561567,52.3315011 L48.3596732,52.2672402 L48.5881236,52.6563758 L48.6880706,52.595685 L48.916521,52.9848206 L49.016468,52.9276997 L49.2377793,53.3132653 L49.3448654,53.2490044 L49.5697462,53.64171 L49.6696932,53.5774491 L49.8981436,53.9701548 L49.9980906,53.9094639 L50.226541,54.2950295 L50.3300575,54.2379087 L50.5549384,54.6234742 L50.6584549,54.5663534 L50.8797662,54.951919 L50.9832828,54.8912281 L51.2081636,55.2803637 L51.3116802,55.2196728 L51.536561,55.6088084 L51.6400775,55.5481176 L51.8649584,55.9336831 L51.9684749,55.8765623 L52.1933557,56.2621279 L52.2968723,56.205007 L52.5181836,56.5905726 L52.6252697,56.5298817 L52.7145081,56.686964 C52.4539319,57.0439692 52.2076339,57.4081144 51.9720445,57.7865399 L51.875667,57.725849 L51.9327796,57.6223175 L51.5472696,57.3974043 L51.6043822,57.2938728 L51.2188722,57.0725296 L51.2795543,56.965428 L50.8904748,56.7440848 L50.9511569,56.6405533 L49.6161502,55.8694222 C49.5768853,55.8337217 49.5411899,55.7944511 49.5054945,55.7587506 C49.3984084,55.648079 49.2913223,55.5374074 49.1770972,55.4338759 C49.0735806,55.3196343 48.962925,55.2089627 48.8486998,55.1054312 C48.7451832,54.9947596 48.6345276,54.8805179 48.5203024,54.7805565 C48.4167858,54.6663148 48.3096997,54.5556432 48.191905,54.4485417 C48.0883884,54.3378701 47.9777328,54.2271985 47.8670772,54.120097 C47.7599911,54.0094254 47.6493354,53.8987538 47.5386798,53.7952223 C47.4351632,53.6774106 47.320938,53.570309 47.2102824,53.4667775 C47.1067658,53.3561059 46.9925406,53.2418643 46.881885,53.1383328 C46.7783684,53.0240911 46.6712823,52.9169896 46.5534876,52.809888 C46.449971,52.6992164 46.3393154,52.5885448 46.2286598,52.4850134 C46.1215737,52.3707717 46.010918,52.2601001 45.9002624,52.1565686 C45.7967458,52.0387569 45.6825206,51.9316554 45.5682955,51.8281239 C45.4683484,51.7138822 45.3576928,51.6032106 45.2434676,51.4996791 C45.139951,51.3890075 45.0292954,51.2783359 44.9150702,51.1712344 C44.8115537,51.0569927 44.700898,50.9498912 44.5902424,50.8463597 C44.4795867,50.728548 44.3725006,50.6214465 44.261845,50.517915 C44.1583284,50.4036733 44.0441032,50.2930017 43.9334476,50.1894702 C43.829931,50.0752286 43.7192754,49.964557 43.6050502,49.8610255 C43.4979641,49.7467838 43.390878,49.6396823 43.2766528,49.5325807 C43.1695667,49.4183391 43.0624806,49.3076675 42.951825,49.207706 C42.8411693,49.0898943 42.7340832,48.9827928 42.6234276,48.8792613 C42.5163415,48.7650197 42.4056859,48.650778 42.2914607,48.5472465 C42.1879441,48.4365749 42.080858,48.3259033 41.9666328,48.2223718 C41.8595467,48.1081302 41.7524606,47.9974586 41.6382354,47.890357 C41.5311493,47.7796854 41.4240632,47.6725839 41.3134076,47.5690524 C41.2063215,47.4512407 41.0956659,47.3405691 40.9814407,47.2406077 C40.8779241,47.126366 40.7672685,47.0121244 40.6566128,46.9121629 C40.5495267,46.7979213 40.4424406,46.6836796 40.3246459,46.5801481 C40.2211293,46.4694765 40.1140432,46.362375 40.0033876,46.2552734 C39.892732,46.1410318 39.7856459,46.0303602 39.6714207,45.9268287 C39.5643346,45.812587 39.4572485,45.7019154 39.3465928,45.601954 C39.2395067,45.4877123 39.1288511,45.3734707 39.0146259,45.2699392 C37.4011953,43.524184 34.7454599,43.0529372 32.5965987,44.2917451 C30.1122011,45.7269058 29.2626514,48.9113918 30.6976052,51.3961476 C30.9724595,51.8745345 31.3187046,52.2922306 31.7042146,52.6420956 C31.8148702,52.7634774 31.9255258,52.874149 32.039751,52.9776805 C32.1432676,53.0883521 32.2503537,53.1990237 32.3610093,53.2989851 C32.4680954,53.4167968 32.5751815,53.5274684 32.6929762,53.6309999 C32.7964928,53.7452415 32.9035789,53.8523431 33.0178041,53.9558746 C33.1248902,54.0736863 33.2319763,54.1843579 33.349771,54.2843193 C33.4568571,54.402131 33.5603737,54.5092326 33.6745989,54.6127641 C33.7781154,54.7234357 33.8887711,54.8376773 33.9994267,54.9376388 C34.1065128,55.0554505 34.2135989,55.162552 34.3313936,55.2696535 C34.4349102,55.3838952 34.5455658,55.4945668 34.659791,55.6016683 C34.7668771,55.7123399 34.8739632,55.8230115 34.9846189,55.922973 C35.0274533,55.9693836 35.0738573,56.0157943 35.1166917,56.0586349 L34.1136519,56.0586349 L34.1136519,58.1185547 L34.4420493,58.1185547 L34.4420493,58.4469994 L34.7740162,58.4469994 L34.7740162,58.7754442 L35.098844,58.7754442 L35.098844,59.1003188 L35.4272414,59.1003188 L35.4272414,59.4323336 L35.7556388,59.4323336 L35.7556388,59.7607784 L36.0840362,59.7607784 L36.0840362,60.0856531 L36.4124336,60.0856531 L36.4124336,60.4140978 L36.7372614,60.4140978 L36.7372614,60.7425425 L37.0656588,60.7425425 L37.0656588,61.0709873 L37.3940562,61.0709873 L37.3940562,61.399432 L37.7224536,61.399432 L37.7224536,61.7243067 L38.050851,61.7243067 L38.050851,62.0527515 L38.3756788,62.0527515 L38.3756788,62.3811962 L38.7040762,62.3811962 L38.7040762,62.7096409 L39.0324736,62.7096409 L39.0324736,63.0380857 L39.360871,63.0380857 L39.360871,63.3629604 L39.6892684,63.3629604 L39.6892684,63.6914051 L40.0140962,63.6914051 L40.0140962,64.0198499 L40.3424936,64.0198499 L40.3424936,64.3518646 L40.670891,64.3518646 L40.670891,64.6767393 L40.9992884,64.6767393 L40.9992884,65.001614 L41.3276857,65.001614 L41.3276857,65.3336288 L41.6525136,65.3336288 L41.6525136,65.6620736 L41.980911,65.6620736 L41.980911,65.9869482 L42.3093084,65.9869482 L42.3093084,66.318963 L42.6377058,66.318963 L42.6377058,66.6438377 L42.9661031,66.6438377 L42.9661031,66.9687124 L43.290931,66.9687124 L43.290931,67.3007272 L43.6193284,67.3007272 L43.6193284,67.629172 L43.9477258,67.629172 L43.9477258,67.9576167 L44.2761231,67.9576167 L44.2761231,68.2824914 L44.6045205,68.2824914 L44.6045205,68.6109361 L44.9293484,68.6109361 L44.9293484,68.9393809 L45.2577458,68.9393809 L45.2577458,69.2678256 L45.5861431,69.2678256 L45.5861431,69.5927003 L45.9145405,69.5927003 L45.9145405,69.921145 L46.2429379,69.921145 L46.2429379,70.2495898 L46.5677658,70.2495898 L46.5677658,70.5780345 L46.8997327,70.5780345 L46.8997327,70.9064793 L47.2281301,70.9064793 L47.2281301,71.231354 L47.5565275,71.231354 L47.5565275,71.5597987 L47.8849248,71.5597987 L47.8849248,71.8882434 L48.2097527,71.8882434 L48.2097527,72.2166882 L48.5381501,72.2166882 L48.5381501,72.5451329 L48.8665475,72.5451329 L48.8665475,72.8700076 L49.1949448,72.8700076 L49.1949448,73.1984523 L49.5233422,73.1984523 L49.5233422,73.5268971 L49.8481701,73.5268971 L49.8481701,73.8553418 L50.1765675,73.8553418 L50.1765675,74.1837866 L50.5049648,74.1837866 L50.5049648,74.5086613 L50.6584549,74.5086613 C50.6727331,74.5443618 50.6905808,74.5729222 50.7048589,74.6050526 L50.3764615,74.6050526 L50.3764615,74.2766079 L50.0480641,74.2766079 L50.0480641,73.9481632 L49.7196668,73.9481632 L49.7196668,73.6197184 L49.3912694,73.6197184 L49.3912694,73.2948437 L49.0664415,73.2948437 L49.0664415,72.966399 L48.7380441,72.966399 L48.7380441,72.6379543 L48.4096467,72.6379543 L48.4096467,72.3095095 L48.0812494,72.3095095 L48.0812494,71.9810648 L47.752852,71.9810648 L47.752852,71.6561901 L47.4280241,71.6561901 L47.4280241,71.3241753 L47.0996267,71.3241753 L47.0996267,70.9993006 L46.7712294,70.9993006 L46.7712294,70.6672858 L46.442832,70.6672858 L46.442832,70.3388411 L46.1144346,70.3388411 L46.1144346,70.0139664 L45.7896067,70.0139664 L45.7896067,69.6855216 L45.4612094,69.6855216 L45.4612094,69.3570769 L45.132812,69.3570769 L45.132812,69.0286322 L44.8044146,69.0286322 L44.8044146,68.7001874 L44.4760172,68.7001874 L44.4760172,68.3753127 L44.1476198,68.3753127 L44.1476198,68.046868 L43.8192224,68.046868 L43.8192224,67.7184232 L43.490825,67.7184232 L43.490825,67.3899785 L43.1624277,67.3899785 L43.1624277,67.0651038 L42.8340303,67.0651038 L42.8340303,66.7366591 L42.5092024,66.7366591 L42.5092024,66.4082143 L42.180805,66.4082143 L42.180805,66.0797696 L41.8524077,66.0797696 L41.8524077,65.7513248 L41.5240103,65.7513248 L41.5240103,65.4264502 L41.1956129,65.4264502 L41.1956129,65.0980054 L40.870785,65.0980054 L40.870785,64.7695607 L40.5423877,64.7695607 L40.5423877,64.4411159 L40.2139903,64.4411159 L40.2139903,64.1126712 L39.8855929,64.1126712 L39.8855929,63.7877965 L39.5571955,63.7877965 L39.5571955,63.4593518 L39.2323676,63.4593518 L39.2323676,63.130907 L38.9039703,63.130907 L38.9039703,62.8024623 L38.5755729,62.8024623 L38.5755729,62.4740175 L38.2471755,62.4740175 L38.2471755,62.1491429 L37.9223476,62.1491429 L37.9223476,61.8206981 L37.5939503,61.8206981 L37.5939503,61.4922534 L37.2655529,61.4922534 L37.2655529,61.1638086 L36.9371555,61.1638086 L36.9371555,60.8353639 L36.6087581,60.8353639 L36.6087581,60.5104892 L36.2839303,60.5104892 L36.2839303,60.1820445 L34.1136519,60.1820445 L34.1136519,62.2383941 L34.4420493,62.2383941 L34.4420493,62.5668389 L34.7740162,62.5668389 L34.7740162,62.8988537 L35.098844,62.8988537 L35.098844,63.2201583 L35.4272414,63.2201583 L35.4272414,63.5521731 L35.7556388,63.5521731 L35.7556388,63.8806178 L36.0840362,63.8806178 L36.0840362,64.2054925 L36.4124336,64.2054925 L36.4124336,64.5339373 L36.7372614,64.5339373 L36.7372614,64.862382 L37.0656588,64.862382 L37.0656588,65.1908268 L37.3940562,65.1908268 L37.3940562,65.5192715 L37.7224536,65.5192715 L37.7224536,65.8477162 L38.050851,65.8477162 L38.050851,66.1725909 L38.3756788,66.1725909 L38.3756788,66.5010357 L38.7040762,66.5010357 L38.7040762,66.8294804 L39.0324736,66.8294804 L39.0324736,67.1579252 L39.360871,67.1579252 L39.360871,67.4863699 L39.6892684,67.4863699 L39.6892684,67.8112446 L40.0140962,67.8112446 L40.0140962,68.1396893 L40.3424936,68.1396893 L40.3424936,68.4681341 L40.670891,68.4681341 L40.670891,68.7965788 L40.9992884,68.7965788 L40.9992884,69.1250235 L41.3276857,69.1250235 L41.3276857,69.4498982 L41.6525136,69.4498982 L41.6525136,69.778343 L41.980911,69.778343 L41.980911,70.1067877 L42.3093084,70.1067877 L42.3093084,70.4352325 L42.6377058,70.4352325 L42.6377058,70.7672473 L42.9661031,70.7672473 L42.9661031,71.0921219 L43.290931,71.0921219 L43.290931,71.4205667 L43.6193284,71.4205667 L43.6193284,71.7490114 L43.9477258,71.7490114 L43.9477258,72.0774562 L44.2761231,72.0774562 L44.2761231,72.4059009 L44.6045205,72.4059009 L44.6045205,72.7307756 L44.9293484,72.7307756 L44.9293484,73.0592203 L45.2577458,73.0592203 L45.2577458,73.3876651 L45.5861431,73.3876651 L45.5861431,73.7161098 L45.9145405,73.7161098 L45.9145405,74.0445546 L46.2429379,74.0445546 L46.2429379,74.3694292 L46.5677658,74.3694292 L46.5677658,74.697874 L46.8997327,74.697874 L46.8997327,75.0263187 L47.2281301,75.0263187 L47.2281301,75.3547635 L47.5565275,75.3547635 L47.5565275,75.6832082 L47.8849248,75.6832082 L47.8849248,76.0080829 L48.2097527,76.0080829 L48.2097527,76.3365276 L48.5381501,76.3365276 L48.5381501,76.6649724 L48.8665475,76.6649724 L48.8665475,76.847045 L48.7380441,76.918446 L48.7380441,76.7542237 L48.4096467,76.7542237 L48.4096467,76.432919 L48.0812494,76.432919 L48.0812494,76.1044743 L47.752852,76.1044743 L47.752852,75.7724595 L47.4280241,75.7724595 L47.4280241,75.4475848 L47.0996267,75.4475848 L47.0996267,75.1191401 L46.7712294,75.1191401 L46.7712294,74.7906953 L46.442832,74.7906953 L46.442832,74.4622506 L46.1144346,74.4622506 L46.1144346,74.1338058 L45.7896067,74.1338058 L45.7896067,73.8053611 L45.4612094,73.8053611 L45.4612094,73.4769164 L45.132812,73.4769164 L45.132812,73.1520417 L44.8044146,73.1520417 L44.8044146,72.8235969 L44.4760172,72.8235969 L44.4760172,72.4951522 L44.1476198,72.4951522 L44.1476198,72.1667075 L43.8192224,72.1667075 L43.8192224,71.8382627 L43.490825,71.8382627 L43.490825,71.513388 L43.1624277,71.513388 L43.1624277,71.1849433 L42.8340303,71.1849433 L42.8340303,70.8564985 L42.5092024,70.8564985 L42.5092024,70.5280538 L42.180805,70.5280538 L42.180805,70.1996091 L41.8524077,70.1996091 L41.8524077,69.8747344 L41.5240103,69.8747344 L41.5240103,69.5462896 L41.1956129,69.5462896 L41.1956129,69.2178449 L40.870785,69.2178449 L40.870785,68.8894001 L40.5423877,68.8894001 L40.5423877,68.5609554 L40.2139903,68.5609554 L40.2139903,68.2360807 L39.8855929,68.2360807 L39.8855929,67.907636 L39.5571955,67.907636 L39.5571955,67.5791912 L39.2323676,67.5791912 L39.2323676,67.2507465 L38.9039703,67.2507465 L38.9039703,66.9223018 L38.5755729,66.9223018 L38.5755729,66.5974271 L38.2471755,66.5974271 L38.2471755,66.2689823 L37.9223476,66.2689823 L37.9223476,65.9405376 L37.5939503,65.9405376 L37.5939503,65.6120928 L37.2655529,65.6120928 L37.2655529,65.2836481 L36.9371555,65.2836481 L36.9371555,64.9587734 L36.6087581,64.9587734 L36.6087581,64.6303287 L36.2839303,64.6303287 L36.2839303,64.3018839 L34.1136519,64.3018839 L34.1136519,66.3582336 L34.4420493,66.3582336 L34.4420493,66.6902484 L34.7740162,66.6902484 L34.7740162,67.0186931 L35.098844,67.0186931 L35.098844,67.3435678 L35.4272414,67.3435678 L35.4272414,67.6720126 L35.7556388,67.6720126 L35.7556388,68.0004573 L36.0840362,68.0004573 L36.0840362,68.3289021 L36.4124336,68.3289021 L36.4124336,68.6573468 L36.7372614,68.6573468 L36.7372614,68.9857915 L37.0656588,68.9857915 L37.0656588,69.3106662 L37.3940562,69.3106662 L37.3940562,69.639111 L37.7224536,69.639111 L37.7224536,69.9675557 L38.050851,69.9675557 L38.050851,70.2960004 L38.3756788,70.2960004 L38.3756788,70.6244452 L38.7040762,70.6244452 L38.7040762,70.9493199 L39.0324736,70.9493199 L39.0324736,71.2777646 L39.360871,71.2777646 L39.360871,71.6062094 L39.6892684,71.6062094 L39.6892684,71.9346541 L40.0140962,71.9346541 L40.0140962,72.2630988 L40.3424936,72.2630988 L40.3424936,72.5879735 L40.670891,72.5879735 L40.670891,72.9164183 L40.9992884,72.9164183 L40.9992884,73.244863 L41.3276857,73.244863 L41.3276857,73.5733078 L41.6525136,73.5733078 L41.6525136,73.9017525 L41.980911,73.9017525 L41.980911,74.2301972 L42.3093084,74.2301972 L42.3093084,74.558642 L42.6377058,74.558642 L42.6377058,74.8835167 L42.9661031,74.8835167 L42.9661031,75.2155315 L43.290931,75.2155315 L43.290931,75.5439762 L43.6193284,75.5439762 L43.6193284,75.8688509 L43.9477258,75.8688509 L43.9477258,76.1972956 L44.2761231,76.1972956 L44.2761231,76.5257404 L44.6045205,76.5257404 L44.6045205,76.8541851 L44.9293484,76.8541851 L44.9293484,77.1790598 L45.2577458,77.1790598 L45.2577458,77.5075045 L45.5861431,77.5075045 L45.5861431,77.8359493 L45.9145405,77.8359493 L45.9145405,78.164394 L46.2429379,78.164394 L46.2429379,78.3607469 L46.1144346,78.4357179 L46.1144346,78.2536453 L45.7896067,78.2536453 L45.7896067,77.9252006 L45.4612094,77.9252006 L45.4612094,77.6003259 L45.132812,77.6003259 L45.132812,77.2718811 L44.8044146,77.2718811 L44.8044146,76.9434364 L44.4760172,76.9434364 L44.4760172,76.6149917 L44.1476198,76.6149917 L44.1476198,76.2865469 L43.8192224,76.2865469 L43.8192224,75.9616722 L43.490825,75.9616722 L43.490825,75.6332275 L43.1624277,75.6332275 L43.1624277,75.3047828 L42.8340303,75.3047828 L42.8340303,74.976338 L42.5092024,74.976338 L42.5092024,74.6514633 L42.180805,74.6514633 L42.180805,74.3230186 L41.8524077,74.3230186 L41.8524077,73.9945738 L41.5240103,73.9945738 L41.5240103,73.6661291 L41.1956129,73.6661291 L41.1956129,73.3376844 L40.870785,73.3376844 L40.870785,73.0128097 L40.5423877,73.0128097 L40.5423877,72.6843649 L40.2139903,72.6843649 L40.2139903,72.3559202 L39.8855929,72.3559202 L39.8855929,72.0274754 L39.5571955,72.0274754 L39.5571955,71.6990307 L39.2323676,71.6990307 L39.2323676,71.374156 L38.9039703,71.374156 L38.9039703,71.0457113 L38.5755729,71.0457113 L38.5755729,70.7172665 L38.2471755,70.7172665 L38.2471755,70.3888218 L37.9223476,70.3888218 L37.9223476,70.060377 L37.5939503,70.060377 L37.5939503,69.7355024 L37.2655529,69.7355024 L37.2655529,69.4070576 L36.9371555,69.4070576 L36.9371555,69.0786129 L36.6087581,69.0786129 L36.6087581,68.7501681 L36.2839303,68.7501681 L36.2839303,68.4217234 L34.1136519,68.4217234 L34.1136519,70.4816431 L34.4420493,70.4816431 L34.4420493,70.8065178 L34.7740162,70.8065178 L34.7740162,71.1349626 L35.098844,71.1349626 L35.098844,71.4669774 L35.4272414,71.4669774 L35.4272414,71.791852 L35.7556388,71.791852 L35.7556388,72.1202968 L36.0840362,72.1202968 L36.0840362,72.4487415 L36.4124336,72.4487415 L36.4124336,72.7736162 L36.7372614,72.7736162 L36.7372614,73.105631 L37.0656588,73.105631 L37.0656588,73.4340757 L37.3940562,73.4340757 L37.3940562,73.7589504 L37.7224536,73.7589504 L37.7224536,74.0873952 L38.050851,74.0873952 L38.050851,74.4158399 L38.3756788,74.4158399 L38.3756788,74.7442847 L38.7040762,74.7442847 L38.7040762,75.0727294 L39.0324736,75.0727294 L39.0324736,75.3976041 L39.360871,75.3976041 L39.360871,75.7260488 L39.6892684,75.7260488 L39.6892684,76.0544936 L40.0140962,76.0544936 L40.0140962,76.3829383 L40.3424936,76.3829383 L40.3424936,76.7113831 L40.670891,76.7113831 L40.670891,77.0362577 L40.9992884,77.0362577 L40.9992884,77.3647025 L41.3276857,77.3647025 L41.3276857,77.6931472 L41.6525136,77.6931472 L41.6525136,78.021592 L41.980911,78.021592 L41.980911,78.3536068 L42.3093084,78.3536068 L42.3093084,78.6749114 L42.6377058,78.6749114 L42.6377058,79.0033561 L42.9661031,79.0033561 L42.9661031,79.3353709 L43.290931,79.3353709 L43.290931,79.6638157 L43.6193284,79.6638157 L43.6193284,79.9886904 L43.9477258,79.9886904 L43.9477258,80.3171351 L44.2761231,80.3171351 L44.2761231,80.6455798 L44.6045205,80.6455798 L44.6045205,80.9740246 L44.9293484,80.9740246 L44.9293484,81.3024693 L45.2577458,81.3024693 L45.2577458,81.6309141 L45.5861431,81.6309141 L45.5861431,81.9557888 L45.9145405,81.9557888 L45.9145405,82.2842335 L46.2429379,82.2842335 L46.2429379,82.6126782 L46.5677658,82.6126782 L46.5677658,82.941123 L46.8997327,82.941123 L46.8997327,83.2695677 L47.2281301,83.2695677 L47.2281301,83.5944424 L47.5565275,83.5944424 L47.5565275,83.9228872 L47.8849248,83.9228872 L47.8849248,84.2513319 L48.2097527,84.2513319 L48.2097527,84.5797766 L48.5381501,84.5797766 L48.5381501,84.9082214 L48.8665475,84.9082214 L48.8665475,85.2330961 L49.1949448,85.2330961 L49.1949448,85.5615408 L49.5233422,85.5615408 L49.5233422,85.8899855 L49.8481701,85.8899855 L49.8481701,86.2184303 L50.1765675,86.2184303 L50.1765675,86.546875 L50.5049648,86.546875 L50.5049648,86.8717497 L50.8333622,86.8717497 L50.8333622,87.2001945 L51.1581901,87.2001945 L51.1581901,87.5286392 L51.4865875,87.5286392 L51.4865875,87.8570839 L51.8149848,87.8570839 L51.8149848,88.1855287 L52.1433822,88.1855287 L52.1433822,88.5104034 L52.4717796,88.5104034 L52.4717796,88.8388481 L52.7966075,88.8388481 L52.7966075,89.1672929 L53.1250049,89.1672929 L53.1250049,89.4957376 L53.4534022,89.4957376 L53.4534022,89.8241823 L53.7817996,89.8241823 L53.7817996,90.149057 L54.110197,90.149057 L54.110197,90.3097093 L53.9816937,90.2454484 L53.6532963,90.2454484 L53.6532963,89.9170037 L53.3248989,89.9170037 L53.3248989,89.5885589 L52.9965015,89.5885589 L52.9965015,89.2601142 L52.6681041,89.2601142 L52.6681041,88.9316695 L52.3432763,88.9316695 L52.3432763,88.6067948 L52.0148789,88.6067948 L52.0148789,88.27835 L51.6864815,88.27835 L51.6864815,87.9499053 L51.3580841,87.9499053 L51.3580841,87.6214605 L51.0296868,87.6214605 L51.0296868,87.2930158 L50.7048589,87.2930158 L50.7048589,86.9681411 L50.3764615,86.9681411 L50.3764615,86.6396964 L50.0480641,86.6396964 L50.0480641,86.3112516 L49.7196668,86.3112516 L49.7196668,85.9828069 L49.3912694,85.9828069 L49.3912694,85.6579322 L49.0664415,85.6579322 L49.0664415,85.3294875 L48.7380441,85.3294875 L48.7380441,85.0010427 L48.4096467,85.0010427 L48.4096467,84.672598 L48.0812494,84.672598 L48.0812494,84.3441532 L47.752852,84.3441532 L47.752852,84.0192785 L47.4280241,84.0192785 L47.4280241,83.6872637 L47.0996267,83.6872637 L47.0996267,83.358819 L46.7712294,83.358819 L46.7712294,83.0303743 L46.442832,83.0303743 L46.442832,82.7019295 L46.1144346,82.7019295 L46.1144346,82.3770548 L45.7896067,82.3770548 L45.7896067,82.0486101 L45.4612094,82.0486101 L45.4612094,81.7201654 L45.132812,81.7201654 L45.132812,81.3917206 L44.8044146,81.3917206 L44.8044146,81.0632759 L44.4760172,81.0632759 L44.4760172,80.7384012 L44.1476198,80.7384012 L44.1476198,80.4099564 L43.8192224,80.4099564 L43.8192224,80.0815117 L43.490825,80.0815117 L43.490825,79.753067 L43.1624277,79.753067 L43.1624277,79.4246222 L42.8340303,79.4246222 L42.8340303,79.0997475 L42.5092024,79.0997475 L42.5092024,78.7713028 L42.180805,78.7713028 L42.180805,78.442858 L41.8524077,78.442858 L41.8524077,78.1144133 L41.5240103,78.1144133 L41.5240103,77.7859686 L41.1956129,77.7859686 L41.1956129,77.4610939 L40.870785,77.4610939 L40.870785,77.1326491 L40.5423877,77.1326491 L40.5423877,76.8042044 L40.2139903,76.8042044 L40.2139903,76.4757597 L39.8855929,76.4757597 L39.8855929,76.1473149 L39.5571955,76.1473149 L39.5571955,75.8224402 L39.2323676,75.8224402 L39.2323676,75.4939955 L38.9039703,75.4939955 L38.9039703,75.1655507 L38.5755729,75.1655507 L38.5755729,74.837106 L38.2471755,74.837106 L38.2471755,74.5086613 L37.9223476,74.5086613 L37.9223476,74.1837866 L37.5939503,74.1837866 L37.5939503,73.8553418 L37.2655529,73.8553418 L37.2655529,73.5268971 L36.9371555,73.5268971 L36.9371555,73.1984523 L36.6087581,73.1984523 L36.6087581,72.8700076 L36.2839303,72.8700076 L36.2839303,72.5451329 L34.1136519,72.5451329 L34.1136519,74.6050526 L34.4420493,74.6050526 L34.4420493,74.9299273 L34.7740162,74.9299273 L34.7740162,75.254802 L35.098844,75.254802 L35.098844,75.5868168 L35.4272414,75.5868168 L35.4272414,75.9116915 L35.7556388,75.9116915 L35.7556388,76.2401363 L36.0840362,76.2401363 L36.0840362,76.572151 L36.4124336,76.572151 L36.4124336,76.8970257 L36.7372614,76.8970257 L36.7372614,77.2254705 L37.0656588,77.2254705 L37.0656588,77.5539152 L37.3940562,77.5539152 L37.3940562,77.88236 L37.7224536,77.88236 L37.7224536,78.2108047 L38.050851,78.2108047 L38.050851,78.5356794 L38.3756788,78.5356794 L38.3756788,78.8641241 L38.7040762,78.8641241 L38.7040762,79.1925689 L39.0324736,79.1925689 L39.0324736,79.5210136 L39.360871,79.5210136 L39.360871,79.8494584 L39.6892684,79.8494584 L39.6892684,80.174333 L40.0140962,80.174333 L40.0140962,80.5027778 L40.3424936,80.5027778 L40.3424936,80.8312225 L40.670891,80.8312225 L40.670891,81.1596673 L40.9992884,81.1596673 L40.9992884,81.3881506 L40.9457453,81.416711 L41.0421228,81.5809333 L40.870785,81.5809333 L40.870785,81.2524886 L40.5423877,81.2524886 L40.5423877,80.9240439 L40.2139903,80.9240439 L40.2139903,80.5991692 L39.8855929,80.5991692 L39.8855929,80.2707244 L39.5571955,80.2707244 L39.5571955,79.9422797 L39.2323676,79.9422797 L39.2323676,79.613835 L38.9039703,79.613835 L38.9039703,79.2853902 L38.5755729,79.2853902 L38.5755729,78.9605155 L38.2471755,78.9605155 L38.2471755,78.6320708 L37.9223476,78.6320708 L37.9223476,78.303626 L37.5939503,78.303626 L37.5939503,77.9751813 L37.2655529,77.9751813 L37.2655529,77.6467366 L36.9371555,77.6467366 L36.9371555,77.3218619 L36.6087581,77.3218619 L36.6087581,76.9934171 L36.2839303,76.9934171 L36.2839303,76.6649724 L34.1136519,76.6649724 L34.1136519,78.7213221 L34.4420493,78.7213221 L34.4420493,79.0497668 L34.7740162,79.0497668 L34.7740162,79.3782115 L35.098844,79.3782115 L35.098844,79.7066563 L35.4272414,79.7066563 L35.4272414,80.031531 L35.7556388,80.031531 L35.7556388,80.3599757 L36.0840362,80.3599757 L36.0840362,80.6919905 L36.4124336,80.6919905 L36.4124336,80.9383241 C35.1595262,80.6384397 33.7995326,80.791952 32.5965987,81.4916821 C30.1122011,82.9197027 29.2626514,86.1041886 30.6976052,88.5889445 C30.9724595,89.0709015 31.3187046,89.4885975 31.7077841,89.8384625 C31.8148702,89.9562742 31.9255258,90.0669458 32.039751,90.1704773 C32.1432676,90.2811489 32.2539232,90.3953906 32.3645789,90.4989221 C32.425261,90.563183 56.0877204,114.229055 75.8522456,134 C106.175461,130.187185 130.187735,106.167878 134,75.8402905 C124.101674,65.9405376 103.512586,45.3484803 103.423348,45.2699392 L103.423348,45.2699392 Z" id="Fill-4" fill="#E87E28"></path>
                <mask id="mask-4" fill="white">
                    <use xlink:href="#path-3"></use>
                </mask>
                <g id="Clip-7"></g>
                <polygon id="Fill-6" fill="#FFFFFF" mask="url(#mask-4)" points="65.786 67.606 68.214 67.606 68.214 66.394 65.786 66.394"></polygon>
                <path d="M66,40.0763695 L68.428,40.0763695 L68.428,38 L66,38 L66,40.0763695 Z M66,44.2291084 L68.428,44.2291084 L68.428,42.1527389 L66,42.1527389 L66,44.2291084 Z M66,48.3818473 L68.428,48.3818473 L68.428,46.3054778 L66,46.3054778 L66,48.3818473 Z M66,52.5381847 L68.428,52.5381847 L68.428,50.4654138 L66,50.4654138 L66,52.5381847 Z M66,56.6909236 L68.428,56.6909236 L68.428,54.6181527 L66,54.6181527 L66,56.6909236 Z M66,60.8436625 L68.428,60.8436625 L68.428,58.7708916 L66,58.7708916 L66,60.8436625 Z M66,65 L68.428,65 L68.428,62.9272291 L66,62.9272291 L66,65 Z" id="Fill-8" fill="#FFFFFF" mask="url(#mask-4)"></path>
                <polygon id="Fill-9" fill="#FFFFFF" mask="url(#mask-4)" points="65.786 68.608 68.214 68.608 68.214 67.392 65.786 67.392"></polygon>
                <path d="M66,73.0763695 L68.428,73.0763695 L68.428,71 L66,71 L66,73.0763695 Z M66,77.2327069 L68.428,77.2327069 L68.428,75.1563375 L66,75.1563375 L66,77.2327069 Z M66,81.3854458 L68.428,81.3854458 L68.428,79.3090764 L66,79.3090764 L66,81.3854458 Z M66,85.5381847 L68.428,85.5381847 L68.428,83.4618153 L66,83.4618153 L66,85.5381847 Z M66,89.6945222 L68.428,89.6945222 L68.428,87.6181527 L66,87.6181527 L66,89.6945222 Z M66,93.8472611 L68.428,93.8472611 L68.428,91.7708916 L66,91.7708916 L66,93.8472611 Z M66,98 L68.428,98 L68.428,95.9236305 L66,95.9236305 L66,98 Z" id="Fill-10" fill="#FFFFFF" mask="url(#mask-4)"></path>
                <path d="M63.235813,70.8548048 L62.1631873,69.0135609 L63.9273743,68 L65,69.8412439 L63.235813,70.8548048 Z M59.707439,72.8749123 L58.6348133,71.0336685 L60.3990003,70.0236147 L61.471626,71.8648585 L59.707439,72.8749123 Z M56.179065,74.9020341 L55.1099677,73.0607903 L56.8741547,72.0472294 L57.943252,73.8884732 L56.179065,74.9020341 Z M52.6542193,76.9221417 L51.5815936,75.0808978 L53.3457807,74.070844 L54.414878,75.9120879 L52.6542193,76.9221417 Z M49.1258453,78.9492635 L48.0532196,77.1080196 L49.8174066,76.0944587 L50.8900323,77.9392097 L49.1258453,78.9492635 Z M45.6009997,80.9728782 L44.528374,79.1281272 L46.292561,78.1180734 L47.3616583,79.9628244 L45.6009997,80.9728782 Z M42.0726257,83 L41,81.155249 L42.764187,80.1416881 L43.8368127,81.9864391 L42.0726257,83 Z" id="Fill-11" fill="#FFFFFF" mask="url(#mask-4)"></path>
                <polygon id="Fill-12" fill="#FFFFFF" mask="url(#mask-4)" points="67.1870715 69.656 66.7561214 68.892 66 68.444 66.2507346 68 66 67.556 66.7561214 67.112 67.1870715 66.344 70 68"></polygon>
                <path d="M42.764187,54.8519645 L41,53.8416745 L42.0726257,52 L43.8368127,53.01029 L42.764187,54.8519645 Z M46.292561,56.8760524 L44.528374,55.8657624 L45.6009997,54.0240879 L47.3651867,55.0378859 L46.292561,56.8760524 Z M49.8174066,58.9001403 L48.0532196,57.8898503 L49.1258453,56.0481759 L50.8900323,57.0584659 L49.8174066,58.9001403 Z M53.3457807,60.9242283 L51.5815936,59.9139383 L52.6542193,58.0722638 L54.4184064,59.0860617 L53.3457807,60.9242283 Z M56.8741547,62.9518241 L55.1099677,61.9415341 L56.179065,60.0928438 L57.943252,61.1066417 L56.8741547,62.9518241 Z M60.3990003,64.97942 L58.6383417,63.9656221 L59.707439,62.1204397 L61.471626,63.1307297 L60.3990003,64.97942 Z M63.9273743,67 L62.1631873,65.98971 L63.235813,64.1445276 L65,65.1583255 L63.9273743,67 Z" id="Fill-13" fill="#FFFFFF" mask="url(#mask-4)"></path>
                <path d="M92.2355536,54.8519645 L91.1627702,53.01029 L92.9272166,52 L94,53.8416745 L92.2355536,54.8519645 Z M88.7066608,56.8760524 L87.6338774,55.0378859 L89.3983238,54.0240879 L90.4711072,55.8657624 L88.7066608,56.8760524 Z M85.1812969,58.9001403 L84.1085135,57.0584659 L85.8729599,56.0481759 L86.9457433,57.8898503 L85.1812969,58.9001403 Z M81.6524041,60.9242283 L80.5796206,59.0825538 L82.344067,58.0722638 L83.4168505,59.9139383 L81.6524041,60.9242283 Z M78.1235112,62.9518241 L77.0542567,61.1066417 L78.8187031,60.0928438 L79.8879577,61.9415341 L78.1235112,62.9518241 Z M74.5981473,64.97942 L73.5253639,63.1307297 L75.2898103,62.1204397 L76.3625937,63.9656221 L74.5981473,64.97942 Z M71.0692545,67 L70,65.1583255 L71.7609175,64.1445276 L72.8337009,65.98971 L71.0692545,67 Z" id="Fill-14" fill="#FFFFFF" mask="url(#mask-4)"></path>
                <polygon id="Fill-15" fill="#FFFFFF" mask="url(#mask-4)" points="67.8101761 69.656 65 68 67.8101761 66.344 68.2407045 67.112 69 67.556 68.7455969 68 69 68.444 68.2407045 68.892"></polygon>
                <path d="M71.7611765,70.8548048 L70,69.8412439 L71.0694118,68 L72.8341176,69.0135609 L71.7611765,70.8548048 Z M75.2905882,72.8749123 L73.5258824,71.8648585 L74.5988235,70.0236147 L76.3635294,71.0371756 L75.2905882,72.8749123 Z M78.82,74.9020341 L77.0552941,73.8884732 L78.1247059,72.0472294 L79.8894118,73.0607903 L78.82,74.9020341 Z M82.3458824,76.9221417 L80.5811765,75.9120879 L81.6541176,74.070844 L83.4188235,75.0808978 L82.3458824,76.9221417 Z M85.8752941,78.9527706 L84.1105882,77.9392097 L85.1835294,76.0944587 L86.9447059,77.1080196 L85.8752941,78.9527706 Z M89.4011765,80.9728782 L87.6364706,79.9628244 L88.7094118,78.1180734 L90.4741176,79.1281272 L89.4011765,80.9728782 Z M92.9305882,83 L91.1658824,81.9864391 L92.2388235,80.1416881 L94,81.1587561 L92.9305882,83 Z" id="Fill-16" fill="#FFFFFF" mask="url(#mask-4)"></path>
                <path d="M42.8097208,91.8564865 L41,90.8445946 L42.1003102,89 L43.910031,90.0118919 L42.8097208,91.8564865 Z M46.4291624,93.8872973 L44.6194416,92.8718919 L45.7197518,91.0272973 L47.5258532,92.0427027 L46.4291624,93.8872973 Z M50.0449845,95.9110811 L48.2352637,94.8991892 L49.3355739,93.0545946 L51.1452947,94.07 L50.0449845,95.9110811 Z M53.6644261,97.9418919 L51.8547053,96.9264865 L52.9550155,95.0818919 L54.7611169,96.0972973 L53.6644261,97.9418919 Z M57.2838676,99.9691892 L55.4741468,98.9572973 L56.5708376,97.1091892 L58.3805584,98.1245946 L57.2838676,99.9691892 Z M60.8996898,102 L59.089969,100.984595 L60.1902792,99.1364865 L62,100.151892 L60.8996898,102 Z" id="Fill-17" fill="#FFFFFF" mask="url(#mask-4)"></path>
                <path d="M34,58.0872853 L36.428,58.0872853 L36.428,56 L34,56 L34,58.0872853 Z M34,62.2691035 L36.428,62.2691035 L36.428,60.1818182 L34,60.1818182 L34,62.2691035 Z M34,66.4509217 L36.428,66.4509217 L36.428,64.3636364 L34,64.3636364 L34,66.4509217 Z M34,70.6363636 L36.428,70.6363636 L36.428,68.5490783 L34,68.5490783 L34,70.6363636 Z M34,74.8218056 L36.428,74.8218056 L36.428,72.7308965 L34,72.7308965 L34,74.8218056 Z M34,79 L36.428,79 L36.428,76.9127147 L34,76.9127147 L34,79 Z" id="Fill-18" fill="#FFFFFF" mask="url(#mask-4)"></path>
                <path d="M60.1902792,35.86 L59.089969,34.0154054 L60.8996898,33 L62,34.8445946 L60.1902792,35.86 Z M56.5708376,37.8872973 L55.4741468,36.0427027 L57.2802482,35.0272973 L58.3805584,36.8718919 L56.5708376,37.8872973 Z M52.9550155,39.9145946 L51.8547053,38.07 L53.6644261,37.0545946 L54.7611169,38.8991892 L52.9550155,39.9145946 Z M49.3355739,41.9418919 L48.2352637,40.0972973 L50.0449845,39.0854054 L51.1452947,40.93 L49.3355739,41.9418919 Z M45.7161324,43.9727027 L44.6194416,42.1245946 L46.4291624,41.1091892 L47.5258532,42.9572973 L45.7161324,43.9727027 Z M42.1003102,46 L41,44.1518919 L42.8097208,43.14 L43.910031,44.9881081 L42.1003102,46 Z" id="Fill-19" fill="#FFFFFF" mask="url(#mask-4)"></path>
                <path d="M74.8100328,35.86 L73,34.8445946 L74.1004999,33 L75.9105327,34.0154054 L74.8100328,35.86 Z M78.4300983,37.8872973 L76.6200655,36.8718919 L77.7169454,35.0272973 L79.5269781,36.0427027 L78.4300983,37.8872973 Z M82.0465437,39.9145946 L80.2365109,38.8991892 L81.3370109,37.0545946 L83.1470436,38.07 L82.0465437,39.9145946 Z M85.6666092,41.9418919 L83.8565765,40.9264865 L84.9570764,39.0854054 L86.7634891,40.0972973 L85.6666092,41.9418919 Z M89.2830546,43.9727027 L87.4730219,42.9572973 L88.5735218,41.1091892 L90.3835546,42.1245946 L89.2830546,43.9727027 Z M92.9031202,46 L91.0930874,44.9881081 L92.1935873,43.14 L94,44.1518919 L92.9031202,46 Z" id="Fill-20" fill="#FFFFFF" mask="url(#mask-4)"></path>
                <path d="M98,58.0869565 L100.424,58.0869565 L100.424,56 L98,56 L98,58.0869565 Z M98,62.2681159 L100.424,62.2681159 L100.424,60.1811594 L98,60.1811594 L98,62.2681159 Z M98,66.4492754 L100.424,66.4492754 L100.424,64.3623188 L98,64.3623188 L98,66.4492754 Z M98,70.634058 L100.424,70.634058 L100.424,68.5471014 L98,68.5471014 L98,70.634058 Z M98,74.8188406 L100.424,74.8188406 L100.424,72.7282609 L98,72.7282609 L98,74.8188406 Z M98,79 L100.424,79 L100.424,76.9094203 L98,76.9094203 L98,79 Z" id="Fill-21" fill="#FFFFFF" mask="url(#mask-4)"></path>
                <path d="M92.1935873,91.8564865 L91.0930874,90.0118919 L92.9031202,89 L94,90.8445946 L92.1935873,91.8564865 Z M88.5735218,93.8872973 L87.4730219,92.0427027 L89.2830546,91.0272973 L90.3835546,92.8718919 L88.5735218,93.8872973 Z M84.9570764,95.9110811 L83.8565765,94.07 L85.6666092,93.0545946 L86.7634891,94.8991892 L84.9570764,95.9110811 Z M81.3370109,97.9418919 L80.2365109,96.0972973 L82.0465437,95.0818919 L83.1470436,96.9264865 L81.3370109,97.9418919 Z M77.7169454,99.9691892 L76.6200655,98.1245946 L78.4300983,97.1091892 L79.5269781,98.9572973 L77.7169454,99.9691892 Z M74.1004999,102 L73,100.151892 L74.8100328,99.1364865 L75.9069126,100.984595 L74.1004999,102 Z" id="Fill-22" fill="#FFFFFF" mask="url(#mask-4)"></path>
                <path d="M85,67.9982344 C85,77.9384012 76.9438831,86 66.9982341,86 C57.0596488,86 49,77.9384012 49,67.9982344 C49,58.0615988 57.0596488,50 66.9982341,50 C76.9438831,50 85,58.0615988 85,67.9982344" id="Fill-23" fill="#FFFFFF" mask="url(#mask-4)"></path>
                <path d="M67,55.9964286 C60.3785714,55.9964286 54.9928571,61.3821429 54.9928571,68 C54.9928571,74.6214286 60.3785714,80.0071429 67,80.0071429 C73.6214286,80.0071429 79.0035714,74.6214286 79.0035714,68 C79.0035714,61.3821429 73.6214286,55.9964286 67,55.9964286 M67,82 C59.2821429,82 53,75.7178571 53,68 C53,60.2785714 59.2821429,54 67,54 C74.7178571,54 81,60.2785714 81,68 C81,75.7178571 74.7178571,82 67,82" id="Fill-24" fill="#343B43" mask="url(#mask-4)"></path>
                <path d="M68,82 C63.512381,82 60,75.85 60,68 C60,60.15 63.512381,54 68,54 L68,55.9964286 C65.1657143,55.9964286 62.1295238,60.8178571 62.1295238,68 C62.1295238,75.1821429 65.1657143,80.0035714 68,80.0035714 L68,82 Z" id="Fill-25" fill="#343B43" mask="url(#mask-4)"></path>
                <path d="M67,82 L67,80.0035714 C69.8342857,80.0035714 72.8704762,75.1821429 72.8704762,68 C72.8704762,60.8178571 69.8342857,55.9964286 67,55.9964286 L67,54 C71.4838095,54 75,60.15 75,68 C75,75.85 71.4838095,82 67,82" id="Fill-26" fill="#343B43" mask="url(#mask-4)"></path>
                <polygon id="Fill-27" fill="#343B43" mask="url(#mask-4)" points="65.882 81 68.118 81 68.118 55 65.882 55"></polygon>
                <polygon id="Fill-28" fill="#343B43" mask="url(#mask-4)" points="54 69.118 80 69.118 80 66.882 54 66.882"></polygon>
                <path d="M67.4982079,61.996 C63.9139785,61.996 60.3835125,61.368 57,60.128 L57.6236559,58.004 C63.9892473,60.336 71.0179211,60.336 77.3727599,58.004 L78,60.128 C74.6164875,61.368 71.0824373,61.996 67.4982079,61.996" id="Fill-29" fill="#343B43" mask="url(#mask-4)"></path>
                <path d="M57.6236559,76.9907502 L57,74.8707502 C63.7670251,72.3867502 71.2365591,72.3907502 78,74.8707502 L77.3727599,76.9907502 C71.0143369,74.6587502 63.9892473,74.6547502 57.6236559,76.9907502" id="Fill-30" fill="#343B43" mask="url(#mask-4)"></path>
                <path d="M39.3312294,46.500658 C40.70837,48.8927833 39.8910147,51.9507225 37.5007658,53.3269668 C35.1105168,54.7135071 32.050586,53.8863877 30.6734455,51.5011265 C29.2894364,49.1124332 30.1067916,46.0510619 32.5004748,44.6713857 C34.8907238,43.2882773 37.9506546,44.1119647 39.3312294,46.500658" id="Fill-31" fill="#343B43" mask="url(#mask-4)"></path>
                <path d="M71.3289839,27.4993343 C72.7092447,29.8889352 71.8920754,32.9514696 69.5023701,34.3282368 C67.1092313,35.7118706 64.0499965,34.8878703 62.6731692,32.5017028 C61.2894749,30.1086686 62.1066442,27.0495675 64.5032165,25.669367 C66.8929218,24.2891665 69.9521566,25.1131668 71.3289839,27.4993343" id="Fill-32" fill="#FFFFFF" mask="url(#mask-4)"></path>
                <path d="M104.329107,46.4993343 C105.709367,48.8923685 104.892198,51.9480363 102.499059,53.3282368 C100.109354,54.7118706 97.0501196,53.8878703 95.6732923,51.5017028 C94.289598,49.1121019 95.1067673,46.0495675 97.499906,44.669367 C99.8896112,43.2891665 102.948846,44.1131668 104.329107,46.4993343" id="Fill-33" fill="#343B43" mask="url(#mask-4)"></path>
                <path d="M104.329107,83.4977293 C105.709367,85.8902195 104.892198,88.9486252 102.499059,90.3285119 C100.109354,91.7118312 97.0501196,90.8880182 95.6732923,88.4989606 C94.289598,86.1064704 95.1067673,83.0480647 97.499906,81.6716105 C99.8896112,80.2882912 102.948846,81.1121042 104.329107,83.4977293" id="Fill-34" fill="#FFFFFF" mask="url(#mask-4)"></path>
                <path d="M71.3290984,102.496189 C72.7093762,104.889657 71.8921968,107.949313 69.4990287,109.329763 C67.109294,110.710214 64.0500217,109.889498 62.6731774,107.499464 C61.2894662,105.10943 62.1066455,102.049774 64.5032472,100.672757 C66.8929819,99.2888727 69.9522542,100.109588 71.3290984,102.496189" id="Fill-35" fill="#343B43" mask="url(#mask-4)"></path>
                <path d="M39.3312294,83.4969526 C40.70837,85.8896905 39.8910147,88.9484128 37.5007658,90.3284424 C35.1105168,91.7119049 32.050586,90.8880067 30.6734455,88.4987017 C29.2894364,86.1093967 30.1067916,83.0472415 32.5004748,81.6740777 C34.8907238,80.2871823 37.9506546,81.1110806 39.3312294,83.4969526" id="Fill-36" fill="#FFFFFF" mask="url(#mask-4)"></path>
            </g>
        </g>
    </g>
</svg>