<?xml version="1.0" encoding="UTF-8"?>
<svg width="132px" height="131px" viewBox="0 0 132 131" version="1.1" xmlns="http://www.w3.org/2000/svg" xmlns:xlink="http://www.w3.org/1999/xlink">
    <!-- Generator: Sketch 60.1 (88133) - https://sketch.com -->
    <title>icon7</title>
    <desc>Created with Sketch.</desc>
    <defs>
        <polygon id="path-1" points="0.000349747657 0.418241348 131.578566 0.418241348 131.578566 131 0.000349747657 131"></polygon>
        <polygon id="path-3" points="0 131 131 131 131 1 0 1"></polygon>
    </defs>
    <g id="馬卡龍綠色" stroke="none" stroke-width="1" fill="none" fill-rule="evenodd">
        <g id="2功能清單頁" transform="translate(-802.000000, -490.000000)">
            <g id="icon7" transform="translate(802.000000, 490.000000)">
                <g id="Group-3">
                    <mask id="mask-2" fill="white">
                        <use xlink:href="#path-1"></use>
                    </mask>
                    <g id="Clip-2"></g>
                    <path d="M131.578916,65.7087736 C131.578916,101.772261 102.126666,131.001388 65.787884,131.001388 C29.4560974,131.001388 0.000349747657,101.772261 0.000349747657,65.7087736 C0.000349747657,29.6487568 29.4560974,0.41615876 65.787884,0.41615876 C102.126666,0.41615876 131.578916,29.6487568 131.578916,65.7087736" id="Fill-1" fill="#8FDEF6" mask="url(#mask-2)"></path>
                </g>
                <path d="M131,66.3649622 L101.185577,36.3734112 C100.942788,36.118654 100.61329,36 100.294196,36 L55.5933723,36 L31.2625,36 C30.9399382,36 30.6173764,36.118654 30.3676511,36.3734112 C30.128331,36.6211887 30,36.9387628 30,37.2702961 L30,40.7775696 C30,41.1091029 30.128331,41.426677 30.3676511,41.6779443 L32.1053228,43.4193667 L32.1053228,88.6335317 L31.2625,88.6335317 C30.9399382,88.6335317 30.6173764,88.7626552 30.3676511,89.0069429 C30.128331,89.2617001 30,89.5827639 30,89.9038278 L30,90.217912 C30,90.5424657 30.128331,90.8705091 30.3676511,91.1182867 L70.0115385,131 C103.79035,128.82235 130.559512,100.79557 131,66.3649622" id="Fill-4" fill="#70C9E9"></path>
                <mask id="mask-4" fill="white">
                    <use xlink:href="#path-3"></use>
                </mask>
                <g id="Clip-7"></g>
                <polygon id="Fill-6" fill="#FFFFFF" mask="url(#mask-4)" points="33 90 100 90 100 44 33 44"></polygon>
                <polygon id="Fill-8" fill="#FFFFFF" mask="url(#mask-4)" points="64.2745 97 66.7255 97 66.7255 91 64.2745 91"></polygon>
                <path d="M66.4983327,97.7253521 C65.5213042,97.7253521 64.7243423,98.5226093 64.7243423,99.5 C64.7243423,100.477391 65.5213042,101.274648 66.4983327,101.274648 C67.4786958,101.274648 68.2723231,100.477391 68.2723231,99.5 C68.2723231,98.5226093 67.4786958,97.7253521 66.4983327,97.7253521 M66.4983327,104 C64.0207484,104 62,101.981838 62,99.5 C62,97.0181616 64.0207484,95 66.4983327,95 C68.9792516,95 71,97.0181616 71,99.5 C71,101.981838 68.9792516,104 66.4983327,104" id="Fill-9" fill="#343B43" mask="url(#mask-4)"></path>
                <path d="M31.252678,38 C30.9326257,38 30.6091319,38.1210375 30.3647908,38.3665706 C30.1204498,38.615562 30,38.9371758 30,39.2587896 L30,42.7412104 C30,43.0628242 30.1204498,43.3878963 30.3647908,43.6299712 C30.6091319,43.8755043 30.9326257,44 31.252678,44 L99.747322,44 C100.067374,44 100.387427,43.8755043 100.631768,43.6299712 C100.876109,43.3878963 101,43.0628242 101,42.7412104 L101,39.2587896 C101,38.9371758 100.876109,38.615562 100.631768,38.3665706 C100.387427,38.1210375 100.067374,38 99.747322,38 L31.252678,38 Z" id="Fill-10" fill="#343B43" mask="url(#mask-4)"></path>
                <path d="M101,91.365 C101,91.086 100.87955,90.807 100.635209,90.594 C100.387427,90.381 100.067374,90.276 99.7507634,90.276 L31.252678,90.276 C30.9360671,90.276 30.6125733,90.381 30.3682323,90.594 C30.1204498,90.807 30,91.086 30,91.365 L30,91.629 C30,91.911 30.1204498,92.19 30.3682323,92.403 C30.6125733,92.616 30.9360671,92.724 31.252678,92.724 L99.7507634,92.724 C100.067374,92.724 100.387427,92.616 100.635209,92.403 C100.87955,92.19 101,91.911 101,91.629 L101,91.365 Z" id="Fill-11" fill="#343B43" mask="url(#mask-4)"></path>
                <path d="M62.6193287,65 C62.6193287,67.7369712 61.6167466,70.2090742 60,71.9969344 L64.5149391,77 C67.286979,73.9282649 69,69.6830166 69,65 L62.6193287,65 Z" id="Fill-12" fill="#D9D8D7" mask="url(#mask-4)"></path>
                <path d="M59.3359583,72.537872 C57.6692493,74.2360234 55.3612346,75.2842651 52.8165883,75.2842651 C47.7204369,75.2842651 43.5913883,71.0773219 43.5913883,65.8850316 C43.5913883,61.971596 45.9439858,58.6172227 49.2842627,57.2020965 L46.7670519,51 C41.0330243,53.4109558 37,59.1727908 37,65.8885257 C37,74.7880974 44.0886574,82 52.8165883,82 C57.1788391,82 61.1329862,80.2005185 64,77.2864067 L59.3359583,72.537872 Z" id="Fill-13" fill="#343B43" mask="url(#mask-4)"></path>
                <path d="M54,55.3253409 L54,49 C51.8741497,49 49.8469388,49.4113775 48,50.1584391 L50.5,56 C51.5782313,55.5688764 52.7585034,55.3253409 54,55.3253409" id="Fill-14" fill="#FECE66" mask="url(#mask-4)"></path>
                <path d="M54,55.6692691 C59.1587164,55.6692691 63.3321769,59.8471047 63.3321769,65 L70,65 C70,56.1654739 62.839549,49 54,49 L54,55.6692691 Z" id="Fill-15" fill="#EA6552" mask="url(#mask-4)"></path>
                <polygon id="Fill-16" fill="#343B43" mask="url(#mask-4)" points="75.2745 51.724 77.7255 51.724 77.7255 49.276 75.2745 49.276"></polygon>
                <polygon id="Fill-17" fill="#EA6552" mask="url(#mask-4)" points="80.276 51.724 82.724 51.724 82.724 49.276 80.276 49.276"></polygon>
                <polygon id="Fill-18" fill="#D9D8D7" mask="url(#mask-4)" points="85.2775 51.724 87.7225 51.724 87.7225 49.276 85.2775 49.276"></polygon>
                <polygon id="Fill-19" fill="#FECE66" mask="url(#mask-4)" points="91.276 51.724 93.724 51.724 93.724 49.276 91.276 49.276"></polygon>
                <polygon id="Fill-20" fill="#D9D8D7" mask="url(#mask-4)" points="75 81.724 94 81.724 94 79.276 75 79.276"></polygon>
                <polygon id="Fill-21" fill="#D9D8D7" mask="url(#mask-4)" points="75 75.724 94 75.724 94 73.276 75 73.276"></polygon>
                <polygon id="Fill-22" fill="#D9D8D7" mask="url(#mask-4)" points="75 69.724 94 69.724 94 67.276 75 67.276"></polygon>
                <polygon id="Fill-23" fill="#D9D8D7" mask="url(#mask-4)" points="75 64.724 94 64.724 94 62.276 75 62.276"></polygon>
            </g>
        </g>
    </g>
</svg>