<?xml version="1.0" encoding="UTF-8"?>
<svg width="171px" height="171px" viewBox="0 0 171 171" version="1.1" xmlns="http://www.w3.org/2000/svg" xmlns:xlink="http://www.w3.org/1999/xlink">
    <!-- Generator: Sketch 60.1 (88133) - https://sketch.com -->
    <title>编组 4备份 3</title>
    <desc>Created with Sketch.</desc>
    <defs>
        <polygon id="path-1" points="0 9.03225806e-05 139.999819 9.03225806e-05 139.999819 140 0 140"></polygon>
        <polygon id="path-3" points="0 140 140 140 140 0 0 0"></polygon>
    </defs>
    <g id="寶藍" stroke="none" stroke-width="1" fill="none" fill-rule="evenodd">
        <g id="编组-4备份-3">
            <circle id="椭圆形" fill="#F9F9F9" cx="85.5" cy="85.5" r="85.5"></circle>
            <g id="编组" transform="translate(16.000000, 16.000000)">
                <g>
                    <mask id="mask-2" fill="white">
                        <use xlink:href="#path-1"></use>
                    </mask>
                    <g id="Clip-2"></g>
                    <path d="M139.999819,70.0000903 C139.999819,108.659058 108.65969,140.00009 69.9998194,140.00009 C31.3399484,140.00009 -0.000180645161,108.659058 -0.000180645161,70.0000903 C-0.000180645161,31.3402194 31.3399484,9.03225806e-05 69.9998194,9.03225806e-05 C108.65969,9.03225806e-05 139.999819,31.3402194 139.999819,70.0000903" id="Fill-1" fill="#8FDEF6" mask="url(#mask-2)"></path>
                </g>
                <path d="M139.034483,81.4584734 L89.3480628,31.862069 L43.2626318,31.862069 C42.5668322,31.862069 41.8719362,32.1236486 41.3469237,32.6558279 C40.8137785,33.1789872 40.5517241,33.8735263 40.5517241,34.5680654 L40.5517241,105.825971 C40.5517241,106.52051 40.8137785,107.215049 41.3469237,107.738209 L73.667269,140 C106.809019,138.255534 133.832251,113.509197 139.034483,81.4584734" id="Fill-3" fill="#70C9E9"></path>
                <path d="M99.4482759,41.8580122 L99.4482759,106.377282 C99.4482759,107.075181 99.1827883,107.773079 98.6518133,108.304682 C98.1208382,108.837193 97.4258589,109.103448 96.7299735,109.103448 L43.2700265,109.103448 C42.5741411,109.103448 41.8791618,108.837193 41.3481867,108.304682 C40.8172117,107.773079 40.5517241,107.075181 40.5517241,106.377282 L40.5517241,34.5882353 C40.5517241,33.8903367 40.8172117,33.1924381 41.3481867,32.6608357 C41.8791618,32.1283245 42.5741411,31.862069 43.2700265,31.862069 L89.4811671,31.862069 L99.4482759,41.8580122 Z" id="Fill-5" fill="#FFFFFF"></path>
                <path d="M99.4482759,41.5172414 L92.4263323,41.5172414 C91.7522257,41.5172414 91.0789969,41.2600627 90.5646395,40.7457053 C90.0502821,40.2322257 89.7931034,39.5581191 89.7931034,38.8840125 L89.7931034,31.862069 L99.4482759,41.5172414 Z" id="Fill-7" fill="#E6E5E5"></path>
                <polygon id="Fill-9" fill="#FD8369" points="74.956142 91.7241379 72.4137931 89.1817101 98.8369614 62.7586207 101.37931 65.3001495"></polygon>
                <polygon id="Fill-11" fill="#EA6552" points="77.8543338 93.6551724 75.3103448 91.1111834 101.731873 64.6896552 104.275862 67.2336442"></polygon>
                <polygon id="Fill-13" fill="#E24F3B" points="80.7502234 96.5517241 78.2068966 94.0092963 104.630885 67.5862069 107.172414 70.1277357"></polygon>
                <polygon id="Fill-15" fill="#E6E5E5" points="80.137931 96.5929073 73.0643604 98.4827586 70.4827586 95.9010296 72.3784938 88.8275862"></polygon>
                <polygon id="Fill-17" fill="#CCCBCA" points="80.137931 96.4466137 77.6178164 93.6551724 72.4137931 97.5539216 73.2523477 98.4827586"></polygon>
                <polygon id="Fill-19" fill="#495057" points="73.3793103 98.4131131 69.5172414 99.4482759 70.556529 95.5862069"></polygon>
                <polygon id="Fill-21" fill="#E6E5E5" points="109.103448 67.1043018 106.689655 64.6896552 104.275862 67.1034483 106.690509 69.5172414"></polygon>
                <polygon id="Fill-23" fill="#FFFFFF" points="107.172414 65.0124047 102.022381 59.862069 99.4482759 62.4358712 104.598308 67.5862069"></polygon>
                <path d="M110.379764,66.969999 L109.77436,67.5862069 L107.172414,64.937824 L107.776897,64.3206796 C108.772409,63.3083381 109.397133,61.9045453 109.397133,60.3546607 C109.390693,59.4874745 109.202079,58.6596207 108.850614,57.9310345 C109.422895,58.2091709 109.937212,58.573464 110.379764,59.0239138 C111.381716,60.0437473 111.992639,61.4475401 112,63.0039801 C112,64.5529282 111.374355,65.956721 110.379764,66.969999" id="Fill-25" fill="#343B43"></path>
                <path d="M107.418964,64.0596995 L106.790511,64.6896552 L101.37931,59.2737593 L102.00872,58.6438035 C103.043707,57.6088763 104.48427,56.9655172 106.066403,56.9655172 C106.945472,56.9655172 107.784366,57.1684817 108.535258,57.527499 C108.90066,58.2723403 109.096752,59.1177064 109.103448,60.0051972 C109.103448,61.5887029 108.453951,63.0238148 107.418964,64.0596995" id="Fill-27" fill="#495057"></path>
                <mask id="mask-4" fill="white">
                    <use xlink:href="#path-3"></use>
                </mask>
                <g id="Clip-30"></g>
                <polygon id="Fill-29" fill="#495057" mask="url(#mask-4)" points="51.1724138 56.9655172 89.7931034 56.9655172 89.7931034 54.0689655 51.1724138 54.0689655"></polygon>
                <polygon id="Fill-31" fill="#495057" mask="url(#mask-4)" points="50.2068966 68.5517241 87.862069 68.5517241 87.862069 65.6551724 50.2068966 65.6551724"></polygon>
                <polygon id="Fill-32" fill="#495057" mask="url(#mask-4)" points="51.1724138 62.7586207 89.7931034 62.7586207 89.7931034 59.862069 51.1724138 59.862069"></polygon>
                <polygon id="Fill-33" fill="#EA6552" mask="url(#mask-4)" points="50.2068966 44.4137931 69.5172414 44.4137931 69.5172414 41.5172414 50.2068966 41.5172414"></polygon>
                <polygon id="Fill-34" fill="#495057" mask="url(#mask-4)" points="51.1724138 50.2068966 89.7931034 50.2068966 89.7931034 47.3103448 51.1724138 47.3103448"></polygon>
                <polygon id="Fill-35" fill="#495057" mask="url(#mask-4)" points="50.2068966 99.4482759 56.9655172 99.4482759 56.9655172 96.5517241 50.2068966 96.5517241"></polygon>
                <polygon id="Fill-36" fill="#495057" mask="url(#mask-4)" points="51.1724138 75.3103448 82.0689655 75.3103448 82.0689655 72.4137931 51.1724138 72.4137931"></polygon>
                <polygon id="Fill-37" fill="#495057" mask="url(#mask-4)" points="51.1724138 92.6896552 63.7241379 92.6896552 63.7241379 89.7931034 51.1724138 89.7931034"></polygon>
                <polygon id="Fill-38" fill="#495057" mask="url(#mask-4)" points="50.2068966 81.1034483 75.3103448 81.1034483 75.3103448 78.2068966 50.2068966 78.2068966"></polygon>
                <polygon id="Fill-39" fill="#495057" mask="url(#mask-4)" points="50.2068966 86.8965517 69.5172414 86.8965517 69.5172414 84 50.2068966 84"></polygon>
            </g>
        </g>
    </g>
</svg>