<?xml version="1.0" encoding="UTF-8"?>
<svg width="126px" height="127px" viewBox="0 0 126 127" version="1.1" xmlns="http://www.w3.org/2000/svg" xmlns:xlink="http://www.w3.org/1999/xlink">
    <!-- Generator: Sketch 60.1 (88133) - https://sketch.com -->
    <title>icon1</title>
    <desc>Created with Sketch.</desc>
    <defs>
        <polygon id="path-1" points="0 0.000293076923 126 0.000293076923 126 127 0 127"></polygon>
        <path d="M45.7410714,0.925752212 L75.1788571,32.1229204 L90.9293571,33.7670796 C90.9313036,33.7670796 99.3019196,42.1387611 108.81217,51.6513274 C106.297384,84.2940708 79.0230536,110 45.7410714,110 C44.0486518,110 42.3688839,109.932832 40.7076071,109.802389 L40.7076071,109.802389 L17.8137143,86.9019469 L24.1464196,57.2447788 L0.553758929,33.7670796 L0.574196429,33.7651327 L32.6455,30.4232743" id="path-3"></path>
    </defs>
    <g id="馬卡龍綠色" stroke="none" stroke-width="1" fill="none" fill-rule="evenodd">
        <g id="2功能清單頁" transform="translate(-488.000000, -245.000000)">
            <g id="icon1" transform="translate(488.000000, 245.000000)">
                <g id="编组">
                    <mask id="mask-2" fill="white">
                        <use xlink:href="#path-1"></use>
                    </mask>
                    <g id="Clip-2"></g>
                    <path d="M63,0.000293076923 C28.2065538,0.000293076923 0,28.4307085 0,63.4993162 C0,96.8690546 25.5372923,124.225832 57.9871385,126.801978 C59.6416154,126.932885 61.3145077,127.000293 63,127.000293 C96.1457538,127.000293 123.308446,101.202685 125.812938,68.4435238 C125.936031,66.8101085 126,65.1620392 126,63.4993162 C126,28.4307085 97.7934462,0.000293076923 63,0.000293076923" id="Fill-1" fill="#9B5AB6" mask="url(#mask-2)"></path>
                </g>
                <g id="编组" transform="translate(17.000000, 17.000000)">
                    <mask id="mask-4" fill="white">
                        <use xlink:href="#path-3"></use>
                    </mask>
                    <g id="Clip-4"></g>
                    <path d="M90.9313036,33.7670796 L90.9293571,33.7670796 L75.1788571,32.1229204 L45.7410714,0.925752212 L32.6455,30.4232743 L0.574196429,33.7651327 L0.553758929,33.7670796 L24.1464196,57.2447788 L17.8137143,86.9019469 L40.7076071,109.802389 C42.3688839,109.932832 44.0486518,110 45.7410714,110 C79.0230536,110 106.297384,84.2940708 108.81217,51.6513274 C99.3019196,42.1387611 90.9313036,33.7670796 90.9313036,33.7670796" id="Fill-3" mask="url(#mask-4)"></path>
                </g>
                <polygon id="Fill-5" fill="#FFFFFF" points="63.4945 65.503 63.5055 65.499 63.4945 65.497"></polygon>
                <polygon id="Fill-7" fill="#E3E3E3" points="64.0106605 65 109 50.1818946 77.0416945 46.8024302 64 17 64 64.9980329"></polygon>
                <polygon id="Fill-9" fill="#FFFFFF" points="64 17 50.9525308 46.8036516 19 50.1783365 64 65"></polygon>
                <polygon id="Fill-11" fill="#E3E3E3" points="64 65.0039476 64 87.6116706 92 104 85.2439364 72.0010122 85.2673543 71.9812744 64.0107332 65"></polygon>
                <polygon id="Fill-13" fill="#E3E3E3" points="64 64.9673108 19.021322 50 19 50.0039733 42.8796278 72 64 64.9732707"></polygon>
                <polygon id="Fill-15" fill="#C9C9C9" points="109 50 64 64.9700556 85.1176813 72"></polygon>
                <polygon id="Fill-17" fill="#FFFFFF" points="42.7372896 71.9821578 42.7568038 71.99795 36 104 64 87.6105839 64 65"></polygon>
            </g>
        </g>
    </g>
</svg>