<?xml version="1.0" encoding="UTF-8"?>
<svg width="171px" height="171px" viewBox="0 0 171 171" version="1.1" xmlns="http://www.w3.org/2000/svg" xmlns:xlink="http://www.w3.org/1999/xlink">
    <!-- Generator: Sketch 60.1 (88133) - https://sketch.com -->
    <title>编组 9备份 5</title>
    <desc>Created with Sketch.</desc>
    <defs>
        <polygon id="path-1" points="0.000187096774 0.000187096774 145 0.000187096774 145 145 0.000187096774 145"></polygon>
        <polygon id="path-3" points="0 145 145 145 145 0 0 0"></polygon>
    </defs>
    <g id="寶藍" stroke="none" stroke-width="1" fill="none" fill-rule="evenodd">
        <g id="编组-9备份-5">
            <circle id="椭圆形备份-6" fill="#F9F9F9" cx="85.5" cy="85.5" r="85.5"></circle>
            <g id="编组" transform="translate(13.000000, 13.000000)">
                <g>
                    <mask id="mask-2" fill="white">
                        <use xlink:href="#path-1"></use>
                    </mask>
                    <g id="Clip-2"></g>
                    <path d="M145.000187,72.5001871 C145.000187,112.540768 112.540768,145.000187 72.5001871,145.000187 C32.4596065,145.000187 0.000187096774,112.540768 0.000187096774,72.5001871 C0.000187096774,32.458671 32.4596065,0.000187096774 72.5001871,0.000187096774 C112.540768,0.000187096774 145.000187,32.458671 145.000187,72.5001871" id="Fill-1" fill="#DC6C8A" mask="url(#mask-2)"></path>
                </g>
                <path d="M144.141413,83.6721097 L92.6411548,32.1709161 C91.5559935,31.0764 90.0498645,30.4037871 88.4034129,30.4037871 L56.6063161,30.4037871 C53.2947032,30.4037871 50.5911548,33.1064 50.5911548,36.4086581 L50.5911548,94.1485935 L46.3702516,89.9276903 L38.9425097,97.3563677 L50.612671,109.026529 C50.7165097,110.461561 51.3217677,111.757206 52.265671,112.734787 C52.3218,112.801206 52.377929,112.8564 52.4434129,112.913465 L83.6717355,144.141787 C114.766284,139.331529 139.33209,114.765723 144.141413,83.6721097" id="Fill-3" fill="#C14D8A"></path>
                <path d="M56.6023871,114.596961 C53.2991935,114.596961 50.5928387,111.899026 50.5928387,108.593961 L50.5928387,36.4120258 C50.5928387,33.1097677 53.2991935,30.4034129 56.6023871,30.4034129 L88.4032258,30.4034129 C91.7082903,30.4034129 94.4071613,33.1097677 94.4071613,36.4120258 L94.4071613,108.593961 C94.4071613,111.899026 91.7082903,114.596961 88.4032258,114.596961 L56.6023871,114.596961 Z" id="Fill-5" fill="#343B43"></path>
                <path d="M77.7019452,108.391148 C77.7019452,109.183503 77.0620742,109.823374 76.2697194,109.823374 L68.7362677,109.823374 C67.9485903,109.823374 67.298429,109.183503 67.298429,108.391148 L67.298429,107.789632 C67.298429,106.998213 67.9485903,106.346181 68.7362677,106.346181 L76.2697194,106.346181 C77.0620742,106.346181 77.7019452,106.998213 77.7019452,107.789632 L77.7019452,108.391148 Z" id="Fill-7" fill="#495057"></path>
                <path d="M78.7872935,37.0431968 C78.7872935,37.3706161 78.5300355,37.6269387 78.2063581,37.6269387 L66.8028097,37.6269387 C66.4772613,37.6269387 66.2162613,37.3706161 66.2162613,37.0431968 L66.2162613,36.7981 C66.2162613,36.4800355 66.4772613,36.2143581 66.8028097,36.2143581 L78.2063581,36.2143581 C78.5300355,36.2143581 78.7872935,36.4800355 78.7872935,36.7981 L78.7872935,37.0431968 Z" id="Fill-9" fill="#495057"></path>
                <mask id="mask-4" fill="white">
                    <use xlink:href="#path-3"></use>
                </mask>
                <g id="Clip-12"></g>
                <polygon id="Fill-11" fill="#FFFFFF" mask="url(#mask-4)" points="53.996129 101.57671 91.003871 101.57671 91.003871 43.4382581 53.996129 43.4382581"></polygon>
                <polygon id="Fill-13" fill="#8FDEF6" mask="url(#mask-4)" points="68.7851935 97.3558065 76.213871 97.3558065 76.213871 89.929 68.7851935 89.929"></polygon>
                <polygon id="Fill-14" fill="#8FDEF6" mask="url(#mask-4)" points="79.3552258 97.3558065 86.7773548 97.3558065 86.7773548 89.929 79.3552258 89.929"></polygon>
                <polygon id="Fill-15" fill="#8FDEF6" mask="url(#mask-4)" points="58.2189032 76.2204194 65.6466452 76.2204194 65.6466452 68.7945484 58.2189032 68.7945484"></polygon>
                <polygon id="Fill-16" fill="#8FDEF6" mask="url(#mask-4)" points="68.7851935 76.2204194 76.213871 76.2204194 76.213871 68.7945484 68.7851935 68.7945484"></polygon>
                <polygon id="Fill-17" fill="#8FDEF6" mask="url(#mask-4)" points="58.2189032 65.654129 65.6466452 65.654129 65.6466452 58.2273226 58.2189032 58.2273226"></polygon>
                <polygon id="Fill-18" fill="#8FDEF6" mask="url(#mask-4)" points="68.7851935 65.654129 76.213871 65.654129 76.213871 58.2273226 68.7851935 58.2273226"></polygon>
                <polygon id="Fill-19" fill="#8FDEF6" mask="url(#mask-4)" points="79.3552258 65.654129 86.7773548 65.654129 86.7773548 58.2273226 79.3552258 58.2273226"></polygon>
                <polygon id="Fill-20" fill="#8FDEF6" mask="url(#mask-4)" points="58.2189032 55.0878387 65.6466452 55.0878387 65.6466452 47.6600968 58.2189032 47.6600968"></polygon>
                <polygon id="Fill-21" fill="#8FDEF6" mask="url(#mask-4)" points="68.7851935 55.0878387 76.213871 55.0878387 76.213871 47.6600968 68.7851935 47.6600968"></polygon>
                <polygon id="Fill-22" fill="#495057" mask="url(#mask-4)" points="64.1610968 91.4145484 65.6466452 91.4145484 65.6466452 89.929 64.1610968 89.929"></polygon>
                <polygon id="Fill-23" fill="#495057" mask="url(#mask-4)" points="64.1610968 94.3856452 65.6466452 94.3856452 65.6466452 92.9000968 64.1610968 92.9000968"></polygon>
                <polygon id="Fill-24" fill="#495057" mask="url(#mask-4)" points="58.2189032 94.3856452 59.7035161 94.3856452 59.7035161 92.9000968 58.2189032 92.9000968"></polygon>
                <polygon id="Fill-25" fill="#495057" mask="url(#mask-4)" points="61.19 91.4145484 62.6755484 91.4145484 62.6755484 89.929 61.19 89.929"></polygon>
                <polygon id="Fill-26" fill="#495057" mask="url(#mask-4)" points="61.19 97.3567419 62.6755484 97.3567419 62.6755484 95.8730645 61.19 95.8730645"></polygon>
                <polygon id="Fill-27" fill="#495057" mask="url(#mask-4)" points="58.2189032 91.4145484 59.7035161 91.4145484 59.7035161 89.929 58.2189032 89.929"></polygon>
                <polygon id="Fill-28" fill="#495057" mask="url(#mask-4)" points="64.1610968 97.3567419 65.6466452 97.3567419 65.6466452 95.8730645 64.1610968 95.8730645"></polygon>
                <polygon id="Fill-29" fill="#495057" mask="url(#mask-4)" points="58.2189032 97.3567419 59.7035161 97.3567419 59.7035161 95.8730645 58.2189032 95.8730645"></polygon>
                <polygon id="Fill-30" fill="#495057" mask="url(#mask-4)" points="47.8556129 94.3856452 56.7352258 94.3856452 56.7352258 92.9000968 47.8556129 92.9000968"></polygon>
                <polygon id="Fill-31" fill="#343B43" mask="url(#mask-4)" points="38.9432581 97.3558065 46.371 97.3558065 46.371 89.929 38.9432581 89.929"></polygon>
                <polygon id="Fill-32" fill="#495057" mask="url(#mask-4)" points="104.571194 49.1456452 106.056742 49.1456452 106.056742 47.6600968 104.571194 47.6600968"></polygon>
                <polygon id="Fill-33" fill="#495057" mask="url(#mask-4)" points="104.571194 52.1167419 106.056742 52.1167419 106.056742 50.6311935 104.571194 50.6311935"></polygon>
                <polygon id="Fill-34" fill="#495057" mask="url(#mask-4)" points="98.6280645 52.1167419 100.113613 52.1167419 100.113613 50.6311935 98.6280645 50.6311935"></polygon>
                <polygon id="Fill-35" fill="#495057" mask="url(#mask-4)" points="101.601032 49.1456452 103.086581 49.1456452 103.086581 47.6600968 101.601032 47.6600968"></polygon>
                <polygon id="Fill-36" fill="#495057" mask="url(#mask-4)" points="101.601032 55.0887742 103.086581 55.0887742 103.086581 53.6032258 101.601032 53.6032258"></polygon>
                <polygon id="Fill-37" fill="#495057" mask="url(#mask-4)" points="98.6280645 49.1456452 100.113613 49.1456452 100.113613 47.6600968 98.6280645 47.6600968"></polygon>
                <polygon id="Fill-38" fill="#495057" mask="url(#mask-4)" points="104.571194 55.0887742 106.056742 55.0887742 106.056742 53.6032258 104.571194 53.6032258"></polygon>
                <polygon id="Fill-39" fill="#495057" mask="url(#mask-4)" points="98.6280645 55.0887742 100.113613 55.0887742 100.113613 53.6032258 98.6280645 53.6032258"></polygon>
                <polygon id="Fill-40" fill="#495057" mask="url(#mask-4)" points="88.2629032 52.1167419 97.1425161 52.1167419 97.1425161 50.6311935 88.2629032 50.6311935"></polygon>
                <polygon id="Fill-41" fill="#343B43" mask="url(#mask-4)" points="79.3552258 55.0878387 86.7773548 55.0878387 86.7773548 47.6600968 79.3552258 47.6600968"></polygon>
            </g>
        </g>
    </g>
</svg>