<?xml version="1.0" encoding="UTF-8"?>
<svg width="171px" height="171px" viewBox="0 0 171 171" version="1.1" xmlns="http://www.w3.org/2000/svg" xmlns:xlink="http://www.w3.org/1999/xlink">
    <!-- Generator: Sketch 60.1 (88133) - https://sketch.com -->
    <title>编组 8备份 3</title>
    <desc>Created with Sketch.</desc>
    <defs>
        <polygon id="path-1" points="0.000187096774 0.000187096774 145 0.000187096774 145 145 0.000187096774 145"></polygon>
        <polygon id="path-3" points="0 145 145 145 145 0 0 0"></polygon>
    </defs>
    <g id="寶藍" stroke="none" stroke-width="1" fill="none" fill-rule="evenodd">
        <g id="编组-8备份-3">
            <circle id="椭圆形备份-5" fill="#F9F9F9" cx="85.5" cy="85.5" r="85.5"></circle>
            <g id="编组" transform="translate(13.000000, 13.000000)">
                <g>
                    <mask id="mask-2" fill="white">
                        <use xlink:href="#path-1"></use>
                    </mask>
                    <g id="Clip-2"></g>
                    <path d="M145.000187,72.5001871 C145.000187,112.539832 112.540768,145.000187 72.5001871,145.000187 C32.458671,145.000187 0.000187096774,112.539832 0.000187096774,72.5001871 C0.000187096774,32.458671 32.458671,0.000187096774 72.5001871,0.000187096774 C112.540768,0.000187096774 145.000187,32.458671 145.000187,72.5001871" id="Fill-1" fill="#547657" mask="url(#mask-2)"></path>
                </g>
                <path d="M143.041097,89.2156 L95.6953226,41.8632774 L94.2537419,40.4329226 C88.5566452,35.0810194 80.9053226,31.8068258 72.5046774,31.8068258 C54.9643548,31.8068258 40.6982258,46.0729548 40.6982258,63.6132774 C40.6982258,63.9781161 40.8282581,64.3055355 41.0443548,64.5665355 L41.2492258,64.7732774 L43.878871,67.4019871 L45.3840645,68.9081161 L45.731129,69.2542452 L43.0453548,71.9390839 L42.079,72.9054387 L32.7419355,73.4555032 L40.9667097,81.6812129 C40.7973871,81.9244387 40.6982258,82.2191161 40.6982258,82.5381161 C40.6982258,82.8271806 40.7730645,83.0900516 40.9133871,83.3145677 L44.0229355,86.4250516 L43.3643548,87.0836323 L42.8114839,87.0836323 C41.9798387,87.0836323 41.296,87.767471 41.296,88.6000516 C41.296,88.7656323 41.3306129,88.9199871 41.381129,89.0668581 L41.381129,89.0677935 C41.381129,89.0677935 41.381129,89.0696645 41.3820645,89.0706 C41.3960968,89.1108258 41.413871,89.1454387 41.4316452,89.184729 C41.4868387,89.3175677 41.558871,89.445729 41.6524194,89.5542452 L41.8572903,89.7600516 L45.2446774,93.1465032 L44.7292258,93.1465032 C43.8975806,93.1465032 43.2137419,93.8191161 43.2137419,94.6610516 C43.2137419,95.0446 43.3643548,95.4010194 43.6169355,95.6713742 C43.6347097,95.709729 43.6814839,95.7555677 43.7198387,95.7752129 L47.4112581,99.4666323 C47.0136774,99.7397935 46.7508065,100.198181 46.7508065,100.714568 C46.7508065,101.1346 46.9191935,101.518148 47.1998387,101.790374 L53.1766452,107.768116 C53.215,107.81489 53.2524194,107.851374 53.2991935,107.889729 L88.593129,143.1846 C115.499516,137.083374 136.710677,116.032181 143.041097,89.2156" id="Fill-3" fill="#345C43"></path>
                <path d="M53.5675839,102.233794 C52.7312613,102.233794 52.0530355,101.554632 52.0530355,100.71831 C52.0530355,99.8829226 52.7312613,99.2046968 53.5675839,99.2046968 C64.6081645,99.2046968 74.844229,94.1895677 81.6536161,85.4456 C82.1671968,84.7842129 83.1195194,84.6672774 83.7781,85.1808581 C84.4394871,85.6944387 84.5573581,86.6458258 84.0437774,87.3053419 C76.6571968,96.7939548 65.5483258,102.233794 53.5675839,102.233794" id="Fill-5" fill="#FFFFFF"></path>
                <path d="M90.6754226,65.1259548 C89.8391,65.1259548 89.1608742,64.447729 89.1608742,63.610471 C89.1608742,54.4240194 81.6872935,46.9513742 72.4999065,46.9513742 C63.3134548,46.9513742 55.8389387,54.4240194 55.8389387,63.610471 C55.8389387,64.447729 55.1607129,65.1259548 54.3253258,65.1259548 C53.4880677,65.1259548 52.8098419,64.447729 52.8098419,63.610471 C52.8098419,52.7541806 61.6426806,43.9222774 72.4999065,43.9222774 C83.3571323,43.9222774 92.189971,52.7541806 92.189971,63.610471 C92.189971,64.447729 91.5117452,65.1259548 90.6754226,65.1259548" id="Fill-7" fill="#FFFFFF"></path>
                <path d="M53.5675839,71.9406742 L42.2080032,71.9406742 C41.3716806,71.9406742 40.6934548,71.2624484 40.6934548,70.4261258 C40.6934548,69.5898032 41.3716806,68.9115774 42.2080032,68.9115774 L53.5675839,68.9115774 C56.490971,68.9115774 58.868971,66.5345129 58.868971,63.6111258 C58.868971,56.0945129 64.9832935,49.9801903 72.4999065,49.9801903 C80.0165194,49.9801903 86.1317774,56.0945129 86.1317774,63.6111258 C86.1317774,64.4483839 85.4526161,65.1256742 84.6162935,65.1256742 C83.7809065,65.1256742 83.1017452,64.4483839 83.1017452,63.6111258 C83.1017452,57.7652871 78.3457452,53.0092871 72.4999065,53.0092871 C66.6540677,53.0092871 61.8980677,57.7652871 61.8980677,63.6111258 C61.8980677,68.2043516 58.1608097,71.9406742 53.5675839,71.9406742" id="Fill-9" fill="#FFFFFF"></path>
                <path d="M53.5675839,96.1750387 C52.7312613,96.1750387 52.0530355,95.4958774 52.0530355,94.6604903 C52.0530355,93.8241677 52.7312613,93.1450065 53.5675839,93.1450065 C65.2826484,93.1450065 75.9022613,86.1990387 80.6208419,75.4484581 C80.9576161,74.6822968 81.8500677,74.3333613 82.616229,74.671071 C83.3833258,75.0069097 83.7313258,75.9002968 83.3954871,76.6655226 C78.1932613,88.5162323 66.4856806,96.1750387 53.5675839,96.1750387" id="Fill-11" fill="#FFFFFF"></path>
                <path d="M53.5675839,90.1154419 C52.7312613,90.1154419 52.0530355,89.4372161 52.0530355,88.5999581 C52.0530355,87.7636355 52.7312613,87.0863452 53.5675839,87.0863452 C66.5128097,87.0863452 77.0444871,76.5546677 77.0444871,63.6094419 C77.0444871,61.1042161 75.0051323,59.0657968 72.4999065,59.0657968 C69.9946806,59.0657968 67.9562613,61.1042161 67.9562613,63.6094419 C67.9562613,71.5442161 61.5014226,77.9981194 53.5675839,77.9981194 L42.2080032,77.9981194 C41.3716806,77.9981194 40.6934548,77.3198935 40.6934548,76.4845065 C40.6934548,75.6481839 41.3716806,74.9690226 42.2080032,74.9690226 L53.5675839,74.9690226 C59.8315839,74.9690226 64.9271645,69.8734419 64.9271645,63.6094419 C64.9271645,59.4343774 68.3239065,56.0367 72.4999065,56.0367 C76.6759065,56.0367 80.0735839,59.4343774 80.0735839,63.6094419 C80.0735839,78.2245065 68.1826484,90.1154419 53.5675839,90.1154419" id="Fill-13" fill="#FFFFFF"></path>
                <path d="M64.1872903,113.195606 C63.4922258,113.195606 62.8654516,112.713832 62.7092258,112.007542 C62.5296129,111.190865 63.0450645,110.381671 63.8617419,110.202058 C71.021,108.620155 77.8350645,105.328187 83.5686452,100.677897 C84.2188065,100.149348 85.171129,100.250381 85.6996774,100.900542 C86.2254194,101.550703 86.1271935,102.503961 85.4760968,103.031574 C79.3804839,107.975606 72.1314194,111.478058 64.5147097,113.160058 C64.4052581,113.184381 64.2958065,113.195606 64.1872903,113.195606" id="Fill-15" fill="#FFFFFF"></path>
                <path d="M102.791997,65.1259548 C101.954739,65.1259548 101.277448,64.447729 101.277448,63.610471 C101.277448,47.7427935 88.367771,34.8340516 72.5000935,34.8340516 C56.6324161,34.8340516 43.7227387,47.7427935 43.7227387,63.610471 C43.7227387,64.447729 43.0445129,65.1259548 42.2081903,65.1259548 C41.3718677,65.1259548 40.6936419,64.447729 40.6936419,63.610471 C40.6936419,46.0729548 54.9616419,31.8040194 72.5000935,31.8040194 C90.0385452,31.8040194 104.306545,46.0729548 104.306545,63.610471 C104.306545,64.447729 103.629255,65.1259548 102.791997,65.1259548" id="Fill-17" fill="#FFFFFF"></path>
                <path d="M54.3057742,108.2802 C53.4806774,108.2802 52.8052581,107.618813 52.7919436,106.791845 C52.778129,105.954587 53.4441935,105.266071 54.2805161,105.251103 C64.9169677,105.07149 74.9865161,100.868361 82.6322258,93.4172323 C83.2309355,92.8325548 84.1898065,92.8447161 84.7744839,93.4443613 C85.3572903,94.0440065 85.345129,95.0019419 84.7464194,95.5856839 C76.5450323,103.579394 65.7439355,108.086555 54.3319677,108.2802 L54.3057742,108.2802 Z" id="Fill-19" fill="#FFFFFF"></path>
                <path d="M96.7332419,65.1259548 C95.8959839,65.1259548 95.2186935,64.447729 95.2186935,63.610471 C95.2186935,51.0843419 85.0265968,40.8931806 72.5004677,40.8931806 C59.9734032,40.8931806 49.7813065,51.0843419 49.7813065,63.610471 C49.7813065,64.447729 49.1030806,65.1259548 48.2667581,65.1259548 C47.4304355,65.1259548 46.7522097,64.447729 46.7522097,63.610471 C46.7522097,49.4135677 58.3016935,37.8631484 72.5004677,37.8631484 C86.6964355,37.8631484 98.2477903,49.4135677 98.2477903,63.610471 C98.2477903,64.447729 97.5695645,65.1259548 96.7332419,65.1259548" id="Fill-21" fill="#FFFFFF"></path>
                <path d="M53.5675839,84.0566871 L42.2080032,84.0566871 C41.3716806,84.0566871 40.6934548,83.3784613 40.6934548,82.5421387 C40.6934548,81.7058161 41.3716806,81.0266548 42.2080032,81.0266548 L53.5675839,81.0266548 C63.1721968,81.0266548 70.9853581,73.214429 70.9853581,63.6098161 C70.9853581,62.7734935 71.6635839,62.0943323 72.4999065,62.0943323 C73.336229,62.0943323 74.0144548,62.7734935 74.0144548,63.6098161 C74.0144548,74.8842677 64.8420355,84.0566871 53.5675839,84.0566871" id="Fill-23" fill="#FFFFFF"></path>
                <path d="M53.5675839,90.1154419 L42.8141968,90.1154419 C41.9778742,90.1154419 41.2996484,89.4372161 41.2996484,88.5999581 C41.2996484,87.7636355 41.9778742,87.0863452 42.8141968,87.0863452 L53.5675839,87.0863452 C54.4039065,87.0863452 55.0821323,87.7636355 55.0821323,88.5999581 C55.0821323,89.4372161 54.4039065,90.1154419 53.5675839,90.1154419" id="Fill-25" fill="#FFFFFF"></path>
                <path d="M53.5675839,96.173729 L44.7291323,96.173729 C43.8918742,96.173729 43.2136484,95.4955032 43.2136484,94.6591806 C43.2136484,93.8228581 43.8918742,93.1446323 44.7291323,93.1446323 L53.5675839,93.1446323 C54.4039065,93.1446323 55.0821323,93.8228581 55.0821323,94.6591806 C55.0821323,95.4955032 54.4039065,96.173729 53.5675839,96.173729" id="Fill-27" fill="#FFFFFF"></path>
                <path d="M53.5675839,102.232858 L48.2661968,102.232858 C47.4298742,102.232858 46.7516484,101.553697 46.7516484,100.71831 C46.7516484,99.8810516 47.4298742,99.2037613 48.2661968,99.2037613 L53.5675839,99.2037613 C54.4039065,99.2037613 55.0821323,99.8810516 55.0821323,100.71831 C55.0821323,101.553697 54.4039065,102.232858 53.5675839,102.232858" id="Fill-29" fill="#FFFFFF"></path>
                <path d="M92.9817645,106.376771 C92.864829,106.376771 92.7469581,106.361803 92.6290871,106.334674 C89.616829,105.613416 86.6691194,104.564739 83.8664097,103.219513 C83.1124097,102.857481 82.7952806,101.952868 83.1582484,101.197932 C83.5193452,100.444868 84.4239581,100.127739 85.1779581,100.489771 C87.7870226,101.741448 90.5307968,102.717158 93.3335065,103.3879 C94.1473774,103.583416 94.6487968,104.401029 94.4542161,105.213029 C94.2877,105.909029 93.6665387,106.376771 92.9817645,106.376771" id="Fill-31" fill="#FFFFFF"></path>
                <path d="M97.5531935,101.094561 C97.4802258,101.094561 97.4053871,101.088948 97.3305484,101.077723 C92.1853871,100.319981 87.3274194,98.5397548 82.8913548,95.7884968 C82.1803871,95.3478839 81.9614839,94.414271 82.4020968,93.7023677 C82.8427097,92.9914 83.7772581,92.7743677 84.4872903,93.2140452 C88.5688065,95.7454645 93.0385484,97.3834968 97.7720968,98.0813677 C98.6009355,98.2029806 99.1725161,98.9728839 99.0499677,99.8007871 C98.9386452,100.552916 98.2922258,101.094561 97.5531935,101.094561" id="Fill-33" fill="#FFFFFF"></path>
                <path d="M100.619523,95.3382484 C100.582103,95.3382484 100.545619,95.3373129 100.507265,95.333571 C93.6763613,94.8321516 87.0512645,92.0556355 81.8527806,87.5166677 C81.2232,86.9666032 81.1577161,86.0096032 81.7077806,85.3790871 C82.2587806,84.7495065 83.2139097,84.6849581 83.8444258,85.2350226 C88.5536516,89.3446032 94.5482323,91.8582484 100.728974,92.313829 C101.564361,92.3737 102.191135,93.100571 102.128458,93.9340871 C102.070458,94.7311194 101.406265,95.3382484 100.619523,95.3382484" id="Fill-35" fill="#FFFFFF"></path>
                <path d="M102.331552,89.3517129 L102.302552,89.3517129 C93.3873903,89.1870677 85.3160355,84.5087129 80.7097129,76.8377452 C80.2803258,76.1192935 80.5113903,75.1894226 81.227971,74.7581645 C81.9445516,74.3269065 82.8762935,74.5598419 83.3075516,75.2773581 C87.372229,82.0483903 94.4950032,86.1776161 102.358681,86.3235516 C103.195003,86.3385194 103.860132,87.0298419 103.844229,87.865229 C103.829261,88.6921968 103.153842,89.3517129 102.331552,89.3517129" id="Fill-37" fill="#FFFFFF"></path>
                <path d="M102.791997,83.3002548 C91.9357065,83.3002548 83.1019323,74.4664806 83.1019323,63.6092548 C83.1019323,62.7729323 83.7810935,62.0947065 84.6164806,62.0947065 C85.4528032,62.0947065 86.131029,62.7729323 86.131029,63.6092548 C86.131029,72.7957065 93.6046097,80.2702226 102.791997,80.2702226 C103.629255,80.2702226 104.306545,80.9484484 104.306545,81.7857065 C104.306545,82.6210935 103.629255,83.3002548 102.791997,83.3002548" id="Fill-39" fill="#FFFFFF"></path>
                <path d="M102.791997,71.1828387 C98.6159968,71.1828387 95.2183194,67.7860968 95.2183194,63.6091613 C95.2183194,62.7728387 95.8965452,62.0946129 96.7328677,62.0946129 C97.5691903,62.0946129 98.2474161,62.7728387 98.2474161,63.6091613 C98.2474161,66.1153226 100.286771,68.1537419 102.791997,68.1537419 C103.629255,68.1537419 104.306545,68.8319677 104.306545,69.6682903 C104.306545,70.5046129 103.629255,71.1828387 102.791997,71.1828387" id="Fill-41" fill="#FFFFFF"></path>
                <path d="M102.791997,77.2415935 C95.2753839,77.2415935 89.1610613,71.1263355 89.1610613,63.6097226 C89.1610613,62.7734 89.8392871,62.0951742 90.6756097,62.0951742 C91.5109968,62.0951742 92.1901581,62.7734 92.1901581,63.6097226 C92.1901581,69.4564968 96.9452226,74.2124968 102.791997,74.2124968 C103.629255,74.2124968 104.306545,74.8897871 104.306545,75.7270452 C104.306545,76.5633677 103.629255,77.2415935 102.791997,77.2415935" id="Fill-43" fill="#FFFFFF"></path>
                <path d="M53.5675839,71.9406742 L42.2080032,71.9406742 C41.3716806,71.9406742 40.6934548,71.2624484 40.6934548,70.4261258 C40.6934548,69.5898032 41.3716806,68.9115774 42.2080032,68.9115774 L53.5675839,68.9115774 C56.490971,68.9115774 58.868971,66.5345129 58.868971,63.6111258 C58.868971,62.7748032 59.5471968,62.0965774 60.3835194,62.0965774 C61.2198419,62.0965774 61.8980677,62.7748032 61.8980677,63.6111258 C61.8980677,68.2043516 58.1608097,71.9406742 53.5675839,71.9406742" id="Fill-45" fill="#FFFFFF"></path>
                <mask id="mask-4" fill="white">
                    <use xlink:href="#path-3"></use>
                </mask>
                <g id="Clip-48"></g>
                <polygon id="Fill-47" fill="#DB7657" mask="url(#mask-4)" points="32.7419355 73.4560645 112.258065 73.4560645 112.258065 67.397871 32.7419355 67.397871"></polygon>
            </g>
        </g>
    </g>
</svg>