<?xml version="1.0" encoding="UTF-8"?>
<svg width="131px" height="131px" viewBox="0 0 131 131" version="1.1" xmlns="http://www.w3.org/2000/svg" xmlns:xlink="http://www.w3.org/1999/xlink">
    <!-- Generator: Sketch 60.1 (88133) - https://sketch.com -->
    <title>icon10</title>
    <desc>Created with Sketch.</desc>
    <defs>
        <polygon id="path-1" points="0.000347842579 0.138143196 130.861857 0.138143196 130.861857 131 0.000347842579 131"></polygon>
        <polygon id="path-3" points="0 131 131 131 131 0 0 0"></polygon>
    </defs>
    <g id="馬卡龍綠色" stroke="none" stroke-width="1" fill="none" fill-rule="evenodd">
        <g id="2功能清單頁" transform="translate(-488.000000, -737.000000)">
            <g id="icon10" transform="translate(488.000000, 737.000000)">
                <g id="Group-3">
                    <mask id="mask-2" fill="white">
                        <use xlink:href="#path-1"></use>
                    </mask>
                    <g id="Clip-2"></g>
                    <path d="M130.862205,65.5690716 C130.862205,101.706437 101.570381,131.001739 65.429537,131.001739 C29.2956499,131.001739 0.000347842579,101.706437 0.000347842579,65.5690716 C0.000347842579,29.4282276 29.2956499,0.136403983 65.429537,0.136403983 C101.570381,0.136403983 130.862205,29.4282276 130.862205,65.5690716" id="Fill-1" fill="#FD8369" mask="url(#mask-2)"></path>
                </g>
                <path d="M94.1560479,37.2499657 L86.8679985,30 L53.098874,30 C52.5792953,30 52.0736651,30.1942575 51.6900835,30.5827724 C51.3030149,30.9678184 51.107737,31.4742753 51.107737,31.9772634 L51.107737,34.3881371 L46.7000363,30 L41.6228115,30 C39.9699237,30 38.4216491,30.6382745 37.2604432,31.8038192 C36.0957501,32.9554884 35.4506357,34.4956725 35.4506357,36.1399231 L35.4506357,38.66527 L34,38.66527 L40.9498002,45.5752851 L37.4382855,45.5752851 C36.9326553,45.5752851 36.4200509,45.7591359 36.0329822,46.1476508 C35.6459135,46.5361657 35.4506357,47.0391537 35.4506357,47.5456107 L35.4506357,99.5892636 C35.4506357,100.092252 35.6459135,100.598709 36.0329822,100.983755 L66.2034145,131 C99.372757,130.306223 126.481511,105.136008 130,72.9066149 L94.1560479,37.2499657 Z" id="Fill-4" fill="#EA6552"></path>
                <path d="M79,52.2471813 L79,99.0225499 C79,99.5290546 78.8094775,100.035559 78.4318348,100.420642 C78.054192,100.805724 77.5574727,101 77.0641555,101 L38.9426488,101 C38.4459295,101 37.9492102,100.805724 37.5681652,100.420642 C37.1939247,100.035559 37,99.5290546 37,99.0225499 L37,46.9739809 C37,46.4709454 37.1939247,45.9609714 37.5681652,45.5793582 C37.9492102,45.1942758 38.4459295,45 38.9426488,45 L71.8928311,45 L79,52.2471813 Z" id="Fill-6" fill="#343B43"></path>
                <path d="M94,37.2471813 L94,84.0225499 C94,84.5325239 93.8094775,85.0355594 93.4318348,85.4206418 C93.054192,85.8057242 92.5574727,86 92.0641555,86 L53.9426488,86 C53.4425273,86 52.9492102,85.8057242 52.5681652,85.4206418 C52.1905225,85.0355594 52,84.5325239 52,84.0225499 L52,31.9739809 C52,31.4709454 52.1905225,30.9644406 52.5681652,30.5793582 C52.9492102,30.1942758 53.4425273,30 53.9426488,30 L86.8928311,30 L94,37.2471813 Z" id="Fill-8" fill="#FFFFFF"></path>
                <path d="M95,36 L89.9066539,36 C89.4207755,36 88.9281953,35.8123504 88.5595979,35.4404021 C88.1876496,35.0684538 88,34.5792245 88,34.0933461 L88,29 L95,36 Z" id="Fill-10" fill="#D9D8D7"></path>
                <mask id="mask-4" fill="white">
                    <use xlink:href="#path-3"></use>
                </mask>
                <g id="Clip-13"></g>
                <polygon id="Fill-12" fill="#343B43" mask="url(#mask-4)" points="59 46.4585 88 46.4585 88 44.5415 59 44.5415"></polygon>
                <polygon id="Fill-14" fill="#343B43" mask="url(#mask-4)" points="59 52.46 88 52.46 88 50.54 59 50.54"></polygon>
                <polygon id="Fill-15" fill="#EA6552" mask="url(#mask-4)" points="60 38.46 74 38.46 74 36.54 60 36.54"></polygon>
                <polygon id="Fill-16" fill="#343B43" mask="url(#mask-4)" points="59 41.4585 88 41.4585 88 39.5415 59 39.5415"></polygon>
                <polygon id="Fill-17" fill="#343B43" mask="url(#mask-4)" points="59 79.46 88 79.46 88 77.54 59 77.54"></polygon>
                <polygon id="Fill-18" fill="#343B43" mask="url(#mask-4)" points="59 75.46 88 75.46 88 73.54 59 73.54"></polygon>
                <polygon id="Fill-19" fill="#343B43" mask="url(#mask-4)" points="59 70.4585 88 70.4585 88 68.5415 59 68.5415"></polygon>
                <polygon id="Fill-20" fill="#343B43" mask="url(#mask-4)" points="59 64.4585 88 64.4585 88 62.5415 59 62.5415"></polygon>
                <polygon id="Fill-21" fill="#343B43" mask="url(#mask-4)" points="59 60.46 88 60.46 88 58.54 59 58.54"></polygon>
                <polygon id="Fill-22" fill="#343B43" mask="url(#mask-4)" points="59 56.46 88 56.46 88 54.54 59 54.54"></polygon>
                <path d="M36.3248605,37 L34,37 L34,34.6666667 C34,33.1538462 34.6881587,31.7275641 35.9305642,30.6602564 C37.1729696,29.5865385 38.8245505,29 40.584005,29 L46,29 L46,31 L40.584005,31 C39.4420335,31 38.3744575,31.3814103 37.5709857,32.0737179 C36.7675139,32.7692308 36.3248605,33.6891026 36.3248605,34.6666667 L36.3248605,37 Z" id="Fill-23" fill="#FFFFFF" mask="url(#mask-4)"></path>
                <polygon id="Fill-24" fill="#FFFFFF" mask="url(#mask-4)" points="34 37.4065 36.5017159 39.5935 39 37.4065"></polygon>
                <path d="M92.6781395,94 L95,94 L95,96.3333333 C95,97.8461538 94.3116279,99.2724359 93.0725581,100.342949 C91.8260465,101.413462 90.1776744,102 88.4176744,102 L83,102 L83,100 L88.4176744,100 C89.5562791,100 90.624186,99.6185897 91.4316279,98.9262821 C92.2353488,98.2307692 92.6781395,97.3108974 92.6781395,96.3333333 L92.6781395,94 Z" id="Fill-25" fill="#FFFFFF" mask="url(#mask-4)"></path>
                <polygon id="Fill-26" fill="#FFFFFF" mask="url(#mask-4)" points="97 93.5935 94.5 91.4065 92 93.5935"></polygon>
            </g>
        </g>
    </g>
</svg>