<?xml version="1.0" encoding="UTF-8"?>
<svg width="135px" height="134px" viewBox="0 0 135 134" version="1.1" xmlns="http://www.w3.org/2000/svg" xmlns:xlink="http://www.w3.org/1999/xlink">
    <!-- Generator: Sketch 60.1 (88133) - https://sketch.com -->
    <title>icon9</title>
    <desc>Created with Sketch.</desc>
    <defs>
        <polygon id="path-1" points="0 0.346447368 134.647158 0.346447368 134.647158 134 0 134"></polygon>
        <polygon id="path-3" points="0 135 135 135 135 1 0 1"></polygon>
    </defs>
    <g id="馬卡龍綠色" stroke="none" stroke-width="1" fill="none" fill-rule="evenodd">
        <g id="2功能清單頁" transform="translate(-169.000000, -736.000000)">
            <g id="icon9" transform="translate(169.000000, 736.000000)">
                <g id="Group-3">
                    <mask id="mask-2" fill="white">
                        <use xlink:href="#path-1"></use>
                    </mask>
                    <g id="Clip-2"></g>
                    <path d="M134.647158,67.1732237 C134.647158,104.081513 104.505263,134.001776 67.32,134.001776 C30.1418947,134.001776 0,104.081513 0,67.1732237 C0,30.2649342 30.1418947,0.344671053 67.32,0.344671053 C104.505263,0.344671053 134.647158,30.2649342 134.647158,67.1732237" id="Fill-1" fill="#8FDEF6" mask="url(#mask-2)"></path>
                </g>
                <path d="M134,73.3445401 L93.2404263,32.6958175 C92.7573658,32.2140284 92.1204416,31.9677807 91.4763609,31.9677807 L74.0289303,31.9677807 L70.590255,28.5381562 L70.5795204,28.523881 C70.5330034,28.4810553 70.4864865,28.4346608 70.4399695,28.3882663 L70.4256566,28.3704223 C70.4185002,28.3704223 70.414922,28.3668534 70.4113437,28.3632846 C70.1966502,28.1598626 69.9640655,27.9742846 69.7135896,27.8065506 C69.6956985,27.799413 69.6778074,27.7887066 69.6670727,27.7780001 C69.4165969,27.6209726 69.1589646,27.4817891 68.8834412,27.371156 C68.8691283,27.3640184 68.8512372,27.3604496 68.833346,27.353312 C68.5542444,27.2426789 68.2679863,27.1534587 67.9674153,27.092789 C67.9566806,27.092789 67.9459459,27.092789 67.931633,27.0892202 C67.6239056,27.0285505 67.3090217,27 66.9834031,27 C64.2353255,27 62.0025124,29.2233674 62.0025124,31.9677807 L42.4940236,31.9677807 C41.8535211,31.9677807 41.2165969,32.2140284 40.7335364,32.6958175 C40.2468976,33.1811754 40,33.8128544 40,34.4552398 L40,51.2000867 L40,99.8714896 C40,100.510306 40.2468976,101.145554 40.7335364,101.630912 L73.1880472,134 C105.409973,131.062871 131.05512,105.485224 134,73.3445401" id="Fill-4" fill="#70C9E9"></path>
                <mask id="mask-4" fill="white">
                    <use xlink:href="#path-3"></use>
                </mask>
                <g id="Clip-7"></g>
                <polygon id="Fill-6" fill="#FD8369" mask="url(#mask-4)" points="97.602 96 100.398 96 100.398 52 97.602 52"></polygon>
                <polygon id="Fill-8" fill="#EA6552" mask="url(#mask-4)" points="100.598 96 103.402 96 103.402 52 100.598 52"></polygon>
                <polygon id="Fill-9" fill="#E24F3B" mask="url(#mask-4)" points="102.602 96 105.398 96 105.398 52 102.602 52"></polygon>
                <polygon id="Fill-10" fill="#FFFFFF" mask="url(#mask-4)" points="106 52 103.329524 48.0032949 100.666667 48 98 52"></polygon>
                <polygon id="Fill-11" fill="#E6E5E5" mask="url(#mask-4)" points="105.87 52 103.07 52 102.13 48 103.066 48.0032949"></polygon>
                <polygon id="Fill-12" fill="#343B43" mask="url(#mask-4)" points="103.398 47.21 101.994 44.79 100.602 47.206"></polygon>
                <polygon id="Fill-13" fill="#E6E5E5" mask="url(#mask-4)" points="102.6 98.4 105.4 98.4 105.4 95.6 102.6 95.6"></polygon>
                <polygon id="Fill-14" fill="#FFFFFF" mask="url(#mask-4)" points="103 98.396 98 98.4 98 95.6 103 95.6"></polygon>
                <path d="M106,99.5375103 L106,99 L103.501787,99 L103.501787,99.5375103 C103.501787,100.42127 103.137241,101.308326 102.404575,101.984336 C101.993567,102.356966 101.511079,102.633965 101,102.795548 C101.40386,102.93075 101.822016,103 102.24732,103 C103.212294,103 104.166548,102.660346 104.906362,101.984336 C105.639028,101.308326 106,100.42127 106,99.5375103" id="Fill-15" fill="#343B43" mask="url(#mask-4)"></path>
                <path d="M103,98.5664639 L103,98 L98,98 L98,98.5664639 C98,99.497828 98.3678571,100.432667 99.0964286,101.145091 C99.5035714,101.537793 99.9857143,101.822763 100.5,102 C101.010714,101.829713 101.492857,101.537793 101.903571,101.145091 C102.635714,100.432667 103,99.497828 103,98.5664639" id="Fill-16" fill="#495057" mask="url(#mask-4)"></path>
                <path d="M42.491812,33 C41.850958,33 41.2172645,33.2377814 40.7303587,33.7204421 C40.2398727,34.2066518 40,34.8383695 40,35.4665382 L40,100.526364 C40,101.161631 40.2398727,101.793348 40.7303587,102.276009 C41.2172645,102.75867 41.850958,103 42.491812,103 L91.5046078,103 C92.1454618,103 92.7827355,102.75867 93.2696413,102.276009 C93.7565471,101.793348 94,101.161631 94,100.526364 L94,35.4665382 C94,34.8383695 93.7565471,34.2031028 93.2696413,33.7204421 C92.7827355,33.2377814 92.1454618,33 91.5046078,33 L42.491812,33 Z" id="Fill-17" fill="#343B43" mask="url(#mask-4)"></path>
                <polygon id="Fill-18" fill="#FFFFFF" mask="url(#mask-4)" points="46 97 88 97 88 32 46 32"></polygon>
                <polygon id="Fill-19" fill="#CCCBCA" mask="url(#mask-4)" points="51 59.56 84 59.56 84 56.44 51 56.44"></polygon>
                <polygon id="Fill-20" fill="#CCCBCA" mask="url(#mask-4)" points="51 64.562 84 64.562 84 61.438 51 61.438"></polygon>
                <polygon id="Fill-21" fill="#CCCBCA" mask="url(#mask-4)" points="51 70.562 84 70.562 84 67.438 51 67.438"></polygon>
                <polygon id="Fill-22" fill="#CCCBCA" mask="url(#mask-4)" points="51 75.56 84 75.56 84 72.44 51 72.44"></polygon>
                <polygon id="Fill-23" fill="#CCCBCA" mask="url(#mask-4)" points="51 81.562 84 81.562 84 78.438 51 78.438"></polygon>
                <polygon id="Fill-24" fill="#CCCBCA" mask="url(#mask-4)" points="50 87.562 67 87.562 67 84.438 50 84.438"></polygon>
                <polygon id="Fill-25" fill="#343B43" mask="url(#mask-4)" points="58 48.56 76 48.56 76 45.44 58 45.44"></polygon>
                <polygon id="Fill-26" fill="#CCCBCA" mask="url(#mask-4)" points="51 53.562 84 53.562 84 50.438 51 50.438"></polygon>
                <path d="M64.8945925,32.0788863 C64.8945925,30.8793503 65.8397335,29.8985747 67.0035266,29.8985747 C68.1602665,29.8985747 69.1054075,30.8793503 69.1054075,32.0788863 L64.8945925,32.0788863 Z M71.9090909,32.0788863 C71.9090909,29.2714617 69.7119906,27 67.0035266,27 C64.2880094,27 62.0909091,29.2714617 62.0909091,32.0788863 L58,32.0788863 L58,38 L76,38 L76,32.0788863 L71.9090909,32.0788863 Z" id="Fill-27" fill="#343B43" mask="url(#mask-4)"></path>
            </g>
        </g>
    </g>
</svg>