<?xml version="1.0" encoding="utf-8"?>
<!-- Generator: Adobe Illustrator 24.0.2, SVG Export Plug-In . SVG Version: 6.00 Build 0)  -->
<svg version="1.1" id="圖層_1" xmlns="http://www.w3.org/2000/svg" xmlns:xlink="http://www.w3.org/1999/xlink" x="0px" y="0px"
	 viewBox="0 0 27 108" style="enable-background:new 0 0 27 108;" xml:space="preserve">
<style type="text/css">
	.st0{fill:none;}
	.st1{fill:#FFFFFF;}
	.st2{fill:#999999;}
	.st3{fill:#AB86B9;}
</style>
<g id="XMLID_589_">
	<rect id="XMLID_593_" class="st0" width="27" height="27"/>
	<rect id="XMLID_592_" y="27" class="st0" width="27" height="27"/>
	<rect id="XMLID_591_" y="54" class="st0" width="27" height="27"/>
	<rect id="XMLID_590_" y="81" class="st0" width="27" height="27"/>
</g>
<g id="XMLID_557_">
	<g id="XMLID_561_">
		<path class="st1" d="M6,76.5c-0.8,0-1.5-0.7-1.5-1.5V60c0-0.8,0.7-1.5,1.5-1.5h15c0.8,0,1.5,0.7,1.5,1.5v15c0,0.8-0.7,1.5-1.5,1.5
			H6z"/>
		<path class="st1" d="M21,59c0.6,0,1,0.4,1,1v15c0,0.6-0.4,1-1,1H6c-0.6,0-1-0.4-1-1V60c0-0.6,0.4-1,1-1H21 M21,58H6
			c-1.1,0-2,0.9-2,2v15c0,1.1,0.9,2,2,2h15c1.1,0,2-0.9,2-2V60C23,58.9,22.1,58,21,58L21,58z"/>
	</g>
	<path id="XMLID_558_" class="st2" d="M20.1,60.9v13.2H6.9V60.9H20.1 M20.1,59H6.9c-1,0-1.9,0.8-1.9,1.9v13.2c0,1,0.8,1.9,1.9,1.9
		h13.2c1,0,1.9-0.8,1.9-1.9V60.9C22,59.8,21.2,59,20.1,59z"/>
</g>
<g id="XMLID_551_">
	<path class="st1" d="M6,102.5c-0.8,0-1.5-0.7-1.5-1.5V86c0-0.8,0.7-1.5,1.5-1.5h15c0.8,0,1.5,0.7,1.5,1.5v15c0,0.8-0.7,1.5-1.5,1.5
		H6z"/>
	<path class="st1" d="M21,85c0.6,0,1,0.4,1,1v15c0,0.6-0.4,1-1,1H6c-0.6,0-1-0.4-1-1V86c0-0.6,0.4-1,1-1H21 M21,84H6
		c-1.1,0-2,0.9-2,2v15c0,1.1,0.9,2,2,2h15c1.1,0,2-0.9,2-2V86C23,84.9,22.1,84,21,84L21,84z"/>
</g>
<g id="XMLID_541_">
	<g id="XMLID_545_">
		<circle class="st1" cx="13.5" cy="13.5" r="9"/>
		<path class="st1" d="M13.5,5c4.7,0,8.5,3.8,8.5,8.5S18.2,22,13.5,22S5,18.2,5,13.5S8.8,5,13.5,5 M13.5,4C8.3,4,4,8.3,4,13.5
			S8.3,23,13.5,23s9.5-4.3,9.5-9.5S18.7,4,13.5,4L13.5,4z"/>
	</g>
	<path id="XMLID_542_" class="st2" d="M13.5,5C8.8,5,5,8.8,5,13.5S8.8,22,13.5,22s8.5-3.8,8.5-8.5S18.2,5,13.5,5z M13.5,20.3
		c-3.8,0-6.8-3-6.8-6.8s3-6.8,6.8-6.8s6.8,3,6.8,6.8S17.3,20.3,13.5,20.3z"/>
</g>
<g id="XMLID_531_">
	<g id="XMLID_535_">
		<circle class="st1" cx="13.5" cy="40.5" r="9"/>
		<path class="st1" d="M13.5,32c4.7,0,8.5,3.8,8.5,8.5S18.2,49,13.5,49S5,45.2,5,40.5S8.8,32,13.5,32 M13.5,31C8.3,31,4,35.3,4,40.5
			S8.3,50,13.5,50s9.5-4.3,9.5-9.5S18.7,31,13.5,31L13.5,31z"/>
	</g>
	<path id="XMLID_532_" class="st2" d="M13.5,32C8.8,32,5,35.8,5,40.5S8.8,49,13.5,49s8.5-3.8,8.5-8.5S18.2,32,13.5,32z M13.5,47.3
		c-3.8,0-6.8-3-6.8-6.8s3-6.8,6.8-6.8s6.8,3,6.8,6.8S17.3,47.3,13.5,47.3z"/>
</g>
<circle id="XMLID_530_" class="st3" cx="13.5" cy="40.5" r="4.5"/>
<path id="XMLID_527_" class="st3" d="M20.1,85H6.9c-1,0-1.9,0.8-1.9,1.9v13.2c0,1,0.8,1.9,1.9,1.9h13.2c1,0,1.9-0.8,1.9-1.9V86.9
	C22,85.8,21.2,85,20.1,85z M11.6,98.2l-4.7-4.7l1.3-1.3l3.4,3.4l7.2-7.2l1.3,1.3L11.6,98.2z"/>
</svg>
